<svg xmlns="http://www.w3.org/2000/svg" viewBox="0 0 389.93 306.97"><defs><style>.cls-1{fill:none;stroke:#fff;stroke-miterlimit:10;stroke-width:10px;}</style></defs><title>Asset 5</title><g id="Layer_2" data-name="Layer 2"><g id="Layer_1-2" data-name="Layer 1"><path class="cls-1" d="M373.8,170.07a49,49,0,0,0-38-17.58H269.88l-1.2-1.2a53.63,53.63,0,0,0-40.77-19.19H162.36a51.78,51.78,0,0,0-40.77,19.19l-1.19,1.2H54.45a49.65,49.65,0,0,0-38,17.58A50.18,50.18,0,0,0,5.68,210l10,68a28.74,28.74,0,0,0,28.38,24H345.42a28.74,28.74,0,0,0,28.38-24l9.59-67.15C387.39,196.05,383.39,181.27,373.8,170.07Z"/><path class="cls-1" d="M306.25,140.9A44.7,44.7,0,0,0,351,96.13v-16a44.77,44.77,0,0,0-89.53,0v16C261.09,120.51,281.47,140.9,306.25,140.9Z"/><path class="cls-1" d="M84.82,140.9a44.7,44.7,0,0,0,44.77-44.77v-16a44.77,44.77,0,0,0-89.53,0v16A45,45,0,0,0,84.82,140.9Z"/><path class="cls-1" d="M195.54,118.91A48.27,48.27,0,0,0,243.9,70.55V53.36a48.37,48.37,0,0,0-96.73,0V71A48.19,48.19,0,0,0,195.54,118.91Z"/></g></g></svg>