<svg xmlns="http://www.w3.org/2000/svg" viewBox="0 0 50.13 50.32"><defs><style>.cls-1{fill:#1212db;}</style></defs><title>Asset 2</title><g id="Layer_2" data-name="Layer 2"><g id="Layer_1-2" data-name="Layer 1"><path class="cls-1" d="M14.48,27.86a.92.92,0,0,0-.08.52l.17,2.44C14.48,34.16,13,35.25,13,35.25l2.07,13.31A29.79,29.79,0,0,1,8.51,45.2l-.86-9.6s-.46-.23-1.38-.66a6.35,6.35,0,0,1-2.12-2A7.87,7.87,0,0,0,2,30.34C.58,29.3.45,29.8.09,29.17s.55-1,.55-1a5.11,5.11,0,0,1,4.7,2.19l.18,0,0-.1h0l.13-.44s0-.06,0-.17a4.48,4.48,0,0,1,4.24,2.33l.2.33s-.2-3.13-4.44-2.67a10.75,10.75,0,0,0,0-1.39,3.38,3.38,0,0,0-.25-.89L3.28,22.15a1,1,0,0,1,.36-1.28.88.88,0,0,1,1.19.3s2.31,4.62,2.57,5.19.61-.17.61-.17L7.18,20A1,1,0,0,1,8,18.78c1.08-.22,1.18,1.38,1.18,1.38s.73,5.32.82,5.94.44,0,.44,0,.82-5.11.9-5.66.25-1.14,1.05-1.11.69,1.75.69,1.75-.62,5.19-.64,5.58.23.28.23.28,1.93-4,2.09-4.27.47-.91,1.26-.59,0,2,0,2S14.61,27.53,14.48,27.86Zm35.43-2.71a.88.88,0,0,0-1.28.29c-.21.23-2.82,3.54-2.82,3.54s-.25,0-.15-.31,1.73-5.05,1.73-5.05.45-1.58-.28-1.76-1,.33-1.2.82l-2,5.06s-.44.48-.4-.11S44,22,44,22s.24-1.51-.81-1.52a1,1,0,0,0-1,1l-.48,5.9s-.48.61-.6,0S39.71,22,39.71,22a.84.84,0,0,0-1.05-.52c-.8.22-.59,1.11-.59,1.11l1,5.22a3.4,3.4,0,0,1,.05.87,8,8,0,0,1-.3,1.26c3.88.49,3.44,3.36,3.44,3.36a3.59,3.59,0,0,0-.12-.35,4.21,4.21,0,0,0-3.32-3l0,.17-.21.38h0l0,.09h-.18a4.85,4.85,0,0,0-3.91-3s-.93.19-.72.85.43.23,1.5,1.47a7.36,7.36,0,0,1,1.5,2.85,6.18,6.18,0,0,0,1.56,2.3c.77.58,1.15.89,1.15.89L37.91,47.5A29.26,29.26,0,0,0,44,43.66l.43-6.93S46,36,46.77,32.94l.34-2.3a.89.89,0,0,1,.19-.46c.18-.28,2.2-3.13,2.2-3.13S50.58,25.6,49.91,25.15ZM39.09,6.91a1.5,1.5,0,0,0-2.14.7c-.31.43-4.21,6.51-4.21,6.51s-.43.11-.31-.51,2.1-8.89,2.1-8.89.51-2.76-.78-3-1.67.74-1.91,1.6-2.53,9-2.53,9-.66.9-.7-.11-.2-9.75-.2-9.75S28.57-.15,26.78,0a1.63,1.63,0,0,0-1.6,1.83L25.33,12s-.7,1.13-1,.16-3.16-8.89-3.16-8.89a1.42,1.42,0,0,0-1.87-.7,1.57,1.57,0,0,0-.82,2L21,13.26a5.73,5.73,0,0,1,.23,1.48,20.47,20.47,0,0,1-.35,2.53l0,.08c6.91.08,6.63,5.16,6.63,5.16-.09-.19-.17-.38-.26-.56C26,18.16,22,17.48,20.85,17.37L20.6,18h0l-.07.16-.3,0c-3-4.76-7.17-4.44-7.17-4.44s-1.56.46-1.09,1.56.78.31,2.81,2.26a13,13,0,0,1,3,4.59,10.05,10.05,0,0,0,3,3.67c1.4.86,2.1,1.32,2.1,1.32l-.67,23.08a28.36,28.36,0,0,0,2.94.15,30.28,30.28,0,0,0,7.24-.88l-.78-21.88S34.26,26.08,35,20.7l.2-4a1.51,1.51,0,0,1,.23-.82c.27-.51,3.23-5.69,3.23-5.69S40.3,7.57,39.09,6.91Z"/></g></g></svg>