<svg xmlns="http://www.w3.org/2000/svg" viewBox="0 0 32 32"><defs><style>.cls-1{fill:#1212db;}</style></defs><title>Asset 4</title><g id="Layer_2" data-name="Layer 2"><g id="Layer_1-2" data-name="Layer 1"><path class="cls-1" d="M16,0A16,16,0,1,0,32,16,16,16,0,0,0,16,0Zm0,31A15,15,0,1,1,31,16,15,15,0,0,1,16,31Z"/><path class="cls-1" d="M24.92,18.88A4.13,4.13,0,0,1,22,21.26a8.09,8.09,0,0,0,2-2.38c.73-1.43-1-.95-1-.95a18,18,0,0,1-3.91,3.33,4.1,4.1,0,0,0-1.47,5.24H20c.12-2.26,2.69-3.09,4.89-5.24s1.47-5.71,1.47-5.71C24.92,15.9,25.53,17,24.92,18.88Z"/><path class="cls-1" d="M13,21.26A17.9,17.9,0,0,1,9,17.93s-1.71-.48-1,.95a8.09,8.09,0,0,0,2,2.38,4.1,4.1,0,0,1-2.93-2.38c-.62-1.9,0-3-1.47-3.33,0,0-.74,3.57,1.47,5.71s4.77,3,4.89,5.24h2.44A4.1,4.1,0,0,0,13,21.26Z"/><path class="cls-1" d="M19.64,15.93l-.28-1a4.4,4.4,0,0,1-2,.53A3.17,3.17,0,0,1,15,14.5a4,4,0,0,1-.91-2.13h4.69v-.8H14v-.29c0-.23,0-.47,0-.68h4.77V9.79H14.16a3.87,3.87,0,0,1,1-2.07,2.94,2.94,0,0,1,2.19-.89,3.9,3.9,0,0,1,1.85.45l.33-1.07a4.78,4.78,0,0,0-2.2-.52A4.42,4.42,0,0,0,14,7a5.12,5.12,0,0,0-1.35,2.74H11.6v.82h1c0,.23,0,.47,0,.73v.25H11.6v.79h1a5,5,0,0,0,1.19,2.8,4.39,4.39,0,0,0,3.36,1.45A4.66,4.66,0,0,0,19.64,15.93Z"/></g></g></svg>