<svg xmlns="http://www.w3.org/2000/svg" xmlns:xlink="http://www.w3.org/1999/xlink" version="1.1" x="0px" y="0px" viewBox="0 0 35 43.75" enable-background="new 0 0 35 35" xml:space="preserve"><g><g><path d="M17.5,29.292c-6.502,0-11.791-5.29-11.791-11.791c0-6.502,5.289-11.792,11.791-11.792s11.791,5.29,11.791,11.792    C29.291,24.002,24.002,29.292,17.5,29.292z M17.5,6.708c-5.95,0-10.791,4.841-10.791,10.792c0,5.95,4.841,10.791,10.791,10.791    S28.291,23.451,28.291,17.5C28.291,11.55,23.45,6.708,17.5,6.708z"/></g><g><path d="M22,18h-9c-0.276,0-0.5-0.224-0.5-0.5S12.724,17,13,17h9c0.276,0,0.5,0.224,0.5,0.5S22.276,18,22,18z"/></g></g><text x="0" y="50" fill="#000000" font-size="5px" font-weight="bold" font-family="'Helvetica Neue', Helvetica, Arial-Unicode, Arial, Sans-serif">Created by Roundicons.com</text><text x="0" y="55" fill="#000000" font-size="5px" font-weight="bold" font-family="'Helvetica Neue', Helvetica, Arial-Unicode, Arial, Sans-serif">from the Noun Project</text></svg>