<svg xmlns="http://www.w3.org/2000/svg" xmlns:xlink="http://www.w3.org/1999/xlink" version="1.1" x="0px" y="0px" viewBox="0 0 100 55.78125" enable-background="new 0 0 100 44.625" xml:space="preserve"><g><path d="M91.771,39.924H79.366l2.031-2.283l-3.732-4.736L77.64,33.74l-7.216-0.215l-0.018-0.086   c-0.052-0.24-0.107-0.48-0.167-0.719l-0.021-0.084l14.588-7.715l-4.29-8.107l-14.575,7.71l-0.251-0.283l4.582-6.23l0.673,0.496   l-1.43-5.857l-6.018,0.378l0.674,0.495l-4.56,6.197l-0.083-0.039c-1.023-0.485-2.094-0.882-3.182-1.182l-0.074-0.02l-0.006-0.077   c-0.016-0.192-0.032-0.362-0.048-0.516c-0.067-0.686-0.109-1.099,0.163-1.897c0.036-0.108,0.116-0.193,0.194-0.276l0.04-0.042   c0.04-0.045,0.076-0.084,0.108-0.12c-0.171,0.118-0.607,0.391-0.783,0.217c-0.07-0.069-0.12-0.18-0.14-0.3   c-0.015,0.065-0.043,0.116-0.101,0.146c-0.194,0.104-0.316-0.096-0.355-0.161c-0.006-0.011-0.012-0.021-0.017-0.027   c-0.231-0.218-0.344-0.494-0.326-0.795l0.027-0.069l0.021-0.053l0.056-0.006c0.277-0.057,0.531-0.287,0.661-0.599l0.017-0.041   l0.048-0.044l0.289-0.131l-0.127,0.276c-0.01,0.02-0.021,0.042-0.029,0.063c-0.08,0.193-0.086,0.402-0.018,0.576l0.015,0.036   l-0.011,0.037c-0.08,0.274-0.11,0.406-0.124,0.469c0.037-0.12,0.063-0.209,0.079-0.28l0.041-0.177l0.139,0.118   c0.041,0.033,0.075,0.055,0.109,0.069c0.208,0.086,0.465-0.007,0.642-0.231l0.056-0.071l0.081,0.041   c0.083,0.04,0.179,0.052,0.28,0.036l0.025-0.004l0.248-0.573l-0.078,0.545l0.104-0.018l-0.122,0.144l-0.021,0.151   c-0.051,0.35,0.089,0.657,0.345,0.763c0.224,0.091,0.49,0.018,0.7-0.195l0.036-0.036l0.052,0.004c0.079,0.006,0.161,0,0.242-0.017   l0.063-0.013l0.043,0.047c0.049,0.055,0.106,0.096,0.169,0.122c0.295,0.123,0.663-0.089,0.819-0.468   c0.116-0.281,0.089-0.587-0.071-0.777l-0.033-0.039l0.009-0.051c0.008-0.046,0.014-0.09,0.018-0.135l0.008-0.093l0.092-0.009   c0.275-0.027,0.537-0.248,0.667-0.56c0.111-0.269,0.104-0.56-0.02-0.778l-0.038-0.066l0.05-0.059   c0.207-0.251,0.359-0.566,0.441-0.91c0.131-0.542-0.395-1.138-0.72-1.444c-0.515-0.486-1.114-0.819-1.44-0.898l-0.076-0.018   l-0.008-0.077c-0.018-0.148-0.07-0.279-0.151-0.38c-0.03-0.035-0.063-0.068-0.102-0.096l-0.022-0.017l-0.012-0.024   c-0.024-0.05-0.05-0.091-0.08-0.127c-0.206-0.254-0.569-0.266-0.859-0.027l-0.139,0.113l-0.041-0.174   c-0.033-0.147-0.095-0.275-0.179-0.38c-0.255-0.313-0.683-0.359-1.061-0.116l-0.088,0.058l-0.086-0.117   c-0.092-0.115-0.217-0.177-0.36-0.18c-0.168-0.006-0.363,0.085-0.507,0.248c-0.027,0.03-0.052,0.063-0.075,0.098l-0.055,0.081   l-0.087-0.044c-0.156-0.065-0.35,0.05-0.434,0.255c-0.042,0.099-0.051,0.205-0.025,0.298l0.048,0.173l-0.177-0.035   c-0.452-0.09-0.964,0.249-1.187,0.789c-0.066,0.161-0.104,0.327-0.11,0.496l-0.004,0.081l-0.079,0.021   c-0.571,0.156-1.04,0.668-1.192,1.308c-0.168,0.695,0.063,1.415,0.572,1.792l0.049,0.036l-0.004,0.059   c-0.015,0.3,0.119,0.553,0.34,0.645c0.09,0.037,0.188,0.046,0.291,0.026l0.07-0.012l0.041,0.057c0.035,0.05,0.08,0.094,0.133,0.133   l0.029,0.021l0.012,0.034c0.084,0.253,0.393,0.484,0.768,0.573c0.283,0.069,0.565,0.051,0.777-0.049l0.152-0.071l0.006,0.168   c0.008,0.224,0.055,0.509,0.236,0.591c0.136,0.061,0.243,0.121,0.323,0.184l0.067,0.052l-0.033,0.079   c-0.145,0.345-0.521,1.255-0.862,2.219l-0.03,0.089l-0.094-0.018c-1.004-0.176-2.036-0.274-3.068-0.293l-0.09-0.002l-1.434-7.39   l0.821-0.159l-5.276-2.919L41.69,12.01l0.821-0.159l1.335,6.879L34.363,5.614l-0.513,0.37l-0.64-0.885l-0.776,0.56l-0.559-0.772   l-3.179,2.298l0.56,0.773l-0.776,0.561l0.641,0.885l-0.514,0.372l9.011,12.463l-12.494-8.757l-6.033,8.607l13.26,9.294   l-0.025,0.078c-0.13,0.402-0.247,0.807-0.347,1.201l-0.217-0.047l0.051-0.291c-0.418,0.043-0.746,0.096-1.014,0.139   c-0.678,0.109-1.087,0.172-1.899-0.049c-0.109-0.029-0.199-0.105-0.285-0.178l-0.047-0.039c-0.047-0.037-0.089-0.07-0.126-0.1   c0.148,0.189,0.421,0.59,0.264,0.768c-0.065,0.074-0.175,0.131-0.293,0.156c0.066,0.014,0.119,0.039,0.152,0.094   c0.114,0.188-0.077,0.32-0.139,0.363c-0.012,0.008-0.021,0.014-0.028,0.021c-0.2,0.24-0.469,0.371-0.772,0.371l-0.051-0.012   l-0.074-0.031l-0.009-0.055c-0.073-0.273-0.317-0.512-0.637-0.625l-0.042-0.014l-0.046-0.047l-0.146-0.279L26.9,32.92   c0.021,0.008,0.042,0.018,0.063,0.023l0.002,0.002c0.196,0.068,0.406,0.063,0.575-0.018l0.035-0.016l0.037,0.008   c0.003,0.002,0.007,0.002,0.011,0.002l0.109-0.145c0.029-0.039,0.05-0.076,0.063-0.113c0.073-0.213-0.035-0.463-0.27-0.627   l-0.074-0.051l0.035-0.082c0.036-0.088,0.043-0.184,0.021-0.281l-0.006-0.027l-0.58-0.211l0.542,0.043l-0.023-0.104l0.15,0.115   l0.152,0.012c0.353,0.027,0.65-0.129,0.74-0.391c0.079-0.227-0.011-0.49-0.235-0.686l-0.039-0.035l0.001-0.051   c0.001-0.082-0.009-0.162-0.031-0.24l-0.017-0.063l0.045-0.047c0.052-0.051,0.089-0.111,0.112-0.176   c0.049-0.141,0.025-0.301-0.067-0.445c-0.097-0.156-0.256-0.279-0.449-0.344c-0.288-0.1-0.591-0.055-0.771,0.117l-0.039,0.035   l-0.052-0.006c-0.045-0.006-0.09-0.01-0.135-0.01l-0.092-0.002l-0.015-0.092c-0.045-0.273-0.279-0.521-0.599-0.631   c-0.276-0.096-0.565-0.072-0.776,0.064l-0.064,0.041l-0.062-0.045c-0.264-0.191-0.588-0.326-0.935-0.387   c-0.947-0.17-2.083,1.582-2.213,2.297l-0.014,0.074l-0.076,0.014c-0.146,0.027-0.274,0.086-0.369,0.174   c-0.034,0.031-0.064,0.066-0.091,0.107l-0.015,0.023l-0.024,0.012c-0.046,0.027-0.086,0.055-0.121,0.088   c-0.108,0.1-0.169,0.227-0.175,0.369c-0.007,0.168,0.063,0.344,0.199,0.492l0.121,0.129l-0.171,0.053   c-0.145,0.041-0.269,0.109-0.369,0.201c-0.298,0.275-0.319,0.701-0.053,1.064l0.062,0.084l-0.079,0.066l-0.108-0.055l0.076,0.082   c-0.108,0.1-0.162,0.227-0.157,0.369c0.007,0.178,0.108,0.357,0.277,0.492c0.033,0.027,0.068,0.049,0.103,0.07l0.083,0.051   l-0.039,0.088c-0.056,0.16,0.071,0.346,0.28,0.42c0.101,0.033,0.208,0.037,0.3,0.006l0.17-0.057l-0.024,0.178   c-0.062,0.457,0.308,0.945,0.861,1.137c0.165,0.057,0.334,0.086,0.502,0.08h0.082l0.026,0.076c0.188,0.563,0.728,0.998,1.375,1.113   c0.063,0.012,0.125,0.018,0.187,0.023l0.002,0.221l-8.419,0.836l0.063,0.631l-0.944,0.094l0.075,0.76H8.229v-0.223h7.169   l-0.073-0.736l0.944-0.094l-0.063-0.631l7.987-0.791c-0.495-0.207-0.891-0.59-1.072-1.057c-0.168-0.004-0.335-0.035-0.499-0.092   c-0.604-0.209-1.009-0.709-1.018-1.227c-0.095,0.006-0.194-0.006-0.289-0.039c-0.295-0.102-0.478-0.369-0.438-0.623   c-0.019-0.012-0.038-0.027-0.055-0.039c-0.22-0.176-0.351-0.416-0.36-0.658c-0.007-0.191,0.062-0.371,0.194-0.508   c-0.271-0.436-0.219-0.949,0.138-1.275c0.088-0.082,0.189-0.148,0.304-0.199c-0.109-0.162-0.165-0.342-0.157-0.523   c0.009-0.203,0.094-0.383,0.247-0.523c0.041-0.037,0.087-0.072,0.139-0.104c0.033-0.047,0.07-0.09,0.112-0.127   c0.109-0.102,0.249-0.174,0.406-0.213c0.205-0.85,1.379-2.594,2.456-2.4c0.354,0.063,0.687,0.195,0.967,0.383   c0.259-0.137,0.591-0.156,0.904-0.049c0.362,0.125,0.638,0.4,0.726,0.717c0.006,0.002,0.012,0.002,0.019,0.002   c0.242-0.199,0.611-0.25,0.958-0.131c0.239,0.082,0.44,0.236,0.564,0.434c0.129,0.205,0.161,0.434,0.089,0.641   c-0.027,0.074-0.067,0.148-0.12,0.211c0.013,0.063,0.021,0.127,0.023,0.191c0.265,0.256,0.365,0.592,0.261,0.893   c-0.084,0.246-0.292,0.424-0.559,0.502c0.017,0.01,0.032,0.016,0.047,0.025c0.115,0.063,0.225,0.119,0.526,0.365l0.049,0.041   c0.071,0.059,0.139,0.115,0.201,0.133c0.766,0.209,1.135,0.152,1.806,0.043c0.295-0.045,0.66-0.104,1.138-0.15   c0.059-0.207,0.121-0.414,0.187-0.621L18.78,22.143l6.289-8.971l0.091,0.064l11.502,8.061L28.295,9.726l0.513-0.372l-0.641-0.885   l0.777-0.561l-0.56-0.775l3.54-2.558l0.559,0.773l0.776-0.561l0.64,0.885l0.513-0.37l9.023,12.48l-1.1-5.671l-1.204,0.233   l4.304-5.3l5.976,3.306l-1.205,0.234l1.357,6.993c0.982,0.024,1.965,0.118,2.921,0.281c0.31-0.867,0.641-1.677,0.801-2.06   c-0.057-0.037-0.127-0.072-0.21-0.11c-0.197-0.088-0.317-0.305-0.355-0.632c-0.231,0.069-0.506,0.074-0.775,0.008   c-0.438-0.105-0.793-0.373-0.916-0.687c-0.041-0.032-0.079-0.068-0.112-0.107c-0.122,0.013-0.241-0.005-0.349-0.049   c-0.295-0.122-0.479-0.433-0.479-0.802c-0.548-0.439-0.792-1.229-0.61-1.987c0.166-0.689,0.662-1.249,1.273-1.447   c0.016-0.167,0.057-0.332,0.123-0.492c0.244-0.588,0.766-0.958,1.285-0.939c-0.002-0.095,0.017-0.193,0.055-0.286   c0.12-0.288,0.397-0.454,0.649-0.401c0.013-0.017,0.025-0.033,0.041-0.05c0.188-0.211,0.443-0.33,0.68-0.323   c0.191,0.005,0.364,0.083,0.495,0.223c0.45-0.243,0.96-0.161,1.266,0.215c0.074,0.092,0.135,0.198,0.178,0.315   c0.367-0.217,0.785-0.163,1.042,0.152c0.035,0.044,0.066,0.091,0.095,0.146c0.044,0.034,0.084,0.075,0.12,0.119   c0.094,0.115,0.157,0.258,0.188,0.418c0.414,0.125,1.015,0.504,1.468,0.933c0.622,0.586,0.899,1.174,0.784,1.656   c-0.084,0.352-0.237,0.676-0.44,0.943c0.122,0.267,0.122,0.601-0.005,0.905c-0.146,0.354-0.438,0.613-0.76,0.682   c-0.001,0.006-0.001,0.012-0.002,0.018c0.184,0.253,0.213,0.625,0.073,0.965c-0.204,0.493-0.702,0.757-1.109,0.588   c-0.075-0.031-0.144-0.075-0.205-0.133c-0.063,0.009-0.127,0.014-0.193,0.012c-0.27,0.25-0.612,0.33-0.905,0.209   c-0.239-0.1-0.405-0.317-0.467-0.589c-0.011,0.017-0.021,0.032-0.03,0.048c-0.068,0.11-0.133,0.216-0.395,0.501l-0.042,0.044   c-0.065,0.069-0.126,0.134-0.146,0.196c-0.256,0.753-0.219,1.126-0.151,1.804c0.014,0.134,0.027,0.28,0.042,0.441   c1.044,0.292,2.072,0.674,3.06,1.134l4.318-5.87l-0.988-0.726l6.815-0.43l1.619,6.634l-0.987-0.726l-4.344,5.905l0.015,0.018   l14.618-7.732l4.498,8.5l-0.098,0.053l-14.533,7.686c0.046,0.186,0.088,0.369,0.129,0.557l6.818,0.203l0.037-1.227l4.227,5.363   l-1.825,2.053h11.909V39.924z M27.379,33.205c0.14,0.125,0.246,0.275,0.304,0.441c0.213-0.016,0.397-0.113,0.547-0.295   c0.018-0.021,0.041-0.037,0.069-0.057c0.017-0.012,0.052-0.037,0.069-0.055c-0.041-0.006-0.116-0.002-0.174,0l-0.047,0.002   c-0.024,0-0.1,0.004-0.549-0.096C27.529,33.174,27.455,33.193,27.379,33.205z M27.638,32.926c0.266,0.061,0.394,0.082,0.453,0.09   c-0.124-0.029-0.215-0.049-0.289-0.061L27.638,32.926z M27.995,32.766c0.056,0.012,0.119,0.027,0.193,0.045   c0.12,0.031,0.292-0.027,0.35-0.092c0.007-0.053-0.129-0.303-0.283-0.498l-0.519-0.393c-0.004,0.025-0.009,0.053-0.016,0.078   c0.271,0.221,0.385,0.545,0.286,0.83C28.003,32.748,27.999,32.756,27.995,32.766z M56.029,15.256L56.029,15.256   c-0.037,0.119,0.007,0.294,0.069,0.355c0.059,0.009,0.331-0.125,0.514-0.253l0.424-0.495c-0.026-0.004-0.053-0.012-0.077-0.02   c-0.237,0.256-0.568,0.351-0.846,0.236c-0.01-0.003-0.02-0.008-0.028-0.013C56.069,15.121,56.05,15.184,56.029,15.256z    M55.224,14.702c0.003,0.215,0.091,0.404,0.262,0.563l0,0c0.021,0.019,0.034,0.044,0.053,0.072   c0.011,0.018,0.033,0.055,0.051,0.072c0.007-0.039,0.008-0.115,0.01-0.173l0.001-0.048c0.001-0.046,0.018-0.149,0.129-0.542   c-0.024-0.07-0.039-0.145-0.046-0.222C55.551,14.557,55.392,14.655,55.224,14.702z M74.053,39.924h-3.37l0.014-0.125   c0.078-0.674,0.122-1.365,0.13-2.049l0.002-0.113l3.288,0.096L74.053,39.924z M70.933,39.701h2.902l0.053-1.752l-2.84-0.084   C71.037,38.479,70.998,39.096,70.933,39.701z M27.275,39.924h-2.738l-0.152-1.525l2.712-0.27L27.275,39.924z M24.739,39.701h2.291   l-0.131-1.328l-2.27,0.225L24.739,39.701z M23.693,39.924h-2.739l-0.116-1.174l2.712-0.27L23.693,39.924z M21.156,39.701h2.292   l-0.097-0.977l-2.27,0.225L21.156,39.701z M20.111,39.924h-2.739l-0.082-0.822l2.712-0.27L20.111,39.924z M17.573,39.701h2.292   l-0.063-0.625l-2.269,0.225L17.573,39.701z M77.736,38.637l-1.089-0.031l0,0l-1.123-0.033l0.032-1.084l0,0l0.033-1.127l2.212,0.066   l-0.032,1.084l0,0L77.736,38.637z M76.834,38.389l0.687,0.02l0.02-0.682l-0.686-0.02L76.834,38.389z M75.754,38.357l0.677,0.02   l0.021-0.682l-0.678-0.02L75.754,38.357z M76.866,37.305l0.686,0.02l0.021-0.682l-0.686-0.021L76.866,37.305z M75.786,37.271   l0.677,0.02l0.021-0.682l-0.678-0.02L75.786,37.271z M25.593,37.533l-0.042-0.219c0.376-0.111,0.69-0.334,0.885-0.633l0.033-0.051   h0.06c0.3-0.002,0.544-0.15,0.622-0.377c0.032-0.092,0.035-0.191,0.009-0.291l-0.017-0.068l0.055-0.045   c0.048-0.041,0.09-0.088,0.125-0.143l0.02-0.029l0.033-0.016c0.248-0.098,0.459-0.42,0.527-0.799   c0.05-0.285,0.016-0.568-0.095-0.773l-0.08-0.148l0.167-0.016c0.224-0.021,0.505-0.084,0.575-0.27   c0.054-0.141,0.107-0.25,0.166-0.336l0.048-0.068l0.081,0.027c0.357,0.127,1.613,0.563,2.796,0.877l0.098,0.025l-0.017,0.1   c-0.14,0.85-0.226,1.717-0.254,2.578l-0.003,0.098L25.593,37.533z M26.589,36.852c-0.107,0.152-0.242,0.285-0.398,0.398   l4.977-0.494c0.03-0.807,0.109-1.615,0.237-2.41c-1.082-0.293-2.2-0.676-2.631-0.826c-0.033,0.059-0.065,0.129-0.097,0.215   c-0.077,0.205-0.282,0.336-0.61,0.395c0.083,0.227,0.103,0.498,0.054,0.771c-0.079,0.445-0.325,0.814-0.63,0.955   c-0.03,0.043-0.063,0.082-0.101,0.119c0.02,0.121,0.01,0.24-0.029,0.352C27.257,36.627,26.958,36.828,26.589,36.852z    M74.142,36.881l-2.211-0.066l0.066-2.213l2.21,0.066L74.142,36.881z M72.159,36.598l1.767,0.053l0.052-1.766l-1.767-0.053   L72.159,36.598z M21.925,34.645l-0.125-0.273l0.1-0.047c0.052-0.025,0.099-0.055,0.136-0.09c0.059-0.055,0.102-0.119,0.128-0.189   l0.069-0.191l0.124,0.162c0.025,0.031,0.053,0.063,0.085,0.092l0.151,0.135l-0.196,0.055c-0.097,0.027-0.178,0.072-0.244,0.131   l-0.02,0.018c-0.033,0.027-0.065,0.055-0.096,0.084L21.925,34.645z M22.967,32.918l-0.081-0.377l0.205,0.092l0.182,0.098   L23.1,32.857L22.967,32.918z M69.867,31.424l-0.041-0.125c-0.312-0.936-0.695-1.854-1.142-2.729l-0.021-0.041l0,0l-0.052-0.1   c-0.038-0.072-0.076-0.145-0.115-0.219l-0.073-0.139c-0.473-0.859-1.014-1.695-1.611-2.48l-0.079-0.105l4.354-2.298l1.486,2.818   l0,0l1.646,3.121L69.867,31.424z M68.933,28.566c0.41,0.816,0.769,1.67,1.063,2.537l3.925-2.07l-1.279-2.424L68.933,28.566z    M68.746,28.205c0.004,0.008,0.009,0.016,0.012,0.023l3.705-1.957l-0.012-0.021L68.746,28.205z M67.068,25.563   c0.551,0.734,1.054,1.51,1.496,2.309l3.71-1.959l-1.279-2.424L67.068,25.563z M77.049,28.291l-0.918-1.736l1.894-1.002l0.918,1.736   L77.049,28.291z M76.431,26.646l0.711,1.344l1.5-0.793l-0.71-1.344L76.431,26.646z M79.466,27.012l-0.918-1.736l1.893-1   l0.917,1.736L79.466,27.012z M78.848,25.369l0.711,1.344l1.499-0.795l-0.711-1.342L78.848,25.369z M26.693,26.475l-1.812-1.27   l1.27-1.813l1.812,1.27L26.693,26.475z M25.192,25.15l1.447,1.014l1.014-1.447l-1.447-1.014L25.192,25.15z M81.881,25.734   l-0.918-1.736l1.894-1.001l0.918,1.736L81.881,25.734z M81.264,24.09l0.711,1.344l1.5-0.793l-0.711-1.342L81.264,24.09z    M75.667,25.678l-0.919-1.736l1.893-1l0.92,1.735L75.667,25.678z M75.049,24.035l0.711,1.342l1.499-0.793l-0.709-1.341   L75.049,24.035z M24.372,24.848l-1.812-1.27l1.27-1.812l1.812,1.27L24.372,24.848z M22.87,23.523l1.448,1.014l1.015-1.447   l-1.447-1.014L22.87,23.523z M78.084,24.4l-0.92-1.736l1.894-1.001l0.919,1.735L78.084,24.4z M77.466,22.757l0.71,1.342l1.5-0.793   l-0.711-1.343L77.466,22.757z M28.631,23.709l-1.812-1.27l1.27-1.812l1.812,1.27L28.631,23.709z M27.129,22.384l1.448,1.014   l1.014-1.446l-1.447-1.014L27.129,22.384z M22.052,23.221l-1.813-1.271l1.27-1.812l1.813,1.271L22.052,23.221z M20.55,21.897   l1.447,1.015l1.014-1.447l-1.447-1.016L20.55,21.897z M80.5,23.123l-0.919-1.736l1.893-1.002l0.919,1.737L80.5,23.123z    M79.881,21.479l0.711,1.342l1.5-0.792l-0.71-1.343L79.881,21.479z M74.285,23.066l-0.918-1.736l1.893-1.001l0.919,1.735   L74.285,23.066z M73.667,21.422l0.711,1.343l1.499-0.793l-0.711-1.342L73.667,21.422z M26.311,22.083l-1.812-1.271l1.27-1.812   l1.812,1.27L26.311,22.083z M24.809,20.758l1.447,1.015l1.014-1.447l-1.447-1.015L24.809,20.758z M66.115,21.925l-1.782-1.311   l1.311-1.782l1.782,1.311L66.115,21.925z M64.644,20.567l1.425,1.048l1.047-1.424l-1.424-1.047L64.644,20.567z M76.7,21.788   l-0.917-1.735l1.893-1.002l0.918,1.737L76.7,21.788z M76.084,20.145l0.71,1.343l1.5-0.794l-0.711-1.343L76.084,20.145z    M62.62,21.503l-0.09-0.063c-0.599-0.426-1.23-0.823-1.878-1.183l-0.11-0.061l2.442-3.32l1.972,1.45L62.62,21.503z M60.871,20.125   c0.584,0.329,1.154,0.689,1.699,1.071l2.075-2.822l-1.612-1.186L60.871,20.125z M30.569,20.945l-1.812-1.271l1.27-1.812l1.812,1.27   L30.569,20.945z M29.067,19.619l1.448,1.014l1.014-1.446l-1.447-1.016L29.067,19.619z M79.117,20.51l-0.919-1.735l1.893-1.002   l0.92,1.736L79.117,20.51z M78.499,18.866l0.71,1.344l1.5-0.794L80,18.074L78.499,18.866z M23.989,20.456l-1.812-1.269l1.27-1.813   l1.812,1.271L23.989,20.456z M22.488,19.13l1.448,1.016l1.014-1.447l-1.448-1.014L22.488,19.13z M28.249,19.318l-1.812-1.271   l1.27-1.812l1.812,1.271L28.249,19.318z M26.747,17.993l1.447,1.015l1.015-1.447l-1.447-1.015L26.747,17.993z M36.402,19.241   l-1.819-2.516l1.793-1.296l1.82,2.517L36.402,19.241z M34.894,16.774l1.559,2.156l1.432-1.036l-1.559-2.156L34.894,16.774z    M44.907,18.788l-0.736-3.792l2.402-0.466l0.706,3.636l-0.108,0.021c-0.716,0.146-1.438,0.335-2.144,0.564L44.907,18.788z    M44.432,15.172l0.646,3.328c0.64-0.203,1.293-0.374,1.941-0.509l-0.62-3.201L44.432,15.172z M66.945,18.012l-0.874-0.643l0,0   L65.163,16.7l0.665-0.904h0.001l0.646-0.877l0.907,0.667v0.001l0.874,0.642l-0.645,0.879l0,0L66.945,18.012z M66.349,17.296   l0.549,0.405l0.402-0.546l-0.549-0.404L66.349,17.296z M65.475,16.653l0.549,0.404l0.402-0.546l-0.551-0.403L65.475,16.653z    M66.989,16.426l0.549,0.403l0.407-0.552l-0.549-0.404L66.989,16.426z M66.115,15.783l0.549,0.403l0.407-0.552l-0.55-0.404   L66.115,15.783z M25.928,17.69l-1.812-1.27l1.27-1.812l1.812,1.27L25.928,17.69z M24.426,16.367l1.448,1.014l1.015-1.447   l-1.447-1.015L24.426,16.367z M39.139,17.263l-1.82-2.517l1.793-1.295l1.819,2.516L39.139,17.263z M37.63,14.796l1.559,2.157   l1.432-1.036l-1.558-2.156L37.63,14.796z M47.833,16.539l-0.421-2.172l2.171-0.421l0.421,2.171L47.833,16.539z M47.672,14.542   l0.337,1.735l1.735-0.337l-0.337-1.734L47.672,14.542z M33.997,15.913l-1.819-2.517l1.792-1.295l1.82,2.517L33.997,15.913z    M32.488,13.447l1.558,2.156l1.433-1.036l-1.559-2.156L32.488,13.447z M36.733,13.935l-1.819-2.516l1.792-1.297l1.82,2.518   L36.733,13.935z M35.225,11.468l1.559,2.155l1.433-1.034l-1.559-2.157L35.225,11.468z M45.518,13.275l-0.205-1.062h0l-0.215-1.109   l1.106-0.216l0,0l1.066-0.207l0.421,2.171L45.518,13.275z M45.565,12.349l0.129,0.666l0.669-0.129l-0.128-0.666L45.565,12.349z    M46.631,12.142l0.129,0.666l0.67-0.13l-0.129-0.666L46.631,12.142z M45.358,11.28l0.13,0.674l0.67-0.131l-0.13-0.674L45.358,11.28   z M46.423,11.072l0.131,0.674l0.67-0.129l-0.131-0.674L46.423,11.072z M31.591,12.585l-1.819-2.516l1.793-1.296l1.819,2.517   L31.591,12.585z M30.083,10.119l1.559,2.156l1.433-1.036l-1.56-2.156L30.083,10.119z M34.328,10.607l-1.819-2.516l1.792-1.297   l1.819,2.518L34.328,10.607z M32.818,8.141l1.559,2.155l1.432-1.034L34.25,7.105L32.818,8.141z M56.397,10.381l-0.18-0.344   l0.42-0.058l-0.132,0.203l-0.077-0.05l-0.001,0.001l0.073,0.057L56.397,10.381z M54.931,9.59l-0.043-0.202   c-0.021-0.097-0.06-0.182-0.115-0.251l-0.017-0.019c-0.023-0.035-0.051-0.066-0.078-0.096l-0.111-0.125l0.257-0.095l0.066,0.089   c0.022,0.052,0.05,0.1,0.083,0.14c0.05,0.062,0.11,0.109,0.182,0.139l0.187,0.083l-0.17,0.113   c-0.035,0.022-0.066,0.048-0.096,0.077L54.931,9.59z"/></g><text x="0" y="59.625" fill="#000000" font-size="5px" font-weight="bold" font-family="'Helvetica Neue', Helvetica, Arial-Unicode, Arial, Sans-serif">Created by Iris Roijakkers</text><text x="0" y="64.625" fill="#000000" font-size="5px" font-weight="bold" font-family="'Helvetica Neue', Helvetica, Arial-Unicode, Arial, Sans-serif">from the Noun Project</text></svg>