<svg xmlns="http://www.w3.org/2000/svg" xmlns:xlink="http://www.w3.org/1999/xlink" version="1.1" x="0px" y="0px" viewBox="0 0 100 125" style="enable-background:new 0 0 100 100;" xml:space="preserve"><g><path d="M85.1,46.3h-7.6c-1.6-5.6-6.7-9.7-12.7-9.7S53.7,40.8,52,46.3H14.9c-2,0-3.7,1.6-3.7,3.7c0,2,1.6,3.7,3.7,3.7H52   c1.6,5.6,6.7,9.7,12.7,9.7s11.1-4.1,12.7-9.7h7.6c2,0,3.7-1.6,3.7-3.7C88.8,48,87.2,46.3,85.1,46.3z M64.8,56c-3.2,0-6-2.6-6-6   c0-3.4,2.6-6,6-6c3.4,0,6,2.6,6,6C70.8,53.4,68,56,64.8,56z"/><path d="M14.9,24.4h7.9c1.6,5.6,6.7,9.7,12.7,9.7s11.1-4.1,12.7-9.7h36.9c2,0,3.7-1.6,3.7-3.7s-1.6-3.7-3.7-3.7H48.2   c-1.6-5.6-6.7-9.7-12.7-9.7s-11.1,4.1-12.7,9.7h-7.9c-2,0-3.7,1.6-3.7,3.7S12.8,24.4,14.9,24.4z M35.5,14.7c3.2,0,6,2.6,6,6   s-2.6,6-6,6s-6-2.8-6-6S32.3,14.7,35.5,14.7z"/><path d="M85.1,75.6H48.2c-1.6-5.6-6.7-9.7-12.7-9.7s-11.1,4.1-12.7,9.7h-7.9c-2,0-3.7,1.6-3.7,3.7s1.6,3.7,3.7,3.7h7.9   c1.6,5.6,6.7,9.7,12.7,9.7s11.1-4.1,12.7-9.7h36.9c2,0,3.7-1.6,3.7-3.7S87.2,75.6,85.1,75.6z M35.5,85.3c-3.2,0-6-2.6-6-6   s2.6-6,6-6s6,2.6,6,6S38.7,85.3,35.5,85.3z"/></g><text x="0" y="115" fill="#000000" font-size="5px" font-weight="bold" font-family="'Helvetica Neue', Helvetica, Arial-Unicode, Arial, Sans-serif">Created by Focus</text><text x="0" y="120" fill="#000000" font-size="5px" font-weight="bold" font-family="'Helvetica Neue', Helvetica, Arial-Unicode, Arial, Sans-serif">from the Noun Project</text></svg>