<svg xmlns="http://www.w3.org/2000/svg" xmlns:xlink="http://www.w3.org/1999/xlink" version="1.1" x="0px" y="0px" viewBox="0 0 100 125" style="enable-background:new 0 0 100 100;" xml:space="preserve"><style type="text/css">
	.st0{fill:none;stroke:#000000;stroke-width:2;stroke-linecap:round;stroke-linejoin:round;stroke-miterlimit:10;}
</style><path d="M27.8935547,84.5253906c3.5595703,3.5595703,8.2919922,5.5195312,13.3251953,5.5195312h17.5625  c5.0332031,0,9.765625-1.9599609,13.3251953-5.5195312l12.4189453-12.4189453  c3.5595703-3.5595703,5.5195312-8.2919922,5.5195312-13.3251953v-17.5625c0-5.0332031-1.9599609-9.765625-5.5195312-13.3251953  L72.1064453,15.4746094C68.546875,11.9150391,63.8144531,9.9550781,58.78125,9.9550781h-17.5625  c-5.0332031,0-9.765625,1.9599609-13.3251953,5.5195312L15.4746094,27.8935547  C11.9150391,31.453125,9.9550781,36.1855469,9.9550781,41.21875v17.5625c0,5.0332031,1.9599609,9.765625,5.5195312,13.3251953  L27.8935547,84.5253906z M11.9550781,41.21875c0-4.4990234,1.7519531-8.7294922,4.9335938-11.9111328l12.4189453-12.4189453  c3.1816406-3.1816406,7.4121094-4.9335938,11.9111328-4.9335938h17.5625c4.4990234,0,8.7294922,1.7519531,11.9111328,4.9335938  l12.4189453,12.4189453c3.1816406,3.1816406,4.9335938,7.4121094,4.9335938,11.9111328v17.5625  c0,4.4990234-1.7519531,8.7294922-4.9335938,11.9111328L70.6923828,83.1113281  c-3.1816406,3.1816406-7.4121094,4.9335938-11.9111328,4.9335938h-17.5625c-4.4990234,0-8.7294922-1.7519531-11.9111328-4.9335938  L16.8886719,70.6923828c-3.1816406-3.1816406-4.9335938-7.4121094-4.9335938-11.9111328V41.21875z"/><text x="0" y="115" fill="#000000" font-size="5px" font-weight="bold" font-family="'Helvetica Neue', Helvetica, Arial-Unicode, Arial, Sans-serif">Created by Made</text><text x="0" y="120" fill="#000000" font-size="5px" font-weight="bold" font-family="'Helvetica Neue', Helvetica, Arial-Unicode, Arial, Sans-serif">from the Noun Project</text></svg>