<svg height='100px' width='100px'  fill="#000000" xmlns="http://www.w3.org/2000/svg" xmlns:xlink="http://www.w3.org/1999/xlink" version="1.1" x="0px" y="0px" viewBox="0 0 100 100" enable-background="new 0 0 100 100" xml:space="preserve"><path fill="#000000" d="M43.986,38.236l1.33-4.657l2.22-0.011c0.544-0.003,0.982-0.686,0.979-1.229  c-0.002-0.543-0.445-1.222-0.989-1.22l-7.488,0.034c-0.544,0.002-0.982,0.686-0.979,1.229c0.002,0.544,0.445,1.224,0.989,1.221  l3.217-0.016l-1.083,3.271L21.47,36.954l0.381-1.493c0.063-0.291-0.01-0.411-0.198-0.644c-0.188-0.23-0.47-0.312-0.768-0.31  l-6.153,0.028c-0.544,0.003-0.983,0.277-0.98,0.822c0.002,0.542,0.444,0.813,0.988,0.811l4.932-0.022l-0.382,1.975  c-0.001,0.002-0.001,0.101-0.001,0.102l-0.604,2.872l-1.176,3.427c-1.176-0.319-2.407-0.479-3.683-0.472  C6.169,44.083-0.036,50.357,0,58.016c0.035,7.659,6.296,13.861,13.955,13.827c7.66-0.035,13.862-6.296,13.828-13.955  c-0.028-5.693-3.492-10.577-8.414-12.697l0.676-1.955l16.188,16.61c0.019,0.019,0.039,0.033,0.059,0.051  c0.021,0.02,0.045,0.039,0.069,0.057c0.034,0.025,0.069,0.045,0.107,0.066c0.023,0.013,0.048,0.026,0.071,0.037  c0.044,0.02,0.087,0.033,0.132,0.046c0.021,0.006,0.043,0.016,0.063,0.021c0.069,0.013,0.138,0.021,0.208,0.02  c0.022,0.001,0.049-0.001,0.071-0.003l2.772-0.219c1.004,6.708,6.819,11.85,13.797,11.819c7.659-0.035,13.863-6.3,13.827-13.96  c-0.035-7.658-6.296-13.868-13.954-13.833c-2.031,0.01-3.958,0.445-5.695,1.24l-1.574-2.897h21.223v-1.194H45.54L43.986,38.236z   M25.487,57.898c0.03,6.393-5.147,11.619-11.542,11.647c-6.394,0.029-11.618-5.147-11.647-11.54  c-0.03-6.394,5.146-11.619,11.542-11.648c1.007-0.005,1.987,0.121,2.92,0.359l-3.798,10.999c-0.177,0.513,0.096,1.072,0.608,1.249  c0.107,0.039,0.218,0.057,0.325,0.055c0.407-0.001,0.786-0.257,0.926-0.662l3.796-10.99C22.643,49.172,25.464,53.205,25.487,57.898z   M36.461,57.154L20.708,41.097l0.343-1.691l20.563-0.096L36.461,57.154z M39.749,57.916c0,0.014,0,0.03,0,0.044l-1.412,0.106  l4.902-17.097l2.872,5.191C42.242,48.646,39.726,52.989,39.749,57.916z M53.469,46.258c6.393-0.029,11.617,5.147,11.647,11.542  c0.031,6.393-5.148,11.619-11.542,11.647c-5.768,0.026-10.584-4.185-11.494-9.706l11.517-0.907c0.333-0.026,0.63-0.22,0.787-0.513  c0.162-0.293,0.16-0.646,0.001-0.938l-5.523-10.145C50.272,46.617,51.831,46.265,53.469,46.258z M51.931,56.991L41.927,57.78  c0.025-4.002,2.091-7.532,5.208-9.599L51.931,56.991z"></path><rect x="72.64" y="54.063" fill="#000000" width="18.336" height="0.954"></rect><rect x="72.64" y="60.293" fill="#000000" width="27.36" height="0.954"></rect><rect x="50.043" y="28.157" fill="#000000" width="17.369" height="11.463"></rect></svg>