<svg xmlns="http://www.w3.org/2000/svg" data-name="Layer 1" viewBox="0 0 100 125" x="0px" y="0px"><title>Artboard 419</title><path d="M59.27,55.17A4,4,0,0,0,58,58.09V66a4,4,0,0,0,8,0V59.74a29.26,29.26,0,0,0,8-20V21.83C73.54,11.08,62.56,2,50,2S26.46,11.08,26,22V39.74a29.26,29.26,0,0,0,8,20v3.42L12.71,70.62A16,16,0,0,0,2,85.72V94a4,4,0,0,0,4,4H62a4,4,0,0,0,0-8H10V85.72a8,8,0,0,1,5.36-7.55l24-8.39A4,4,0,0,0,42,66V58.09a4,4,0,0,0-1.26-2.92A21.28,21.28,0,0,1,34,39.74V22.17C34.27,15.69,41.75,10,50,10s15.73,5.69,16,12V39.74A21.29,21.29,0,0,1,59.27,55.17Z"/><path d="M94,78H86V70a4,4,0,0,0-8,0v8H70a4,4,0,0,0,0,8h8v8a4,4,0,0,0,8,0V86h8a4,4,0,0,0,0-8Z"/><text x="0" y="115" fill="#000000" font-size="5px" font-weight="bold" font-family="'Helvetica Neue', Helvetica, Arial-Unicode, Arial, Sans-serif">Created by Gregor Cresnar</text><text x="0" y="120" fill="#000000" font-size="5px" font-weight="bold" font-family="'Helvetica Neue', Helvetica, Arial-Unicode, Arial, Sans-serif">from the Noun Project</text></svg>