<svg xmlns="http://www.w3.org/2000/svg" xmlns:xlink="http://www.w3.org/1999/xlink" version="1.1" x="0px" y="0px" viewBox="0 0 100 125" style="enable-background:new 0 0 100 100;" xml:space="preserve"><circle cx="51.6" cy="18.7" r="7.2"/><path d="M35.3,32c-1.4,0.6-3.1,1.2-4,2.6l-6.4,11.1c-1.1,1.9-0.4,4.4,1.5,5.5c0.6,0.4,1.3,0.5,2,0.5c1.4,0,2.7-0.7,3.5-2l5.7-10  l4.3-1.9l-3.1,13.9c0,0.1,0,0.2-0.1,0.4L37,64.8L26.2,82.4c-1.2,1.9-0.6,4.3,1.3,5.5c0.7,0.4,1.4,0.6,2.1,0.6c1.3,0,2.7-0.7,3.4-1.9  l11.3-18.4c0.3-0.5,0.5-1,0.6-1.6l1.3-9.6l11.1,8v19.5c0,2.2,1.8,4,4,4s4-1.8,4-4V63c0-1.3-0.6-2.5-1.6-3.2L51.6,51l2.6-10.8  l2.9,3.6c0.5,0.6,1.1,1,1.7,1.2l11.4,4.2c2.1,0.8,4.4-0.3,5.1-2.4c0.8-2.1-0.3-4.4-2.4-5.1l-10.4-3.8c-1.6-2-3.3-4-4.9-6  c-1.4-1.7-2.7-4.1-5.1-4.5c-0.9-0.1-4.4-0.4-5.3-0.3c-0.8,0.1-1.6,0.4-2.3,0.8L35.3,32z"/><text x="0" y="115" fill="#000000" font-size="5px" font-weight="bold" font-family="'Helvetica Neue', Helvetica, Arial-Unicode, Arial, Sans-serif">Created by Yeoul Kwon</text><text x="0" y="120" fill="#000000" font-size="5px" font-weight="bold" font-family="'Helvetica Neue', Helvetica, Arial-Unicode, Arial, Sans-serif">from the Noun Project</text></svg>