<svg xmlns="http://www.w3.org/2000/svg" xmlns:xlink="http://www.w3.org/1999/xlink" version="1.1" x="0px" y="0px" viewBox="0 0 100 125" enable-background="new 0 0 100 100" xml:space="preserve"><g><path fill="none" d="M50,7.924C26.799,7.924,7.924,26.799,7.924,50S26.799,92.076,50,92.076S92.076,73.201,92.076,50   S73.201,7.924,50,7.924z"/><path fill="none" d="M50,5.989C25.732,5.989,5.989,25.733,5.989,50S25.732,94.011,50,94.011c24.267,0,44.011-19.744,44.011-44.011   S74.267,5.989,50,5.989z M50,93.065C26.254,93.065,6.935,73.746,6.935,50S26.254,6.935,50,6.935   c23.746,0,43.065,19.32,43.065,43.065S73.746,93.065,50,93.065z"/><path fill="#000000" d="M50,5C25.187,5,5,25.187,5,50s20.187,45,45,45s45-20.187,45-45S74.813,5,50,5z M50,94.011   C25.732,94.011,5.989,74.267,5.989,50S25.732,5.989,50,5.989c24.267,0,44.011,19.744,44.011,44.011S74.267,94.011,50,94.011z"/><path fill="#000000" d="M50,6.935C26.254,6.935,6.935,26.254,6.935,50S26.254,93.065,50,93.065   c23.746,0,43.065-19.32,43.065-43.065S73.746,6.935,50,6.935z M50,92.076C26.799,92.076,7.924,73.201,7.924,50   S26.799,7.924,50,7.924S92.076,26.799,92.076,50S73.201,92.076,50,92.076z"/></g><text x="0" y="115" fill="#000000" font-size="5px" font-weight="bold" font-family="'Helvetica Neue', Helvetica, Arial-Unicode, Arial, Sans-serif">Created by Alena Artemova</text><text x="0" y="120" fill="#000000" font-size="5px" font-weight="bold" font-family="'Helvetica Neue', Helvetica, Arial-Unicode, Arial, Sans-serif">from the Noun Project</text></svg>