<svg xmlns="http://www.w3.org/2000/svg" xmlns:xlink="http://www.w3.org/1999/xlink" version="1.1" x="0px" y="0px" viewBox="0 0 35 43.75" enable-background="new 0 0 35 35" xml:space="preserve"><g><g><path d="M17.5,29.292c-6.502,0-11.791-5.29-11.791-11.791c0-6.502,5.289-11.792,11.791-11.792s11.791,5.29,11.791,11.792    C29.291,24.002,24.002,29.292,17.5,29.292z M17.5,6.708c-5.95,0-10.791,4.841-10.791,10.792c0,5.95,4.841,10.791,10.791,10.791    S28.291,23.451,28.291,17.5C28.291,11.55,23.45,6.708,17.5,6.708z"/></g><g><path d="M14.143,21.359c-0.128,0-0.256-0.049-0.354-0.146c-0.195-0.195-0.195-0.512,0-0.707l6.717-6.717    c0.195-0.195,0.512-0.195,0.707,0s0.195,0.512,0,0.707l-6.717,6.717C14.398,21.31,14.271,21.359,14.143,21.359z"/></g><g><path d="M20.859,21.359c-0.128,0-0.256-0.049-0.354-0.146l-6.717-6.717c-0.195-0.195-0.195-0.512,0-0.707s0.512-0.195,0.707,0    l6.717,6.717c0.195,0.195,0.195,0.512,0,0.707C21.115,21.31,20.987,21.359,20.859,21.359z"/></g></g><text x="0" y="50" fill="#000000" font-size="5px" font-weight="bold" font-family="'Helvetica Neue', Helvetica, Arial-Unicode, Arial, Sans-serif">Created by Roundicons.com</text><text x="0" y="55" fill="#000000" font-size="5px" font-weight="bold" font-family="'Helvetica Neue', Helvetica, Arial-Unicode, Arial, Sans-serif">from the Noun Project</text></svg>