<svg xmlns="http://www.w3.org/2000/svg" xmlns:xlink="http://www.w3.org/1999/xlink" version="1.1" x="0px" y="0px" viewBox="0 0 100 125" enable-background="new 0 0 100 100" xml:space="preserve"><path fill="#000000" d="M7.439,32.959"/><path fill="#000000" d="M17,62.5c0,2.485-2.015,4.5-4.5,4.5l0,0C10.015,67,8,64.985,8,62.5v-25c0-2.485,2.015-4.5,4.5-4.5l0,0  c2.485,0,4.5,2.015,4.5,4.5V62.5z"/><path fill="#000000" d="M30,63c0,2.209-1.791,4-4,4l0,0c-2.209,0-4-1.791-4-4V37c0-2.209,1.791-4,4-4l0,0c2.209,0,4,1.791,4,4V63z"/><path fill="#000000" d="M42,63.5c0,1.933-1.567,3.5-3.5,3.5l0,0c-1.933,0-3.5-1.567-3.5-3.5v-27c0-1.933,1.567-3.5,3.5-3.5l0,0  c1.933,0,3.5,1.567,3.5,3.5V63.5z"/><path fill="#000000" d="M53,64c0,1.657-1.343,3-3,3l0,0c-1.657,0-3-1.343-3-3V36c0-1.657,1.343-3,3-3l0,0c1.657,0,3,1.343,3,3V64z"/><path fill="#000000" d="M63,64.5c0,1.381-1.119,2.5-2.5,2.5l0,0c-1.381,0-2.5-1.119-2.5-2.5v-29c0-1.381,1.119-2.5,2.5-2.5l0,0  c1.381,0,2.5,1.119,2.5,2.5V64.5z"/><path fill="#000000" d="M72,65c0,1.105-0.895,2-2,2l0,0c-1.105,0-2-0.895-2-2V35c0-1.105,0.895-2,2-2l0,0c1.105,0,2,0.895,2,2V65z"/><path fill="#000000" d="M80,65.5c0,0.828-0.672,1.5-1.5,1.5l0,0c-0.828,0-1.5-0.672-1.5-1.5v-31c0-0.828,0.672-1.5,1.5-1.5l0,0  c0.828,0,1.5,0.672,1.5,1.5V65.5z"/><path fill="#000000" d="M87,66c0,0.552-0.448,1-1,1l0,0c-0.552,0-1-0.448-1-1V34c0-0.552,0.448-1,1-1l0,0c0.552,0,1,0.448,1,1V66z"/><path fill="#000000" d="M92,66.5c0,0.276-0.224,0.5-0.5,0.5l0,0c-0.276,0-0.5-0.224-0.5-0.5v-33c0-0.276,0.224-0.5,0.5-0.5l0,0  c0.276,0,0.5,0.224,0.5,0.5V66.5z"/><text x="0" y="115" fill="#000000" font-size="5px" font-weight="bold" font-family="'Helvetica Neue', Helvetica, Arial-Unicode, Arial, Sans-serif">Created by Kevin De Smedt</text><text x="0" y="120" fill="#000000" font-size="5px" font-weight="bold" font-family="'Helvetica Neue', Helvetica, Arial-Unicode, Arial, Sans-serif">from the Noun Project</text></svg>