<svg xmlns="http://www.w3.org/2000/svg" data-name="Layer 1" viewBox="0 0 100 125" x="0px" y="0px"><title>Mesa de trabajo 1 copia 10</title><rect x="54.53" y="49.25" width="10.94" height="1.5"/><rect x="49.25" y="34.53" width="1.5" height="30.94"/><rect x="34.53" y="49.25" width="10.94" height="1.5"/><path d="M63.9,82.52H36.1A18.64,18.64,0,0,1,17.48,63.9V36.11A18.65,18.65,0,0,1,36.1,17.48H63.9A18.65,18.65,0,0,1,82.52,36.11V63.9A18.64,18.64,0,0,1,63.9,82.52ZM36.1,19A17.14,17.14,0,0,0,19,36.11V63.9A17.14,17.14,0,0,0,36.1,81H63.9A17.14,17.14,0,0,0,81,63.9V36.11A17.14,17.14,0,0,0,63.9,19Z"/><text x="0" y="115" fill="#000000" font-size="5px" font-weight="bold" font-family="'Helvetica Neue', Helvetica, Arial-Unicode, Arial, Sans-serif">Created by Jorge Mallo</text><text x="0" y="120" fill="#000000" font-size="5px" font-weight="bold" font-family="'Helvetica Neue', Helvetica, Arial-Unicode, Arial, Sans-serif">from the Noun Project</text></svg>