<svg xmlns="http://www.w3.org/2000/svg" xmlns:xlink="http://www.w3.org/1999/xlink" version="1.1" x="0px" y="0px" viewBox="0 0 500 625" enable-background="new 0 0 500 500" xml:space="preserve"><path d="M308.842,448.968L72.865,359.148c-13.82-5.26-23.003-26.782-17.544-41.122l52.21-137.169  c5.035-13.228,20.475-17.928,37.547-11.43l235.977,89.819c7.396,2.815,11.965,7.363,13.581,13.519  c1.527,5.82-0.085,11.413-2.056,16.59l-52.21,137.169c-2.406,6.32-5.17,11.401-8.215,15.101  C325.792,449.356,317.076,452.102,308.842,448.968z M82.271,335.979l231.675,88.181c0.793-1.302,1.854-3.364,3.06-6.529  l51.868-136.271l-232.688-88.567c-2.399-0.914-4.633-1.19-6-1.177L78.738,326.78C78.358,328.941,80.455,334.344,82.271,335.979z"/><path d="M204.743,368.438c-2.792-1.062-5.205-3.121-6.666-5.958c-0.36-0.699-8.911-17.355-16.496-37.133  c-7.111-18.54-15.827-45.126-9.452-61.876c7.883-20.71,31.146-31.146,51.857-23.264c10.178,3.874,17.872,10.75,22.292,19.108  c8.859-3.304,19.178-3.324,29.355,0.55c20.71,7.883,31.146,31.146,23.264,51.857c-6.375,16.749-30.563,30.811-48.203,39.931  c-18.815,9.728-36.277,16.483-37.011,16.767C210.706,369.566,207.534,369.5,204.743,368.438z M215.093,263.572  c-7.828-2.979-16.62,0.965-19.599,8.792c-0.618,1.624-3.072,11.37,9.355,43.837c3.583,9.362,7.47,18.115,10.449,24.505  c6.474-2.792,15.197-6.745,24.098-11.355c30.87-15.986,35.519-24.897,36.137-26.521c2.979-7.827-0.965-16.619-8.793-19.599  c-6.701-2.551-15.025-1.672-18.517,6.045c-2.723,6.019-9.661,8.879-15.835,6.529c0,0,0,0,0,0c-6.175-2.351-9.454-9.101-7.485-15.407  C227.426,272.314,221.794,266.122,215.093,263.572z"/><path d="M65.663,169.166c-2.825-0.304-5.562-1.568-7.682-3.78l-26.076-27.216c-4.776-4.985-4.607-12.897,0.378-17.673  c4.986-4.776,12.897-4.606,17.674,0.378l26.076,27.216c4.776,4.985,4.607,12.897-0.378,17.673  C72.882,168.42,69.204,169.547,65.663,169.166z"/><path d="M149.792,130.075c-4.523-0.487-8.618-3.434-10.351-7.975l-23.707-62.127c-2.461-6.45,0.772-13.674,7.222-16.135  c6.451-2.462,13.674,0.772,16.135,7.222l23.707,62.127c2.461,6.45-0.772,13.674-7.222,16.135  C153.669,130.049,151.692,130.279,149.792,130.075z"/><path d="M273.96,152.957c-0.511-0.055-1.022-0.142-1.536-0.263c-6.721-1.579-10.889-8.307-9.311-15.027l10.951-46.612  c1.579-6.721,8.305-10.887,15.027-9.31c6.721,1.579,10.889,8.307,9.31,15.027l-10.949,46.612  C285.993,149.592,280.14,153.623,273.96,152.957z"/><path d="M355.015,196.238c-2.907-0.313-5.716-1.64-7.853-3.959c-4.677-5.078-4.352-12.986,0.728-17.663l45.173-41.603  c5.077-4.677,12.985-4.351,17.662,0.727c4.677,5.078,4.352,12.986-0.727,17.663l-45.173,41.603  C362.066,195.546,358.472,196.61,355.015,196.238z"/><path d="M421.954,277.722c-3.961-0.427-7.652-2.735-9.682-6.51c-3.271-6.079-0.992-13.659,5.088-16.93l49.058-26.387  c6.08-3.27,13.66-0.992,16.93,5.088c3.271,6.079,0.992,13.658-5.088,16.929L429.202,276.3  C426.896,277.539,424.374,277.982,421.954,277.722z"/><ellipse cx="213.667" cy="448.002" rx="122.333" ry="6.472"/><text x="0" y="515" fill="#000000" font-size="5px" font-weight="bold" font-family="'Helvetica Neue', Helvetica, Arial-Unicode, Arial, Sans-serif">Created by Martin LEBRETON</text><text x="0" y="520" fill="#000000" font-size="5px" font-weight="bold" font-family="'Helvetica Neue', Helvetica, Arial-Unicode, Arial, Sans-serif">from the Noun Project</text></svg>