<svg xmlns:dc="http://purl.org/dc/elements/1.1/" xmlns:cc="http://creativecommons.org/ns#" xmlns:rdf="http://www.w3.org/1999/02/22-rdf-syntax-ns#" xmlns:svg="http://www.w3.org/2000/svg" xmlns="http://www.w3.org/2000/svg" xmlns:sodipodi="http://sodipodi.sourceforge.net/DTD/sodipodi-0.dtd" xmlns:inkscape="http://www.inkscape.org/namespaces/inkscape" version="1.1" x="0px" y="0px" viewBox="0 0 100 125"><g transform="translate(0,-952.36218)"><path style="text-indent:0;text-transform:none;direction:ltr;block-progression:tb;baseline-shift:baseline;color:#000000;enable-background:accumulate;" d="m 13,972.36219 c -2.2091,0 -4,1.79079 -4,4 0,2.2092 1.7909,4 4,4 l 74,0 c 2.2091,0 4,-1.7908 4,-4 0,-2.20921 -1.7909,-4 -4,-4 z m 0,26 c -2.2091,0 -4,1.79081 -4,4.00001 0,2.2092 1.7909,4 4,4 l 74,0 c 2.2091,0 4,-1.7908 4,-4 0,-2.2092 -1.7909,-4.00001 -4,-4.00001 z m 0,26.00001 c -2.2091,0 -4,1.7908 -4,4 0,2.2092 1.7909,4 4,4 l 74,0 c 2.2091,0 4,-1.7908 4,-4 0,-2.2092 -1.7909,-4 -4,-4 z" fill="#000000" fill-opacity="1" stroke="none" marker="none" visibility="visible" display="inline" overflow="visible"/></g><text x="0" y="115" fill="#000000" font-size="5px" font-weight="bold" font-family="'Helvetica Neue', Helvetica, Arial-Unicode, Arial, Sans-serif">Created by Numero Uno</text><text x="0" y="120" fill="#000000" font-size="5px" font-weight="bold" font-family="'Helvetica Neue', Helvetica, Arial-Unicode, Arial, Sans-serif">from the Noun Project</text></svg>