<svg xmlns="http://www.w3.org/2000/svg" xmlns:xlink="http://www.w3.org/1999/xlink" version="1.1" x="0px" y="0px" viewBox="0 0 150 187.5" style="enable-background:new 0 0 150 150;" xml:space="preserve"><g><path d="M118.4,125.8L96.7,88c15.3-12.3,19.6-34.5,9.4-52.3c-5.5-9.6-14.4-16.5-25-19.3c-10.3-2.8-21.1-1.4-30.4,4   C31.5,31.5,25,56.6,36.3,76.2c5.5,9.6,14.4,16.5,25,19.3c3.5,0.9,7,1.4,10.5,1.4c4.9,0,9.8-0.9,14.3-2.7l21.7,37.8   c0.8,1.4,2.2,2.5,3.7,2.9c0.5,0.1,1.1,0.2,1.6,0.2c1.1,0,2.1-0.3,3.1-0.8C119.1,132.5,120.1,128.7,118.4,125.8z M89.6,88.1   c-8.3,4.8-18,6.1-27.3,3.6c-9.6-2.6-17.6-8.8-22.6-17.4c-10.2-17.7-4.3-40.3,13-50.4c5.5-3.2,11.7-4.8,17.9-4.8   c3.1,0,6.3,0.4,9.4,1.3c9.6,2.6,17.6,8.8,22.6,17.4C112.8,55.4,107,78,89.6,88.1L89.6,88.1z"/><path d="M60.4,72l8.5-15l-7.6,17.4c0,1.4,0.4,2.7,1.2,3.9c1.4,2.2,3.7,3.4,6.3,3.4v-4c-1.2,0-2.2-0.6-2.9-1.6   c-0.3-0.4-0.4-0.9-0.5-1.3l4.2-1.5c8.5-3.1,14.2-10.9,14.4-20l0.7-25.8l-19.4,17c-6.8,6-9.2,15.3-6.1,23.8"/></g><text x="0" y="165" fill="#000000" font-size="5px" font-weight="bold" font-family="'Helvetica Neue', Helvetica, Arial-Unicode, Arial, Sans-serif">Created by Symbolon</text><text x="0" y="170" fill="#000000" font-size="5px" font-weight="bold" font-family="'Helvetica Neue', Helvetica, Arial-Unicode, Arial, Sans-serif">from the Noun Project</text></svg>