<svg xmlns="http://www.w3.org/2000/svg" xmlns:xlink="http://www.w3.org/1999/xlink" version="1.1" x="0px" y="0px" viewBox="0 0 100 125" style="enable-background:new 0 0 100 100;" xml:space="preserve"><path d="M87.3,36.8c-5.9-2.9-14-2.9-20.4-2.5c-0.7-1.6-1.7-3-3-4.3c-2.9-2.9-6.8-4.5-11.2-4.4c-5.8,0-10.4,3.4-12.9,7.6  c-4.8-0.4-13.4-0.9-16.1,3.8c-0.6,1.1-0.8,2.2-0.7,3.4c0.1,1.9,1,2.1-0.8,2.7c-4,1.2-8.2,1.1-12.2,2.7c-6.1,2.5-8.2,9.4-2.5,13.8  c3.2,2.5,7.8,3.2,11.7,3.3c2.7,0.1,5.4-0.2,8.1-0.5c1.1-0.1,6.7-1.8,7.4-1.1c0.5,0.5,0.7,3,1.1,3.8c0.5,0.8,1.1,1.6,1.9,2.2  c1.7,1.3,3.9,1.9,5.9,2.1c6.8,1,13.9,0.3,20.5-1c2.8-0.5,6-1.2,8.2-3.1c2.8-2.3,1.6-4.5,1.9-7.6c0.6-6.8,14.4-2.3,18.3-6.7  C96.4,46.4,91.5,38.9,87.3,36.8z M52.7,29c3.3,0,6.4,1.2,8.6,3.4c2,2,3.2,4.7,3.2,7.2c0,1.2-0.3,2-0.8,2.5c-1.2,1.2-4.5,1.2-7.9,1.2  l-1.4,0l-1.5,0c-4,0-9,0.1-10.8-1.7c-0.3-0.3-0.7-0.9-0.7-2C41.5,34.7,46.1,29.1,52.7,29z M87.6,49.3c-4.5,1.4-10.2-0.1-14.5,2.4  c-1.8,1-2.6,2.6-2.6,4.6c0,1.2,0.4,2.3,0.4,3.5c0,2.5-1.7,3.3-3.8,4.1c-5.3,1.8-11.3,2.2-16.8,2.2c-3.9,0-10.4,0.5-11.9-4.1  c-0.6-1.9-0.3-3.6-2.5-4.2c-2.2-0.6-5.5,0.5-7.6,0.9c-4.5,0.7-9.2,1.1-13.7,0.1c-2-0.5-4.3-1.1-5.8-2.7c-3-3.4,0.5-6.4,3.7-7.4  c3.5-1.2,7.2-1.8,10.8-2.1c1.8-0.2,3.7-0.5,4-2.6c0.2-1.7-1.4-3.3-0.4-5.1c0.7-1.3,2.9-1.6,4.2-1.8c2.4-0.3,4.9-0.4,7.4-0.3  c-0.3,1-0.4,2.1-0.4,3.1c0,1.8,0.6,3.3,1.8,4.5c2.5,2.5,7.1,2.8,11.7,2.8c0.5,0,1.1,0,1.6,0l1.4,0l1.4,0c4.4,0,8.1,0,10.4-2.2  c1.2-1.2,1.8-2.9,1.8-5.1c0-0.6-0.1-1.3-0.2-1.9c4.9-0.2,10.1,0.1,14.9,1.2c1.8,0.4,3.5,1.1,4.9,2.3C89.9,43.3,91.5,48.1,87.6,49.3z  "/><text x="0" y="115" fill="#000000" font-size="5px" font-weight="bold" font-family="'Helvetica Neue', Helvetica, Arial-Unicode, Arial, Sans-serif">Created by Catherine Please</text><text x="0" y="120" fill="#000000" font-size="5px" font-weight="bold" font-family="'Helvetica Neue', Helvetica, Arial-Unicode, Arial, Sans-serif">from the Noun Project</text></svg>