<svg xmlns="http://www.w3.org/2000/svg" xmlns:xlink="http://www.w3.org/1999/xlink" version="1.1" x="0px" y="0px" viewBox="0 0 100 125" enable-background="new 0 0 100 100" xml:space="preserve"><g><g><g><path d="M86.166,51c-1.538-0.862-3.076-1.618-4.603-2.268c-0.772-0.324-1.506-0.627-2.299-0.895     c-0.8-0.267-1.595-0.508-2.385-0.723l-0.201-1.362c0,0,2.127,0.472,4.317,1.234c1.105,0.371,2.191,0.804,2.955,1.161     c0.785,0.369,1.309,0.615,1.309,0.615s-0.016-0.314-0.043-0.863c0.008-0.553-0.165-1.324-0.292-2.257     c-0.071-0.466-0.148-0.971-0.229-1.505c-0.081-0.534-0.262-1.077-0.397-1.65c-0.073-0.285-0.148-0.575-0.223-0.869l-0.028-0.11     l-0.153-0.595c-0.068-0.312-0.169-0.613-0.286-0.91l-0.658-1.797l-0.329-0.901c-0.125-0.294-0.274-0.578-0.41-0.868     c-0.568-1.148-1.065-2.337-1.783-3.411l-1.003-1.652c-0.358-0.536-0.766-1.039-1.147-1.561     c-3.106-4.122-7.109-7.661-11.755-10.08c-4.634-2.43-9.823-3.824-15.071-4.032c-5.245-0.215-10.544,0.709-15.356,2.771     c-4.802,2.083-9.106,5.227-12.539,9.09c-3.427,3.863-6.033,8.429-7.439,13.303c-1.437,4.86-1.792,9.963-1.142,14.841     c0.647,4.881,2.326,9.527,4.783,13.575c2.453,4.054,5.672,7.512,9.305,10.184c7.286,5.388,16.118,7.465,23.95,6.756     c3.925-0.358,7.609-1.332,10.924-2.709c3.299-1.436,6.166-3.317,8.667-5.312c4.883-4.164,8.041-8.941,9.853-13.151     c1.834-4.233,2.362-7.852,2.709-10.278c0.134-2.459,0.206-3.77,0.206-3.77h1.586c0,0-0.051,1.372-0.215,3.937     c-0.358,2.536-0.914,6.317-2.831,10.742c-1.894,4.4-5.19,9.392-10.294,13.74c-2.611,2.086-5.607,4.05-9.056,5.55     c-3.465,1.441-7.316,2.459-11.416,2.832c-8.176,0.742-17.414-1.429-25.025-7.059c-3.795-2.792-7.157-6.403-9.721-10.639     c-2.567-4.23-4.323-9.087-4.999-14.188c-0.679-5.095-0.308-10.423,1.195-15.504c1.471-5.093,4.191-9.866,7.772-13.901     c3.586-4.036,8.082-7.32,13.101-9.496c5.03-2.155,10.569-3.122,16.044-2.897c5.48,0.217,10.907,1.674,15.748,4.215     c4.854,2.529,9.036,6.223,12.281,10.529c0.398,0.545,0.822,1.072,1.197,1.631l1.049,1.726c0.747,1.123,1.272,2.364,1.863,3.564     c0.142,0.303,0.297,0.6,0.428,0.907l0.345,0.941l0.687,1.879c0.122,0.31,0.227,0.626,0.299,0.951l0.16,0.622l0.03,0.115     c0.079,0.307,0.157,0.61,0.234,0.908c0.141,0.599,0.328,1.167,0.414,1.725c0.085,0.558,0.166,1.085,0.241,1.572     c0.133,0.975,0.311,1.781,0.304,2.359c0.029,0.574,0.046,0.901,0.046,0.901s0.494-0.343,1.235-0.858     c0.76-0.531,1.699-1.267,2.601-2.06c1.834-1.57,3.605-3.431,3.605-3.431l0.352,2.26c-0.66,0.639-1.325,1.251-1.994,1.836     c-0.677,0.586-1.42,1.151-2.132,1.687C89.069,49.171,87.618,50.138,86.166,51z"/></g></g></g><text x="0" y="115" fill="#000000" font-size="5px" font-weight="bold" font-family="'Helvetica Neue', Helvetica, Arial-Unicode, Arial, Sans-serif">Created by GREY Perspective</text><text x="0" y="120" fill="#000000" font-size="5px" font-weight="bold" font-family="'Helvetica Neue', Helvetica, Arial-Unicode, Arial, Sans-serif">from the Noun Project</text></svg>