<svg xmlns="http://www.w3.org/2000/svg" xmlns:xlink="http://www.w3.org/1999/xlink" version="1.1" x="0px" y="0px" viewBox="0 0 100 125" enable-background="new 0 0 100 100" xml:space="preserve"><path fill-rule="evenodd" clip-rule="evenodd" d="M65.103,22.984c1.966,0,5.017,0.533,9.15,1.6c2.233,0.6,3.95,0.934,5.15,1  c0.767,0.067,1.883,0.267,3.35,0.6c1.5,0.4,2.633,0.617,3.4,0.65c0.333,0.034,0.667,0.217,1,0.55l0.8,0.95  c1.667,2.2,3.083,4.917,4.25,8.15c0.233,0.6,0.567,1.466,1,2.6c0.367,1,0.617,1.883,0.75,2.65c0.034,0.267,0.1,0.683,0.2,1.25  c0,0.433-0.233,0.7-0.7,0.8c-0.566,0.133-0.983,0.017-1.25-0.35c-0.1-0.2-0.2-0.633-0.3-1.3c-0.333-1.667-0.917-3.483-1.75-5.45  c-0.367-0.967-1.167-2.683-2.4-5.15c-0.833-1.8-2.233-2.883-4.2-3.25c-1.233-0.233-4.117-0.85-8.65-1.85  c-3.566-0.833-6.483-1.417-8.75-1.75c-3.5-0.5-5.717,0.633-6.65,3.4c-0.2,0.534-0.633,1.3-1.3,2.3  c-0.667,0.933-1.083,1.683-1.25,2.25c-0.333-0.033-0.6,0.033-0.8,0.2c-0.167,0.133-0.233,0.35-0.2,0.65  c0.034,0.367,0.2,0.65,0.5,0.85c0.134,0.067,0.45,0.184,0.95,0.35l-0.35,1.45c1.467,0.566,2.65,0.633,3.55,0.2  c1.1-0.633,2.816-1.517,5.15-2.65c0.7-0.367,1.1-0.7,1.2-1c0.067-0.3-0.116-0.767-0.55-1.4c-0.566-0.633-0.95-1.117-1.15-1.45  c-0.467-0.833-1.2-0.966-2.2-0.4l-3.75,1.9c0.167-0.5,0.483-0.917,0.95-1.25c0.3-0.167,0.75-0.433,1.35-0.8  c0.2-0.167,0.533-0.383,1-0.65c0.4-0.2,0.7-0.45,0.9-0.75c0.5-0.733,0.85-1.1,1.05-1.1c0.167,0,0.583,0.3,1.25,0.9  c1.434,1.467,3.5,4.033,6.2,7.7c2.533,3.4,6.033,5.566,10.5,6.5c0.933,0.167,2.083,0.467,3.45,0.9c0.767,0.233,1.917,0.6,3.45,1.1  c0.434,0.1,0.65,0.333,0.65,0.7c-0.066,0.6-0.4,0.817-1,0.65l-5.95-1.2c-1.034-0.233-2.217-0.583-3.55-1.05  c-1.533-0.633-2.667-1.1-3.4-1.4c-0.3,0.034-0.483,0.167-0.55,0.4c-0.034,0.133-0.083,0.333-0.15,0.6  c-0.333,0.434-0.683,0.65-1.05,0.65c-0.433,0-0.667-0.233-0.7-0.7c-0.1-1.233-0.6-2.1-1.5-2.6c-0.4-0.233-1.333-0.517-2.8-0.85  c-2.533-0.566-5.1-0.783-7.7-0.65c-1.167,0.067-4.8,0.05-10.9-0.05c-3.867-0.1-7.566,0.483-11.1,1.75  c-0.366,0.066-0.6,0.183-0.7,0.35c-0.4,0.933-1.2,1.6-2.4,2c-1.733,0.6-2.717,0.966-2.95,1.1c-1.167,0.8-3.017,1.833-5.55,3.1  c-1.467,0.833-2.75,1.8-3.85,2.9c-0.667,0.6-1.067,1.267-1.2,2c-0.6,2.567-0.816,5.167-0.65,7.8c0.467-0.133,0.867-0.4,1.2-0.8  c0.2-0.233,0.466-0.566,0.8-1c0.367-0.367,0.65-0.417,0.85-0.15c0.2,0.233,0.2,0.467,0,0.7c-0.4,0.633-0.733,1.033-1,1.2  c-1.133,0.8-1.8,1.867-2,3.2c-0.067,0.633,0,1.883,0.2,3.75c0.467-0.7,1.117-1.433,1.95-2.2c0.434-0.4,1.133-1.033,2.1-1.9  c0.4-0.333,0.717-0.3,0.95,0.1c0.134,0.267,0.05,0.5-0.25,0.7c-0.466,0.367-1.233,1.133-2.3,2.3c-0.967,1.033-1.8,1.75-2.5,2.15  c-0.433,0.267-0.65,0.7-0.65,1.3v2.95c1.033-0.4,2.417-1.267,4.15-2.6c1.6-1.267,2.9-2.083,3.9-2.45c-0.6,0.8-1.466,1.667-2.6,2.6  c-1.333,0.966-2.316,1.7-2.95,2.2c-0.733,0.533-1.267,0.95-1.6,1.25c-0.5,0.467-0.8,1.017-0.9,1.65c-0.2,1.867,0.233,3.65,1.3,5.35  c0.6,0.934,1.75,1.567,3.45,1.9c0.3,0.067,0.517,0,0.65-0.2c0.1-0.1,0.233-0.317,0.4-0.65c1.934-2.667,4.6-5.117,8-7.35  c0.333-0.233,0.733-0.267,1.2-0.1c-4.3,3.667-7.25,6.4-8.85,8.2c0.333,0.3,0.733,0.5,1.2,0.6c0.667,0.067,1.017,0.1,1.05,0.1  c0.967,0.267,1.767-0.066,2.4-1c1.133-1.633,3.317-3.566,6.55-5.8c0.433-0.333,0.667-0.5,0.7-0.5c0.333-0.133,0.7-0.083,1.1,0.15  c-0.5,0.533-1.217,1.133-2.15,1.8c-1.133,0.867-1.85,1.417-2.15,1.65c-0.9,0.767-1.567,1.35-2,1.75  c-0.767,0.733-1.367,1.517-1.8,2.35h6.1c0.4,0.034,0.733-0.083,1-0.35c0.133-0.1,0.333-0.383,0.6-0.85  c0.433-0.733,1.15-1.55,2.15-2.45c1.367-1.233,2.184-2,2.45-2.3c0.4-0.5,0.767-0.55,1.1-0.15c0.367,0.433,0.284,0.816-0.25,1.15  c-1.633,1.133-3.15,2.517-4.55,4.15c0.434,0.333,1.184,0.567,2.25,0.7c0.867,0.1,1.517-0.2,1.95-0.9c1-1.433,2.233-2.7,3.7-3.8  c0.434-0.267,0.75-0.267,0.95,0c0.233,0.3,0.167,0.6-0.2,0.9l-3.85,3.3c1.167,0.6,2.083,0.867,2.75,0.8  c0.7-0.067,1.45-0.467,2.25-1.2l2-2.2c0.534-0.6,0.983-0.684,1.35-0.25c0.133,0.167,0.133,0.35,0,0.55  c-0.033,0.033-0.2,0.184-0.5,0.45l-2.4,2.45c0.767,0.034,1.967,0,3.6-0.1c1.433-0.067,2.533-0.034,3.3,0.1  c0.9,0.1,1.284-0.333,1.15-1.3c-0.066-1.9-0.167-3.3-0.3-4.2c-0.467-2.667-0.533-6.017-0.2-10.05c0.167-1.567,0.267-3.467,0.3-5.7  c0-2.533,0.017-4.433,0.05-5.7c0.034-0.1,0.034-0.267,0-0.5c-0.033-0.3-0.05-0.483-0.05-0.55c-0.033-0.4-0.05-0.667-0.05-0.8  c0.067-0.3,0.267-0.467,0.6-0.5c0.6-0.033,0.934,0.3,1,1c0,0.3,0.117,1.3,0.35,3c0.133,1.233,0.167,2.25,0.1,3.05  c-0.233,3.767-0.367,6.034-0.4,6.8c-0.1,2.5-0.067,4.733,0.1,6.7c0.034,0.867,0.134,2.133,0.3,3.8  c0.066,1.433-0.017,2.717-0.25,3.85c0.9-0.1,1.717-0.483,2.45-1.15c0.4-0.367,1-0.95,1.8-1.75c1.767-1.5,2.983-2.533,3.65-3.1  c1.3-1.2,2.35-2.4,3.15-3.6c1-1.434,1.5-2.633,1.5-3.6c0-1.7,0.2-4.283,0.6-7.75c0.367-3.467,0.55-6.083,0.55-7.85  c0.034-1.367,0.05-2.383,0.05-3.05c-0.033-1.167-0.184-2.184-0.45-3.05c-0.033-0.1-0.05-0.45-0.05-1.05c-0.067-1,0.2-1.55,0.8-1.65  c0.4-0.1,0.667,0,0.8,0.3l0.8,1.5c0.233,0.067,0.633-0.066,1.2-0.4c0.6-0.333,0.983-0.35,1.15-0.05c0.3,0.566,0.05,0.9-0.75,1  c-0.867,0.2-1.367,0.617-1.5,1.25c-0.067,0.333-0.017,0.933,0.15,1.8c0.434-0.067,0.9-0.267,1.4-0.6c0.3-0.167,0.7-0.433,1.2-0.8  c0.566-0.333,0.967-0.333,1.2,0c0.333,0.533,0.1,0.9-0.7,1.1c-2.467,0.667-3.617,2.433-3.45,5.3c0.567-0.1,1.167-0.367,1.8-0.8  c0.333-0.233,0.85-0.617,1.55-1.15c0.233-0.133,0.567-0.4,1-0.8c0.4-0.267,0.717-0.25,0.95,0.05c0.233,0.267,0.133,0.55-0.3,0.85  c-0.733,0.5-1.283,0.883-1.65,1.15c-0.633,0.434-1.183,0.75-1.65,0.95c-0.934,0.4-1.517,0.983-1.75,1.75  c-0.133,0.5-0.167,1.3-0.1,2.4c0.667-0.2,1.684-0.75,3.05-1.65c1.2-0.8,2.233-1.217,3.1-1.25c-2.333,1.667-3.7,2.617-4.1,2.85  c-2.167,1.267-3,3.167-2.5,5.7c0.934-0.333,2.233-1.083,3.9-2.25c1.633-1.167,2.933-1.933,3.9-2.3c-0.667,0.8-1.533,1.583-2.6,2.35  c-1.3,0.9-2.267,1.566-2.9,2c-1,0.667-1.65,1.15-1.95,1.45c-0.5,0.467-0.8,1.184-0.9,2.15c-0.1,0.966,0.05,1.617,0.45,1.95  c0.7,0.633,1.517,0.883,2.45,0.75c0.967-0.1,1.7-0.517,2.2-1.25c0.233-0.333,0.583-0.833,1.05-1.5c0.467-0.633,0.767-1.183,0.9-1.65  l-0.05,0.05c1.5-2.267,3.434-5.85,5.8-10.75c0.733-1.466,1.95-3.6,3.65-6.4c0.2-0.333,0.483-0.833,0.85-1.5  c0.3-0.566,0.4-1.133,0.3-1.7c-0.033-0.2,0.033-0.4,0.2-0.6c0.134-0.167,0.333-0.233,0.6-0.2c0.267,0,0.483,0.067,0.65,0.2  c0.233,0.2,0.333,0.383,0.3,0.55c-0.033,0.133-0.05,0.717-0.05,1.75c-0.033,0.7-0.2,1.233-0.5,1.6c-0.966,1.267-1.95,2.833-2.95,4.7  c-1.167,2.233-2.017,3.883-2.55,4.95l-6.55,12.15c-0.833,1.467-2.133,1.967-3.9,1.5c-1.467-0.5-2.583-0.883-3.35-1.15  c-2.033,3.167-5,6.217-8.9,9.15c-0.4,0.4-0.717,0.7-0.95,0.9c-2.4,2.3-4.983,3.367-7.75,3.2c-5.6-0.3-11.716-0.383-18.35-0.25  c-4.7,0.067-8.4-0.066-11.1-0.4c-1.667-0.267-3.133-0.617-4.4-1.05c-1.933-0.7-3.167-2.083-3.7-4.15c-0.467-1.466-0.567-3.133-0.3-5  c0.233-2.267,0.333-4.383,0.3-6.35c-1.667,0.066-2.75-0.067-3.25-0.4c-0.533-0.333-1.05-1.216-1.55-2.65  c-2-5.967-5.133-12.5-9.4-19.6c-0.5-0.867-0.767-1.633-0.8-2.3c-0.067-0.767,0.15-1.583,0.65-2.45c1.1-1.966,3.083-6.117,5.95-12.45  c0.9-1.934,2.383-3.383,4.45-4.35c7.934-3.433,16.15-5.867,24.65-7.3c1.8-0.3,3.15-0.233,4.05,0.2c0.967,0.434,1.85,1.434,2.65,3  c0.867,1.867,2.083,4.033,3.65,6.5c0.833,1.4,2.167,3.533,4,6.4c1.233-0.933,2.15-2.333,2.75-4.2c0.667-1.967,1.6-3.283,2.8-3.95  C61.536,23.184,63.036,22.95,65.103,22.984z M63.503,32.484c-0.5,0.066-0.867,0.133-1.1,0.2c0,0.033-0.033,0.033-0.1,0  c-0.933,0.633-1.816,0.967-2.65,1c0.633-1,1.55-1.333,2.75-1c0.167-0.4,0.434-0.65,0.8-0.75c0.267-0.066,0.667-0.15,1.2-0.25  C64.236,32.117,63.936,32.384,63.503,32.484z M62.603,36.583c1.2,0.2,1.917,0.284,2.15,0.25c0.333-0.066,0.85-0.283,1.55-0.65  c0.767-0.433,1.233-0.683,1.4-0.75c0.5-0.2,0.967-0.3,1.4-0.3l0.05,0.05c0.033,0,0.05,0.017,0.05,0.05  c-0.1,0.3-0.45,0.583-1.05,0.85c-0.566,0.267-0.883,0.617-0.95,1.05c1.034,0.333,2.384,0.5,4.05,0.5c-0.434-0.7-0.75-1.2-0.95-1.5  c-0.267-0.434-0.633-0.733-1.1-0.9c0.034-0.034,0.05-0.067,0.05-0.1c-0.033,0-0.083,0-0.15,0c-0.233-0.467-0.4-0.817-0.5-1.05  c-0.267-0.433-0.65-0.5-1.15-0.2C65.22,34.784,63.603,35.684,62.603,36.583z M59.553,33.734c-0.833,0.6-1.533,0.9-2.1,0.9v0.05  l-0.05-0.05h0.05c0.167-0.434,0.45-0.733,0.85-0.9C58.569,33.667,58.986,33.667,59.553,33.734z M50.703,28.134  c-2.4-3.733-4.083-6.517-5.05-8.35c-0.967,0.733-1.867,1.717-2.7,2.95c-0.933,1.4-1.616,2.433-2.05,3.1  c-2.333,3.4-3.816,5.7-4.45,6.9c-0.333,0.566-0.716,0.767-1.15,0.6c-0.233-0.133-0.35-0.533-0.35-1.2c0-0.333,0.083-0.667,0.25-1  c0.134-0.167,0.333-0.45,0.6-0.85l6.65-9.65c0.233-0.367,0.483-0.917,0.75-1.65c0.467-0.967,0.134-1.483-1-1.55l-0.75,0.1  c-3.8,0.367-7.85,1.183-12.15,2.45c-3.167,0.966-7.017,2.333-11.55,4.1c-2.667,1.034-4.383,2.934-5.15,5.7  c0.4,0.067,0.883-0.083,1.45-0.45c0.4-0.267,0.617-0.4,0.65-0.4c0.3-0.066,0.617,0,0.95,0.2c-1.467,1.2-2.583,2.1-3.35,2.7  c-1.333,1.067-2.05,2.3-2.15,3.7c0.167-0.033,0.967-0.5,2.4-1.4c0.934-0.533,1.784-0.75,2.55-0.65c-1.667,1-3.6,2.383-5.8,4.15  c-1.066,0.933-1.517,2.117-1.35,3.55c0.5-0.333,1.85-1.316,4.05-2.95c1.6-1.2,2.983-2.034,4.15-2.5c-0.5,0.767-1.467,1.65-2.9,2.65  c-1.434,1.033-2.434,1.917-3,2.65c0.933,0.1,1.683,0.083,2.25-0.05c0.7-0.233,1.3-0.667,1.8-1.3c0.633-0.767,1.5-1.483,2.6-2.15  c0.5-0.367,1.55-1,3.15-1.9c-0.267,0.867-0.417,1.45-0.45,1.75c0.466-0.033,1.117-0.367,1.95-1c0.767-0.633,1.483-0.917,2.15-0.85  c-0.133,0.467-0.566,0.967-1.3,1.5c-0.8,0.567-1.3,1.117-1.5,1.65l11.15-3.35c-0.667,1.267-1.65,2.133-2.95,2.6  c-4.367,1.4-7.9,2.467-10.6,3.2c-4.667,1.1-8.2,1.95-10.6,2.55c0.567,1.6,1.15,2.7,1.75,3.3c0.333-0.133,0.65-0.333,0.95-0.6  c0.2-0.2,0.433-0.483,0.7-0.85c0.267-0.233,0.633-0.617,1.1-1.15c0.567-0.8,1.083-0.95,1.55-0.45c0.233,0.3,0.267,0.55,0.1,0.75  c-0.333,0.3-0.583,0.5-0.75,0.6c-1.033,0.833-1.767,1.467-2.2,1.9c-0.633,0.5-0.817,1.033-0.55,1.6  c0.934,1.967,1.434,3.017,1.5,3.15c0.167,0.233,0.333,0.3,0.5,0.2c0.133-0.1,0.25-0.3,0.35-0.6l2.9-3.35c0.5-0.5,0.8-0.8,0.9-0.9  c0.467-0.267,1-0.35,1.6-0.25l-4.5,4.55c-0.233,0.233-0.533,0.233-0.9,0c0.133,0.3,0.217,0.934,0.25,1.9  c0.033,0.833,0.35,1.417,0.95,1.75c0.233-0.133,1.05-0.85,2.45-2.15c0.967-0.933,1.917-1.483,2.85-1.65  c-0.4,0.5-0.933,1.083-1.6,1.75l-1.7,1.65c-0.967,1-1.45,1.717-1.45,2.15c-0.033,0.4,0.4,1.283,1.3,2.65  c0.7-1.3,1.184-2.133,1.45-2.5c0.567-0.9,1.167-1.567,1.8-2c1.233-0.867,1.85-2.1,1.85-3.7c0-2.033,1-3.55,3-4.55  c0.5-0.267,1.733-0.983,3.7-2.15c1.533-0.833,2.8-1.483,3.8-1.95c1.733-0.7,2.867-1.367,3.4-2c0.3-0.367,0.367-0.883,0.2-1.55  c-0.3-0.767-0.5-1.333-0.6-1.7c-0.167-0.433-0.05-0.75,0.35-0.95c0.367-0.167,0.717-0.017,1.05,0.45c0.1,0.133,0.3,0.533,0.6,1.2  c0.233,0.533,0.517,0.917,0.85,1.15c1.233-0.867,1.934-1.35,2.1-1.45c0.433-0.333,0.983-0.533,1.65-0.6  c4.267-0.5,8.25-0.7,11.95-0.6h2.8C54.803,34.634,53.069,31.767,50.703,28.134z M53.953,48.784c1.567,0.067,3.15-0.2,4.75-0.8  c1.2-0.467,2.65-1.217,4.35-2.25c0.667-0.4,3.284-1.85,7.85-4.35c0.667-0.434,1.117-0.417,1.35,0.05c0.233,0.5,0,0.9-0.7,1.2  c-1.2,0.533-3.483,1.883-6.85,4.05c-0.8,0.533-1.35,0.95-1.65,1.25c-1.367,1.2-3.133,1.917-5.3,2.15c-1.7,0.133-4.05,0.167-7.05,0.1  c-3.2-0.066-5.466-0.066-6.8,0h-14.8c-0.633,0-0.967-0.183-1-0.55c-0.034-0.267,0.183-0.5,0.65-0.7  c0.833-0.367,1.333-0.583,1.5-0.65c0.633-0.133,1.217-0.083,1.75,0.15c0.267,0.1,0.7,0.15,1.3,0.15c1.867-0.2,4.467-0.216,7.8-0.05  c3.633,0.167,6.25,0.2,7.85,0.1c0.667-0.033,1.5-0.033,2.5,0L53.953,48.784z M84.453,31.134c0,0.167-0.083,0.283-0.25,0.35  c-0.1,0.1-0.2,0.117-0.3,0.05c-0.4-0.167-1.5-0.55-3.3-1.15c-1.333-0.467-2.35-0.983-3.05-1.55c2.067-0.133,4.267,0.417,6.6,1.65  C84.419,30.684,84.52,30.9,84.453,31.134z M85.903,33.134c0-0.4,0.233-0.567,0.7-0.5c0.3,0.066,0.433,0.267,0.4,0.6  c-0.067,0.267-0.267,0.4-0.6,0.4C86.069,33.567,85.903,33.4,85.903,33.134z M70.553,48.534c0.267,1.3,0.3,3.233,0.1,5.8  c0,0.233-0.066,0.434-0.2,0.6c-0.167,0.167-0.383,0.233-0.65,0.2c-0.433-0.067-0.617-0.333-0.55-0.8c0.233-0.933,0.35-2.2,0.35-3.8  c0-2.067,0.017-3.4,0.05-4c0.533,0.233,0.833,0.567,0.9,1C70.586,47.767,70.586,48.101,70.553,48.534z M77.053,67.884  c0.7-0.533,2.067-1.317,4.1-2.35c0.333-0.2,0.617-0.2,0.85,0c0.133,0.1,0.333,0.283,0.6,0.55c-0.867,0.133-1.867,0.567-3,1.3  c-1.4,0.933-2.383,1.517-2.95,1.75c-0.233-0.267-0.267-0.517-0.1-0.75C76.586,68.284,76.753,68.117,77.053,67.884z M68.703,58.684  c-0.133-0.4,0.017-0.633,0.45-0.7c0.4-0.133,0.684,0,0.85,0.4c0.133,0.4,0.183,0.883,0.15,1.45c-0.033,0.333-0.083,0.883-0.15,1.65  c-0.6-0.333-0.967-0.8-1.1-1.4C68.803,59.45,68.736,58.984,68.703,58.684z M32.553,22.734c0.034,0.367-0.183,0.583-0.65,0.65  l-6.5,1.1c-0.433,0.066-0.717-0.2-0.85-0.8c0.767-0.267,1.95-0.517,3.55-0.75c1.566-0.233,2.716-0.5,3.45-0.8  c0.233-0.067,0.45-0.067,0.65,0C32.403,22.267,32.52,22.467,32.553,22.734z M36.503,21.534c0.6-0.067,1.4,0.183,2.4,0.75l-4.35,0.55  C35.253,22.034,35.903,21.601,36.503,21.534z M18.553,39.083c0.3-0.267,0.617-0.816,0.95-1.65c-0.567,0.067-1.1,0.283-1.6,0.65  c-0.233,0.167-0.733,0.6-1.5,1.3C17.303,39.617,18.02,39.517,18.553,39.083z M20.303,55.684c-0.767,0.567-1.5,1.317-2.2,2.25  c-0.1,0.167-0.65,0.983-1.65,2.45c-0.233,0.3-0.216,0.617,0.05,0.95c0.1,0.2,0.333,0.483,0.7,0.85c1.4-1.367,2.25-2.267,2.55-2.7  C20.52,58.317,20.703,57.05,20.303,55.684z M19.503,65.634c0.5-0.1,0.75-0.517,0.75-1.25c0-0.7-0.083-1.733-0.25-3.1  c-1.2,1-1.867,1.683-2,2.05c-0.167,0.333,0,0.883,0.5,1.65C18.836,65.45,19.169,65.667,19.503,65.634z M28.503,74.284  c-2.733,2.467-4.267,3.85-4.6,4.15c1.533-2.033,2.883-3.617,4.05-4.75c1.634-1.6,3.317-2.85,5.05-3.75  C31.87,71.167,30.37,72.617,28.503,74.284z"/><text x="0" y="115" fill="#000000" font-size="5px" font-weight="bold" font-family="'Helvetica Neue', Helvetica, Arial-Unicode, Arial, Sans-serif">Created by Saeful Muslim</text><text x="0" y="120" fill="#000000" font-size="5px" font-weight="bold" font-family="'Helvetica Neue', Helvetica, Arial-Unicode, Arial, Sans-serif">from the Noun Project</text></svg>