<svg xmlns="http://www.w3.org/2000/svg" xmlns:xlink="http://www.w3.org/1999/xlink" viewBox="0 0 100 125" version="1.1" x="0px" y="0px"><title>halal</title><desc>Created with Sketch.</desc><g stroke="none" stroke-width="1" fill="none" fill-rule="evenodd"><g fill="#000000"><path d="M74,52 C79.7952683,52.0022126 83.8064765,55.2342533 89,58 C93.621896,59.8777558 100,59 100,59 L96,66 C96,66 89.6786717,64.7658929 82,68 C75.0792344,70.7334132 68.7069128,71.1870687 67,71 C64.7866358,71.187067 59.8788891,70.866451 57,65 C55.0743992,59.4601668 55,50 55,50 L55,44 C55,44 53.9872333,50.8194957 52,58 C50.167325,61.8710819 49.3916174,64.0414043 47,67 C44.0591737,70.3807899 39.9567417,72.8108631 36,74 C29.2249123,75.6364518 22,75 22,75 C22,75 29.8407277,72.4448977 35,69 C40.1406412,65.8755657 46.4055261,61.8709958 50,53 C53.382764,43.5626968 54.0468813,32.8337152 55,31 C56.7945912,29.7596386 57.7980259,34.5665215 58,37 C58.0986806,39.8222063 59,53 59,53 C59,53 59.4533137,62.9894924 63,65 C66.1857334,66.1593042 73.60787,65.5959141 78,64 C82.3789516,62.877344 83,62 83,62 C83,62 74.5518053,56.95453 70,59 C65.8949503,60.6296449 64.2008023,62.8773435 64,63 C64.2008009,62.8773444 67.8160836,52.0022114 74,52 L74,52 L74,52 Z M29,36 C29,36 27.796404,44.1092908 32,46 C36.299832,48.2538879 38.1582848,48.0245737 40,51 C42.3705578,53.0654924 45,60 45,60 C45,60 45.9993398,53.2925532 43,47 C39.6359729,41.308914 29,36 29,36 L29,36 L29,36 Z M20.5305182,29 L24.4815903,24 C24.4815903,24 25.0690334,26.8232946 25.9994635,28.3211923 C26.9298935,29.8190899 28.4326623,31 28.4326623,31 C28.4326623,31 26.4571263,34.0894318 26.4571263,37.2179232 C26.4571263,40.3464146 29.1683399,50 29.1683399,55.0877419 C29.1683399,55.0877419 29.2854001,58.1306305 28.9752581,63.5798073 C28.9752581,63.5798073 28.9412823,66.3403053 25.6168303,70.950386 C25.6168303,70.950386 21.3372232,76 12.6283741,76 C12.6283741,76 5.9830896,75.626461 2.61408759,72 C2.61408759,72 0.570404972,70.2545853 0,66.0757179 C0,66.0757179 4.23840753e-11,64 0.925791471,61.1207085 C0.925791471,61.1207085 2.15442767,58.0391083 4.72622995,54 C4.72622995,54 0.968343562,61.151825 2.61408759,65.3444557 C4.25983162,69.5370865 9.61462492,70.4807396 12.6283745,70.4807396 C15.642124,70.4807396 19.5363325,69.4168527 22.5199376,67.1928596 C25.9994635,64.599205 25.6168303,58.7189598 25.6168303,55.0877419 C25.6168303,51.4565239 23.819882,42.3784866 23.819882,42.3784866 C23.4494643,39.9049816 21.7708856,34.436975 21.5182862,33 C21.2656869,31.563025 20.5305182,29 20.5305182,29 L20.5305182,29 L20.5305182,29 Z"/></g></g><text x="0" y="115" fill="#000000" font-size="5px" font-weight="bold" font-family="'Helvetica Neue', Helvetica, Arial-Unicode, Arial, Sans-serif">Created by Rauan</text><text x="0" y="120" fill="#000000" font-size="5px" font-weight="bold" font-family="'Helvetica Neue', Helvetica, Arial-Unicode, Arial, Sans-serif">from the Noun Project</text></svg>