<svg xmlns="http://www.w3.org/2000/svg" xmlns:xlink="http://www.w3.org/1999/xlink" version="1.1" x="0px" y="0px" viewBox="0 0 141.73 177.1625" enable-background="new 0 0 141.73 141.73" xml:space="preserve"><g><path d="M103.89,79.865c-3.207,0-6.247,0.675-8.986,1.921l-3.463-6.39h25.565c0.603,0,1.091-0.488,1.091-1.091   c0-0.606-0.488-1.091-1.091-1.091H90.273l-1.303-2.409l0.191-0.66l2.445-2.401c0.342-0.334,0.619-0.7,0.847-1.099   c1.632-2.531,1.665-5.901-0.179-8.522L78.666,38.804c-2.434-3.439-7.188-4.261-10.63-1.835c-0.269,0.195-0.513,0.399-0.753,0.606   c-0.289,0.208-0.558,0.448-0.806,0.716l-17.789,19.71c-1.771,1.954-1.729,4.917,0.024,6.829l-3.15,0.016   c-0.859,0-1.551,0.436-1.551,1.291c0,0.862,0.696,1.294,1.559,1.286l5.059-0.016l-0.606,3.118c-0.004,0-0.004,0.154-0.004,0.154   l-0.964,4.534l-2.666,10.866V70.895c0-0.83-0.672-1.494-1.502-1.494c-0.822,0-1.489,0.664-1.489,1.494v16.202H19.955   c-0.017,0-0.037,0-0.057,0.008c-0.411-0.008-0.814,0.151-1.111,0.484c-0.557,0.61-0.504,1.555,0.106,2.112l10.712,9.649   c-1.645,2.467-2.609,5.438-2.609,8.612c0,8.587,6.988,15.574,15.579,15.574c8.587,0,15.579-6.991,15.579-15.574   c0-6.797-4.383-12.592-10.472-14.709l3.508-14.659l17.154,17.704l2.523,8.204c0.684,2.202,2.723,3.614,4.916,3.586   c0.477,0,0.957-0.073,1.441-0.229c1.44-0.431,2.527-1.456,3.113-2.727l1.908-0.143c1.559,10.59,10.708,18.726,21.725,18.701   c12.075-0.024,21.888-9.873,21.863-21.961C125.814,89.656,115.973,79.841,103.89,79.865z M54.617,107.967   c0,6.642-5.401,12.046-12.042,12.046c-6.642,0-12.042-5.404-12.042-12.046c0-2.271,0.631-4.399,1.734-6.211l8.624,7.773   c0.155,0.424,0.484,0.773,0.944,0.937c0.171,0.057,0.342,0.085,0.513,0.085c0.639,0,1.241-0.402,1.461-1.042l3.061-12.795   C51.39,98.439,54.617,102.835,54.617,107.967z M41.476,106.029l-7.362-6.63c2.177-2.148,5.165-3.476,8.457-3.476   c0.464,0,0.919,0.029,1.367,0.078L41.476,106.029z M42.575,92.384c-4.334,0-8.258,1.782-11.082,4.647l-7.708-6.943h21.098   c0.191,0,0.37-0.053,0.537-0.105l-0.627,2.563C44.069,92.44,43.328,92.384,42.575,92.384z M54.072,66.337   c0.004-0.041,0.008-0.073,0.016-0.114c0.806-0.273,1.547-0.741,2.153-1.408l12.4-13.74l10.403,14.749l-2.878,2.824l-22.697,0.045   L54.072,66.337z M65.838,78.77c-1.355,1.33-1.86,3.312-1.302,5.123l1.766,5.738L52.245,75.217l0.545-2.661l19.424-0.032   L65.838,78.77z M78.629,95.118L75.17,83.861l9.442-9.255L78.629,95.118z M82.207,101.833c0,0.029,0,0.054,0,0.069l-1.486,0.11   c-0.036-0.159-0.077-0.33-0.126-0.492l-0.235-0.77l7.423-25.628l4.501,8.197C86.175,87.222,82.19,94.064,82.207,101.833z    M93.899,86.507l7.524,13.919l-15.778,1.204C85.698,95.313,88.967,89.754,93.899,86.507z M103.968,120.086   c-9.108,0.017-16.687-6.653-18.095-15.363l18.172-1.384c0.521-0.032,0.993-0.342,1.241-0.797c0.257-0.469,0.257-1.021,0.004-1.478   l-8.664-16.035c2.222-0.969,4.685-1.522,7.265-1.522c10.093-0.024,18.306,8.173,18.326,18.258   C122.232,111.849,114.049,120.066,103.968,120.086z"/><circle cx="62.838" cy="26.62" r="8.135"/><rect x="16.87" y="60.346" width="23.23" height="23.23"/><rect x="79.53" y="36.348" transform="matrix(-0.5852 -0.8109 0.8109 -0.5852 110.2007 141.8527)" width="23.7" height="12.789"/></g><text x="0" y="156.73" fill="#000000" font-size="5px" font-weight="bold" font-family="'Helvetica Neue', Helvetica, Arial-Unicode, Arial, Sans-serif">Created by We All Design</text><text x="0" y="161.73" fill="#000000" font-size="5px" font-weight="bold" font-family="'Helvetica Neue', Helvetica, Arial-Unicode, Arial, Sans-serif">from the Noun Project</text></svg>