<svg xmlns="http://www.w3.org/2000/svg" xmlns:xlink="http://www.w3.org/1999/xlink" preserveAspectRatio="xMidYMid" viewBox="0 0 500 625" x="0px" y="0px"><defs><style>
      .cls-1 {
        fill: #000;
        fill-rule: evenodd;
      }
    </style></defs><path d="M487.071,197.612 C486.419,195.399 485.416,192.163 483.901,188.131 C482.399,184.095 480.384,179.265 477.759,173.876 C475.115,168.500 471.849,162.559 467.693,156.470 C465.632,153.415 463.349,150.325 460.813,147.270 C459.573,145.719 458.210,144.229 456.857,142.691 C455.442,141.209 454.034,139.677 452.501,138.230 C449.482,135.294 446.210,132.428 442.660,129.814 C439.094,127.187 435.361,124.626 431.236,122.631 C423.053,118.508 413.564,116.439 403.953,116.663 C394.321,116.836 384.676,119.100 375.398,122.221 C366.103,125.364 357.110,129.367 348.347,133.478 C339.584,137.600 331.038,141.850 322.640,145.725 C318.443,147.668 314.283,149.516 310.146,151.175 C306.046,152.928 301.934,154.384 297.961,155.877 C289.958,158.706 282.284,161.057 275.156,163.060 C268.008,164.993 261.415,166.616 255.536,167.892 C249.856,169.115 244.880,170.097 240.708,170.818 C242.905,171.397 246.339,172.348 248.550,173.178 C254.362,172.717 261.006,172.156 268.353,171.469 C274.992,170.842 282.181,170.137 289.771,169.269 C297.359,168.400 305.353,167.420 313.599,166.233 C321.853,165.065 330.386,163.754 339.139,162.885 C343.514,162.458 347.947,162.147 352.416,162.114 C356.883,162.084 361.398,162.321 365.851,163.163 C370.286,164.007 374.710,165.489 378.497,168.103 C382.294,170.681 385.266,174.413 387.028,178.557 C387.940,180.619 388.588,182.769 389.047,184.935 L389.213,185.748 L389.255,185.951 L389.294,186.177 L389.354,186.579 C389.436,187.114 389.524,187.641 389.561,188.219 C389.619,188.786 389.654,189.349 389.652,189.903 C389.677,190.460 389.651,191.017 389.621,191.572 C389.406,196.041 387.686,200.226 385.451,203.818 C383.198,207.433 380.446,210.563 377.666,213.484 C374.875,216.401 372.028,219.117 369.302,221.791 C363.847,227.118 358.856,232.356 355.306,237.938 C351.715,243.485 349.776,249.353 349.295,254.678 C348.793,260.020 349.617,264.713 350.530,268.457 C351.526,272.198 352.620,275.060 353.430,276.978 C353.819,277.944 354.175,278.661 354.388,279.156 C354.610,279.647 354.724,279.901 354.724,279.901 C354.724,279.901 354.596,279.654 354.349,279.176 C354.109,278.693 353.714,277.995 353.272,277.049 C352.361,275.172 351.076,272.372 349.961,268.613 C349.423,266.731 348.916,264.615 348.580,262.268 C348.264,259.919 348.136,257.339 348.349,254.598 C348.574,251.863 349.084,248.950 350.113,246.036 C351.109,243.113 352.548,240.186 354.342,237.326 C357.935,231.592 362.965,226.253 368.398,220.874 C371.113,218.176 373.934,215.448 376.675,212.544 C379.405,209.639 382.078,206.548 384.219,203.057 C386.346,199.584 387.919,195.644 388.090,191.489 C388.114,190.972 388.136,190.454 388.108,189.935 C388.107,189.412 388.071,188.899 388.016,188.392 C387.985,187.892 387.892,187.353 387.807,186.817 L387.744,186.416 L387.728,186.316 C387.731,186.332 387.717,186.264 387.712,186.243 L387.672,186.048 L387.509,185.268 C387.061,183.190 386.434,181.143 385.566,179.201 C383.881,175.294 381.117,171.862 377.566,169.463 C374.024,167.036 369.821,165.630 365.537,164.832 C361.237,164.036 356.823,163.817 352.432,163.863 C348.038,163.913 343.656,164.236 339.317,164.677 C330.638,165.571 322.129,166.910 313.870,168.111 C305.610,169.342 297.593,170.329 289.990,171.203 C282.385,172.077 275.184,172.789 268.536,173.422 C260.370,174.190 253.045,174.807 246.800,175.299 C239.508,177.259 223.693,181.969 215.725,187.858 C207.205,194.156 194.276,210.894 180.792,216.824 C181.099,216.358 181.427,215.858 181.796,215.298 C183.707,212.350 186.421,208.131 189.596,203.021 C191.198,200.474 192.912,197.702 194.705,194.758 C196.513,191.824 198.402,188.719 200.329,185.492 L201.058,184.279 L201.425,183.668 L201.612,183.356 C201.690,183.209 201.772,183.062 201.843,182.910 C202.405,181.677 202.370,180.179 201.740,178.955 C201.432,178.340 200.973,177.794 200.414,177.378 C200.153,177.176 199.794,176.977 199.560,176.866 L198.885,176.545 C197.985,176.118 197.082,175.715 196.175,175.315 C192.563,173.712 188.886,172.153 185.490,170.257 C184.515,169.718 183.569,169.147 182.704,168.523 C182.277,168.212 181.862,167.885 181.503,167.547 C181.334,167.375 181.146,167.207 180.989,167.035 C180.869,166.872 180.707,166.660 180.609,166.545 C180.627,166.529 180.598,166.554 180.608,166.510 C180.584,166.483 180.613,166.311 180.608,166.206 C180.648,165.918 180.718,165.587 180.827,165.237 C181.038,164.537 181.346,163.801 181.687,163.076 C183.290,159.643 185.378,156.360 187.409,153.248 C188.441,151.696 189.467,150.171 190.491,148.700 L190.682,148.426 C190.716,148.364 190.730,148.384 190.755,148.353 L190.787,148.313 L190.891,148.245 L191.096,148.105 C191.426,147.915 191.787,147.729 192.171,147.556 C192.938,147.213 193.729,146.894 194.527,146.606 C197.717,145.449 200.821,144.465 203.689,143.592 C209.432,141.853 214.252,140.472 217.622,139.491 C218.518,139.232 219.304,139.004 219.987,138.806 C250.171,135.446 297.064,129.784 309.243,125.809 C309.243,125.809 291.117,135.440 285.602,139.501 L296.092,139.128 C296.092,139.128 263.014,160.267 243.869,168.303 C247.230,167.690 250.992,166.946 255.143,166.072 C261.000,164.829 267.566,163.243 274.688,161.351 C281.790,159.390 289.434,157.085 297.405,154.307 C301.361,152.840 305.457,151.411 309.537,149.687 C313.657,148.057 317.805,146.235 321.995,144.320 C330.383,140.494 338.944,136.284 347.745,132.192 C356.548,128.110 365.601,124.126 374.989,120.998 C384.359,117.893 394.135,115.637 403.934,115.505 C408.821,115.432 413.686,115.896 418.367,116.944 C423.053,117.978 427.535,119.622 431.696,121.707 C435.888,123.754 439.665,126.376 443.217,129.053 C446.800,131.742 450.058,134.651 453.078,137.641 C454.610,139.114 456.014,140.670 457.425,142.175 C458.774,143.736 460.132,145.248 461.364,146.820 C463.887,149.917 466.155,153.043 468.197,156.131 C472.316,162.286 475.538,168.277 478.140,173.692 C480.738,179.113 482.657,183.996 484.102,188.058 C485.555,192.119 486.507,195.372 487.126,197.596 C487.734,199.825 487.992,201.030 487.992,201.030 C487.992,201.030 487.715,199.829 487.071,197.612 ZM213.395,181.853 C210.286,173.906 203.491,175.403 203.491,175.403 C208.674,175.748 213.395,181.853 213.395,181.853 ZM223.327,150.390 C222.704,147.489 219.056,145.812 215.178,146.644 C211.300,147.476 208.660,150.501 209.283,153.402 C209.904,156.303 213.553,157.981 217.431,157.148 C221.309,156.317 223.948,153.291 223.327,150.390 ZM246.918,153.781 C247.855,152.686 248.295,151.990 248.295,151.990 C248.295,151.990 248.149,152.133 247.876,152.402 C247.599,152.666 247.175,153.035 246.639,153.502 C245.556,154.426 243.956,155.675 241.939,157.011 C241.444,157.358 240.902,157.680 240.345,158.018 C239.795,158.366 239.219,158.712 238.611,159.043 C237.419,159.740 236.106,160.377 234.757,161.036 C234.070,161.342 233.381,161.675 232.669,161.975 C231.948,162.256 231.220,162.543 230.492,162.846 C229.007,163.376 227.506,163.946 225.953,164.350 C224.427,164.846 222.859,165.188 221.322,165.555 C219.839,165.858 218.235,166.046 216.713,166.348 C213.668,166.925 210.849,167.725 208.568,168.769 C207.994,169.018 207.453,169.277 206.957,169.568 C206.451,169.830 205.996,170.132 205.577,170.423 C205.145,170.694 204.773,170.996 204.444,171.292 C204.103,171.572 203.806,171.845 203.574,172.131 C203.333,172.406 203.106,172.638 202.940,172.865 C202.791,173.104 202.664,173.308 202.561,173.473 C202.359,173.799 202.251,173.972 202.251,173.972 C202.251,173.972 202.389,173.821 202.648,173.537 C202.776,173.397 202.933,173.225 203.118,173.022 C203.321,172.837 203.577,172.647 203.844,172.421 C204.102,172.185 204.425,171.969 204.790,171.754 C205.145,171.528 205.523,171.279 205.970,171.077 C206.401,170.852 206.861,170.622 207.377,170.434 C207.876,170.219 208.411,170.014 208.984,169.834 C211.256,169.070 214.013,168.505 217.000,168.078 C217.747,167.972 218.509,167.875 219.286,167.786 C220.059,167.691 220.888,167.632 221.710,167.438 C223.303,167.081 224.930,166.754 226.517,166.258 C228.117,165.816 229.666,165.206 231.195,164.634 C231.949,164.318 232.691,163.990 233.422,163.664 C234.146,163.322 234.845,162.948 235.540,162.599 C236.915,161.875 238.211,161.107 239.388,160.304 C240.588,159.538 241.654,158.709 242.615,157.927 C244.543,156.365 245.981,154.874 246.918,153.781 ZM216.480,138.514 C215.808,138.639 215.041,138.783 214.175,138.950 C213.677,139.046 213.140,139.151 212.583,139.262 C211.814,139.414 210.982,139.581 210.106,139.760 C210.034,139.775 209.967,139.788 209.894,139.803 C209.054,139.976 208.155,140.166 207.227,140.365 C207.052,140.402 206.877,140.440 206.699,140.478 C205.768,140.680 204.798,140.895 203.789,141.124 C203.618,141.163 203.441,141.204 203.268,141.244 C202.195,141.489 201.093,141.746 199.944,142.025 C197.013,142.746 193.841,143.522 190.512,144.601 C189.679,144.871 188.836,145.168 187.974,145.511 C187.544,145.683 187.102,145.882 186.648,146.120 L186.286,146.341 L186.105,146.453 L185.886,146.637 C185.747,146.760 185.575,146.914 185.490,147.046 L185.281,147.319 C184.176,148.773 183.081,150.276 182.006,151.836 C179.862,154.968 177.678,158.206 175.847,161.889 C175.468,162.684 175.111,163.500 174.826,164.410 C174.682,164.863 174.562,165.353 174.489,165.900 C174.477,166.213 174.430,166.467 174.488,166.855 C174.502,167.245 174.705,167.632 174.866,168.010 C175.727,169.318 176.704,170.052 177.700,170.830 C178.700,171.562 179.727,172.191 180.764,172.775 C184.385,174.768 188.118,176.317 191.725,177.895 C192.618,178.292 193.507,178.687 194.392,179.079 L195.044,179.378 C195.251,179.475 195.319,179.514 195.448,179.603 C195.674,179.762 195.863,179.972 195.994,180.220 C196.261,180.712 196.298,181.320 196.084,181.838 L195.992,182.030 L195.821,182.334 L195.471,182.954 C195.238,183.366 195.006,183.777 194.775,184.186 C192.914,187.453 191.144,190.627 189.481,193.646 C187.803,196.656 186.235,199.513 184.807,202.162 C181.925,207.443 179.589,211.883 177.966,214.999 C177.569,215.773 177.214,216.465 176.904,217.068 C176.904,217.069 176.904,217.069 176.904,217.069 C176.863,217.148 176.816,217.240 176.776,217.317 C176.756,217.357 176.732,217.396 176.707,217.432 C175.213,219.560 174.001,221.042 173.247,221.531 C173.239,221.536 173.227,221.544 173.219,221.549 C175.550,223.814 177.894,225.482 179.478,225.085 C183.786,224.005 216.530,194.168 221.524,194.096 C226.518,194.024 247.253,208.647 247.253,208.647 C247.253,208.647 225.052,200.909 220.786,202.859 C216.520,204.809 181.093,235.012 174.048,233.878 C171.111,233.405 167.347,230.712 163.956,227.733 C161.760,229.135 159.298,230.649 156.661,232.158 C156.019,232.807 155.364,233.482 154.716,234.142 C158.925,238.888 165.005,245.338 166.480,244.766 C168.790,243.870 209.182,211.659 211.675,214.281 C214.169,216.903 223.312,248.106 223.312,248.106 C222.647,247.152 207.756,225.508 204.829,224.814 C201.901,224.121 165.061,257.419 160.773,255.696 C158.252,254.682 151.431,248.147 146.234,242.931 C143.784,245.509 141.332,248.112 138.907,250.719 C142.423,258.426 147.204,267.729 149.757,267.606 C154.107,267.396 193.146,232.460 197.464,235.217 C201.783,237.974 203.030,260.241 203.030,260.241 C203.030,260.241 194.032,245.412 192.035,245.595 C190.038,245.779 147.321,280.369 140.250,276.611 C136.955,274.859 132.823,267.968 129.349,261.109 C127.464,263.181 125.608,265.229 123.826,267.209 C122.611,268.902 121.551,270.700 120.652,272.584 C118.655,276.769 115.826,283.288 115.074,288.054 C115.162,287.572 117.181,281.872 130.229,278.454 C139.518,276.021 145.592,284.499 147.725,290.733 C148.037,291.641 146.951,292.385 146.217,291.767 C142.539,288.673 135.477,283.749 129.877,285.920 C122.790,288.669 116.648,294.110 115.088,302.723 C114.919,303.656 116.086,304.243 116.727,303.543 C119.446,300.577 123.846,296.545 131.805,294.470 C140.545,292.190 147.143,299.156 149.439,303.388 C149.878,304.198 149.032,305.098 148.200,304.703 C143.878,302.656 133.578,300.361 129.150,302.519 C123.633,305.207 111.644,310.319 120.303,324.082 C120.708,324.726 121.813,324.631 121.974,323.887 C123.405,317.228 131.848,308.531 142.926,308.714 C143.838,308.729 144.186,309.917 143.442,310.444 C138.997,313.584 125.688,320.538 129.689,332.662 C130.395,334.799 132.220,334.301 132.587,333.359 C134.628,328.118 143.802,315.447 154.392,312.915 C155.318,312.694 155.975,313.809 155.316,314.497 C151.235,318.759 142.799,328.893 147.632,335.467 C152.694,342.356 160.478,339.278 163.257,337.858 C163.781,337.590 163.940,336.930 163.600,336.451 C162.302,334.625 160.052,329.921 165.122,323.615 C165.711,322.883 166.913,323.383 166.804,324.316 C166.395,327.835 166.706,333.193 170.217,336.275 C170.455,336.485 170.796,336.547 171.102,336.460 C181.042,333.631 189.954,331.870 192.836,331.329 C193.605,331.184 194.385,331.158 195.159,331.274 C199.063,331.856 209.341,335.171 197.208,354.060 C197.208,354.060 187.124,372.318 151.533,386.638 C151.317,386.725 151.079,386.733 150.859,386.656 C149.047,386.021 140.538,382.632 137.415,374.073 C135.934,370.014 136.075,365.272 136.729,361.148 C136.810,360.642 136.486,360.161 135.983,360.061 C135.977,360.060 135.971,360.058 135.965,360.057 C135.492,359.963 135.016,360.230 134.870,360.689 C133.916,363.680 133.278,367.080 133.578,370.464 C134.364,379.293 139.439,385.983 143.613,389.378 C144.132,389.799 144.051,390.570 143.497,390.941 C125.583,402.927 98.974,400.193 86.919,398.292 C86.190,398.177 85.870,397.314 86.339,396.744 C89.020,393.489 95.807,384.837 95.745,380.770 C95.667,375.703 100.392,367.158 104.252,357.684 C105.557,354.482 107.628,351.016 109.800,347.828 C110.067,347.436 110.002,346.915 109.653,346.594 C108.962,345.959 108.290,345.311 107.636,344.654 C107.280,344.294 106.710,344.267 106.332,344.604 C101.626,348.804 96.616,354.089 94.226,359.253 C89.041,370.453 86.816,381.287 83.550,385.435 C80.742,388.999 75.420,393.545 73.978,394.752 C73.747,394.945 73.437,395.018 73.143,394.950 C41.812,387.645 29.255,355.976 25.305,342.705 C25.158,342.214 25.419,341.698 25.904,341.533 C30.273,340.050 50.302,332.889 62.313,322.465 C70.074,315.729 82.121,313.212 90.995,312.289 C91.467,312.240 91.818,311.858 91.838,311.384 C91.848,311.158 91.859,310.930 91.873,310.702 C91.905,310.174 91.518,309.707 90.989,309.677 C81.761,309.156 70.297,310.879 60.122,316.814 C46.423,324.805 23.909,329.620 19.550,329.737 C19.158,329.748 18.807,329.524 18.654,329.164 C14.655,319.739 8.836,301.304 14.047,283.787 C18.505,268.799 28.423,254.050 35.094,244.994 C35.465,244.490 36.216,244.481 36.601,244.974 C38.686,247.640 44.965,254.922 53.409,257.867 C62.026,260.873 79.205,270.451 92.619,284.381 C94.063,283.332 93.631,283.645 95.077,282.596 C90.606,274.278 83.795,263.736 76.416,259.985 C63.685,253.513 50.764,250.697 43.880,236.320 C43.737,236.022 43.755,235.666 43.930,235.387 C62.289,206.049 103.249,177.322 104.339,176.626 C104.357,176.615 104.371,176.605 104.387,176.593 C112.875,170.346 133.841,156.899 159.197,146.614 C192.382,133.153 262.588,120.698 305.761,100.999 C305.761,100.999 255.685,124.409 216.627,138.474 C216.579,138.492 216.531,138.504 216.480,138.514 ZM142.054,190.048 C136.905,190.246 130.976,189.884 126.288,187.944 C122.840,186.516 116.396,185.666 109.874,188.655 C104.143,191.282 91.049,205.543 87.958,208.962 C87.534,209.432 87.308,210.053 87.360,210.685 C87.859,216.775 90.319,222.957 92.295,227.071 C93.204,228.966 95.948,228.806 96.623,226.816 C99.560,218.156 105.323,201.407 106.453,199.911 C107.985,197.885 115.496,194.388 118.113,196.502 C119.802,197.866 122.939,202.546 124.952,205.693 C125.837,207.078 127.831,207.143 128.802,205.816 C130.438,203.578 132.822,200.633 134.902,199.282 C136.363,198.334 139.760,196.397 143.276,194.435 C145.424,193.235 144.513,189.953 142.054,190.048 ZM82.176,396.309 C82.176,396.309 82.912,396.529 84.057,396.832 C82.853,396.519 82.176,396.309 82.176,396.309 ZM209.943,340.019 C211.895,339.211 213.999,338.296 216.184,337.233 C218.365,336.166 220.656,334.997 222.947,333.635 C225.239,332.278 227.544,330.754 229.808,329.084 C232.064,327.404 234.224,325.510 236.275,323.517 C238.330,321.523 240.186,319.350 241.974,317.190 C243.728,315.002 245.331,312.758 246.781,310.530 C248.252,308.316 249.564,306.110 250.740,303.987 C251.929,301.872 252.995,299.843 253.921,297.945 C255.809,294.167 257.224,290.950 258.199,288.693 C259.149,286.423 259.692,285.127 259.692,285.127 C259.692,285.127 258.957,286.325 257.670,288.421 C256.404,290.522 254.596,293.523 252.429,297.120 C251.334,298.908 250.133,300.832 248.848,302.849 C247.545,304.856 246.143,306.947 244.643,309.068 C243.144,311.190 241.490,313.296 239.789,315.410 C238.043,317.483 236.236,319.567 234.249,321.461 C232.304,323.396 230.263,325.230 228.111,326.872 C225.988,328.548 223.809,330.097 221.624,331.491 C219.429,332.868 217.293,334.195 215.202,335.351 C213.108,336.500 211.125,337.596 209.258,338.545 C207.670,339.344 206.203,340.084 204.861,340.759 C205.092,338.359 204.730,336.270 203.771,334.504 C201.760,330.801 197.788,329.666 195.515,329.316 C216.399,303.029 266.954,264.499 269.154,263.194 C270.462,262.419 273.071,265.343 269.371,271.357 C271.155,272.503 273.531,271.175 274.293,274.216 C276.035,281.169 252.194,322.783 243.787,329.380 C237.274,334.492 213.482,346.049 201.605,350.467 C203.210,347.377 204.234,344.582 204.675,342.091 C206.258,341.502 208.028,340.815 209.943,340.019 ZM262.996,277.061 C264.496,275.377 265.628,273.868 266.350,272.769 C267.075,271.670 267.437,271.015 267.437,271.015 C267.437,271.015 266.886,271.522 265.928,272.406 C264.972,273.285 263.569,274.486 261.869,275.891 C261.023,276.599 260.069,277.326 259.091,278.128 C258.109,278.928 257.032,279.728 255.964,280.617 C254.887,281.506 253.774,282.425 252.643,283.359 C251.537,284.335 250.416,285.335 249.329,286.389 C248.256,287.454 247.212,288.567 246.238,289.697 C245.255,290.822 244.369,291.992 243.547,293.141 C242.715,294.284 241.959,295.420 241.287,296.521 C240.600,297.611 239.984,298.661 239.449,299.648 C238.351,301.603 237.541,303.287 236.984,304.472 C236.449,305.669 236.142,306.353 236.142,306.353 C236.142,306.353 236.631,305.785 237.485,304.790 C238.323,303.786 239.501,302.341 240.868,300.594 C241.558,299.727 242.303,298.788 243.090,297.797 C243.887,296.820 244.727,295.792 245.594,294.729 C246.468,293.675 247.411,292.629 248.354,291.559 C249.302,290.493 250.305,289.456 251.352,288.447 C252.371,287.414 253.442,286.416 254.503,285.436 C255.565,284.442 256.609,283.463 257.620,282.516 C258.647,281.579 259.593,280.611 260.508,279.707 C261.423,278.805 262.247,277.904 262.996,277.061 Z" class="cls-1"/><text x="0" y="515" fill="#000000" font-size="5px" font-weight="bold" font-family="'Helvetica Neue', Helvetica, Arial-Unicode, Arial, Sans-serif">Created by Jumbo Icons</text><text x="0" y="520" fill="#000000" font-size="5px" font-weight="bold" font-family="'Helvetica Neue', Helvetica, Arial-Unicode, Arial, Sans-serif">from the Noun Project</text></svg>