<svg xmlns="http://www.w3.org/2000/svg" data-name="Layer 1" viewBox="0 0 100 125" x="0px" y="0px"><title>fc</title><path d="M50,100A50,50,0,1,0,0,50,50,50,0,0,0,50,100ZM50,3.12A46.88,46.88,0,1,1,3.11,50,46.94,46.94,0,0,1,50,3.12Z"/><path d="M88.81,50a1.56,1.56,0,0,0-1.56-1.57H12.76a1.56,1.56,0,0,0,0,3.13H87.24A1.56,1.56,0,0,0,88.81,50Z"/><text x="0" y="115" fill="#000000" font-size="5px" font-weight="bold" font-family="'Helvetica Neue', Helvetica, Arial-Unicode, Arial, Sans-serif">Created by Dániel Aczél</text><text x="0" y="120" fill="#000000" font-size="5px" font-weight="bold" font-family="'Helvetica Neue', Helvetica, Arial-Unicode, Arial, Sans-serif">from the Noun Project</text></svg>