<svg xmlns="http://www.w3.org/2000/svg" xmlns:xlink="http://www.w3.org/1999/xlink" version="1.1" x="0px" y="0px" viewBox="0 0 100 125" style="enable-background:new 0 0 100 100;" xml:space="preserve">
<path class="stroke" d="M38.1873,31.3605c4.5603,0,8.2703-3.71,8.2703-8.2703c0-4.5604-3.71-8.2703-8.2703-8.2703  c-4.5604,0-8.2703,3.7099-8.2703,8.2703C29.917,27.6506,33.6269,31.3605,38.1873,31.3605z M38.1873,19.6849  c1.8775,0,3.4054,1.5278,3.4054,3.4054c0,1.8775-1.5279,3.4054-3.4054,3.4054c-1.8776,0-3.4054-1.5279-3.4054-3.4054  C34.7819,21.2127,36.3097,19.6849,38.1873,19.6849z"/>
<path class="stroke" d="M52.5699,42.3696c0,4.5604,3.71,8.2703,8.2703,8.2703c4.5604,0,8.2703-3.71,8.2703-8.2703  c0-4.5603-3.7099-8.2703-8.2703-8.2703C56.2799,34.0994,52.5699,37.8093,52.5699,42.3696z M60.8402,38.9642  c1.8776,0,3.4054,1.5279,3.4054,3.4054c0,1.8776-1.5278,3.4055-3.4054,3.4055c-1.8775,0-3.4054-1.5279-3.4054-3.4055  C57.4348,40.4921,58.9627,38.9642,60.8402,38.9642z"/>
<rect x="30.6531" y="30.2977" transform="matrix(0.4472 -0.8944 0.8944 0.4472 -1.9038 62.3794)" width="37.7213" height="4.8646"/>
<path class="stroke" d="M94.5798,48.8113c-0.3369-0.9835-1.2618-1.6443-2.3013-1.6443H80.1339V23.0903H75.269v26.5092  c0,1.3436,1.0889,2.4324,2.4324,2.4324h7.4764L49.5313,79.7023L14.6948,52.0319h7.6042c1.3435,0,2.4324-1.0889,2.4324-2.4324  V15.8604h-4.8649v31.3066H7.7215c-1.0347,0-1.9559,0.6542-2.2966,1.6315c-0.3411,0.9767-0.0266,2.0623,0.7839,2.7056  l41.7927,33.1956c0.4428,0.3516,0.9772,0.5278,1.5127,0.5278c0.5259,0,1.0523-0.17,1.4918-0.5112l42.7637-33.1956  C94.5912,50.8837,94.9166,49.7947,94.5798,48.8113z"/>
</svg>