<svg xmlns="http://www.w3.org/2000/svg" viewBox="0 0 89.87 112.3375" x="0px" y="0px"><title>Circle</title><g data-name="Layer 2"><path d="M78.56,22.63a3.12,3.12,0,0,1-2.3-1A38.74,38.74,0,0,0,68,14.91a3.14,3.14,0,1,1,3.27-5.36,45.08,45.08,0,0,1,9.55,7.81,3.14,3.14,0,0,1-2.3,5.27Zm14.31,25.3A45,45,0,0,0,87.38,26.4a3.14,3.14,0,1,0-5.51,3A38.67,38.67,0,0,1,47.93,86.59a38.19,38.19,0,0,1-17.41-4.14,3.14,3.14,0,0,0-2.83,5.61,44.46,44.46,0,0,0,20.24,4.81A45,45,0,0,0,92.87,47.93ZM20.6,79.71a3.13,3.13,0,0,0,0-4.44,38.66,38.66,0,0,1,27.33-66,38.88,38.88,0,0,1,10.75,1.51,3.14,3.14,0,0,0,1.74-6A44.94,44.94,0,0,0,16.16,79.71a3.14,3.14,0,0,0,4.44,0Z" transform="translate(-3 -3)"/></g><text x="0" y="104.87" fill="#000000" font-size="5px" font-weight="bold" font-family="'Helvetica Neue', Helvetica, Arial-Unicode, Arial, Sans-serif">Created by Wara's</text><text x="0" y="109.87" fill="#000000" font-size="5px" font-weight="bold" font-family="'Helvetica Neue', Helvetica, Arial-Unicode, Arial, Sans-serif">from the Noun Project</text></svg>