<svg xmlns="http://www.w3.org/2000/svg" xmlns:xlink="http://www.w3.org/1999/xlink" version="1.1" x="0px" y="0px" viewBox="0 0 100 125" enable-background="new 0 0 100 100" xml:space="preserve"><path fill="#000000" d="M90.2,33c-0.3-1.4-2.1-1.8-2.9-0.6c-6.2,8.1-12.4,2.9-17.4,7.9c-5,5-3.9,10.4-2.3,16.5  c-3.3,3.2-7.9,8.5-11.4,15.8V45.2c0-1.8,1.5-3.3,3.3-3.3c1.2,0,2.2-1,2.2-2.2l0-32.6c0-1.4-1.2-2.5-2.6-2.3C57.9,5,57,6.1,57,7.3  v22.4c0,1-0.8,1.8-1.8,1.8s-1.8-0.8-1.8-1.8V7.1c0-1.2-0.9-2.4-2.1-2.5c-1.4-0.1-2.6,1-2.6,2.3v22.8c0,1-0.8,1.8-1.8,1.8h0  c-1,0-1.8-0.8-1.8-1.8V6.9c0-1.2-0.9-2.4-2.1-2.5c-1.4-0.1-2.6,1-2.6,2.3v32.9c0,1.2,1,2.2,2.2,2.2h0.5c1.8,0,3.3,1.5,3.3,3.3v27  c-3.8-7.8-8.8-13.3-12.1-16.3c1.4-5.7,2.2-10.8-2.6-15.6c-5-5-9.8-3.1-17.3-7.9c-1.2-0.8-2.6-0.7-2.9,0.6c-1.4,6.6-0.8,17.4,3.8,22  c4.9,4.9,9.9,5.6,15.8,4.4c4.6,4.3,15.2,20.7,15.2,31.5c0,2.7,2.2,4.9,4.9,4.9c2.7,0,4.9-2.2,4.9-4.9c0-10.5,10.5-26.8,15.2-31.3  c5.6,1,10.4,0.2,15.1-4.5C91.1,50.5,91.6,39.7,90.2,33z"/><text x="0" y="115" fill="#000000" font-size="5px" font-weight="bold" font-family="'Helvetica Neue', Helvetica, Arial-Unicode, Arial, Sans-serif">Created by HeadsOfBirds</text><text x="0" y="120" fill="#000000" font-size="5px" font-weight="bold" font-family="'Helvetica Neue', Helvetica, Arial-Unicode, Arial, Sans-serif">from the Noun Project</text></svg>