<svg xmlns="http://www.w3.org/2000/svg" xmlns:xlink="http://www.w3.org/1999/xlink" version="1.1" x="0px" y="0px" viewBox="0 0 200 250" style="enable-background:new 0 0 200 200;" xml:space="preserve"><style type="text/css">
	.st0{fill:none;stroke:#000000;stroke-width:1.5;stroke-linecap:round;stroke-linejoin:round;stroke-miterlimit:10;}
</style><line class="st0" x1="112.2" y1="107.1" x2="88.1" y2="107.1"/><line class="st0" x1="112.2" y1="100.6" x2="88.1" y2="100.6"/><polyline class="st0" points="82,110.8 82,72.5 118.3,72.5 118.3,110.8 "/><path class="st0" d="M100.1,89.9L100.1,89.9c-2.2,0-3.9-1.8-3.9-3.9l0,0c0-2.2,1.8-3.9,3.9-3.9h3.9V86  C104.1,88.2,102.3,89.9,100.1,89.9z"/><path class="st0" d="M104.1,84.5v3.1c0,1.4,1.1,2.5,2.5,2.5l0,0c1.4,0,2.5-1.1,2.5-2.5v-2.7c0-2.4-1.2-4.6-3.1-5.9  c-7.1-4.7-14.6,0.3-14.6,7c0,4.9,4,8.9,8.9,8.9"/><path class="st0" d="M75.2,107.7l22.9,10.5c1.3,0.6,2.8,0.6,4.1,0l22.9-10.5l-6.8-4"/><path class="st0" d="M125,107.7v18.1c0,1-0.8,1.8-1.8,1.8H76.9c-1,0-1.8-0.8-1.8-1.8v-18.1l6.8-4"/></svg>