<svg xmlns="http://www.w3.org/2000/svg" data-name="Layer 1" viewBox="0 0 128 160" x="0px" y="0px"><title>Artboard 19</title><path d="M88.87,37.2c-.09-.12-8.66-11.4-9.75-21.21A2,2,0,0,0,79,12H76A6,6,0,0,0,76,0H52a6,6,0,0,0,0,12H49a2,2,0,0,0-.12,4c-1.1,9.8-9.66,21.09-9.75,21.21l-.08.11c-4,6-6.06,19.33-6.06,29.44V110a18,18,0,0,0,18,18H77a18,18,0,0,0,18-18V66.74c0-10.11-2.08-23.47-6.06-29.44ZM50,6a2,2,0,0,1,2-2H76a2,2,0,0,1,0,4H52A2,2,0,0,1,50,6ZM77,124H51a14,14,0,0,1-14-14V79a22.43,22.43,0,0,1,7-3.19c6.23-1.63,12.43-.44,18.43,3.55a2,2,0,0,0,.43.4A27.31,27.31,0,0,0,78.54,85,26.55,26.55,0,0,0,91,81.75V110A14,14,0,0,1,77,124ZM91,77.11a22.43,22.43,0,0,1-7,3.19c-6.23,1.63-12.43.44-18.43-3.55a2,2,0,0,0-.43-.4C52.93,68,42.19,71.57,37,74.36V66.74c0-9.25,1.88-21.89,5.35-27.17.8-1,9.53-12.78,10.55-23.57H75.1c1,10.79,9.75,22.52,10.55,23.57C89.13,44.85,91,57.5,91,66.74Z"/><text x="0" y="143" fill="#000000" font-size="5px" font-weight="bold" font-family="'Helvetica Neue', Helvetica, Arial-Unicode, Arial, Sans-serif">Created by Juraj Sedlák</text><text x="0" y="148" fill="#000000" font-size="5px" font-weight="bold" font-family="'Helvetica Neue', Helvetica, Arial-Unicode, Arial, Sans-serif">from the Noun Project</text></svg>