<svg xmlns:x="http://ns.adobe.com/Extensibility/1.0/" xmlns:i="http://ns.adobe.com/AdobeIllustrator/10.0/" xmlns:graph="http://ns.adobe.com/Graphs/1.0/" xmlns="http://www.w3.org/2000/svg" xmlns:xlink="http://www.w3.org/1999/xlink" version="1.1" x="0px" y="0px" viewBox="0 0 64 80" enable-background="new 0 0 64 64" xml:space="preserve"><metadata><sfw xmlns="http://ns.adobe.com/SaveForWeb/1.0/"><slices/><sliceSourceBounds y="-8160" x="-8165" width="16389" height="16384" bottomLeftOrigin="true"/></sfw></metadata><g><g><path d="M53.967,26.308c-0.215,0-0.596-0.284-0.657-0.49c-0.019-0.063-0.041-0.125-0.066-0.187l-1.704-4.145    c-0.028-0.069-0.06-0.135-0.096-0.2c-0.101-0.185-0.034-0.645,0.139-0.817c1.558-1.559,1.558-4.097-0.001-5.656l-2.392-2.393    c-1.508-1.509-4.127-1.533-5.682,0.023c-0.066,0.067-0.275,0.161-0.529,0.161c-0.14,0-0.232-0.03-0.265-0.048    c-0.064-0.036-0.132-0.067-0.199-0.095l-4.146-1.704c-0.062-0.025-0.124-0.047-0.188-0.066c-0.206-0.062-0.489-0.442-0.489-0.69    c0-2.206-1.794-4-4-4h-3.385c-2.206,0-4,1.794-4,4.034c0,0.215-0.283,0.595-0.489,0.657c-0.063,0.019-0.126,0.041-0.188,0.066    l-4.145,1.704c-0.068,0.028-0.135,0.06-0.199,0.095c-0.033,0.018-0.125,0.048-0.265,0.048c-0.254,0-0.462-0.095-0.552-0.184    c-0.754-0.755-1.759-1.17-2.829-1.17s-2.074,0.416-2.828,1.169l-2.394,2.394c-0.754,0.754-1.169,1.758-1.169,2.828    c0,1.07,0.416,2.075,1.192,2.851c0.149,0.149,0.215,0.609,0.113,0.795c-0.035,0.064-0.067,0.131-0.095,0.199l-1.704,4.145    c-0.025,0.062-0.048,0.124-0.066,0.188c-0.062,0.206-0.442,0.489-0.69,0.489c-2.206,0-4,1.794-4,4v3.385c0,2.206,1.794,4,4.034,4    c0.215,0,0.595,0.283,0.657,0.489c0.019,0.063,0.041,0.126,0.066,0.188l1.704,4.146c0.028,0.067,0.06,0.135,0.095,0.199    c0.101,0.186,0.036,0.646-0.137,0.817c-0.754,0.754-1.17,1.759-1.169,2.829c0,1.07,0.416,2.075,1.169,2.828l2.394,2.394    c0.754,0.753,1.758,1.168,2.828,1.168c1.069,0,2.074-0.415,2.851-1.191c0.067-0.067,0.277-0.163,0.531-0.163    c0.139,0,0.231,0.03,0.263,0.048c0.065,0.036,0.131,0.067,0.2,0.096l4.145,1.704c0.061,0.025,0.124,0.048,0.187,0.066    c0.206,0.062,0.49,0.442,0.49,0.69c0,2.206,1.794,4,4,4h3.385c2.206,0,4-1.794,4-4.033c0-0.215,0.283-0.596,0.489-0.657    c0.063-0.019,0.126-0.041,0.188-0.066l4.145-1.704c0.068-0.028,0.135-0.06,0.2-0.096c0.032-0.018,0.124-0.048,0.263-0.048    c0.255,0,0.464,0.095,0.556,0.186c0.754,0.754,1.758,1.169,2.828,1.169s2.074-0.415,2.828-1.169l2.393-2.393    c0.754-0.754,1.169-1.758,1.169-2.828s-0.415-2.074-1.192-2.853c-0.149-0.149-0.215-0.609-0.114-0.794    c0.036-0.065,0.067-0.132,0.096-0.2l1.704-4.145c0.025-0.062,0.048-0.124,0.066-0.188c0.062-0.206,0.442-0.489,0.69-0.489    c2.206,0,4-1.794,4-4v-3.385C58,28.102,56.206,26.308,53.967,26.308z M53.967,33.692c-1.95,0-3.844,1.382-4.454,3.232    l-1.638,3.981c-0.883,1.738-0.525,4.05,0.878,5.454l-2.417,2.369c-0.848-0.848-2.071-1.334-3.359-1.334    c-0.738,0-1.451,0.166-2.069,0.479l-3.982,1.638c-1.85,0.609-3.231,2.503-3.238,4.487l-3.379-0.033    c0-1.95-1.382-3.844-3.232-4.454l-3.982-1.638c-0.619-0.313-1.331-0.479-2.07-0.479c-1.287,0-2.511,0.486-3.382,1.357    l-2.371-2.415c1.38-1.38,1.737-3.691,0.855-5.43l-1.637-3.983c-0.61-1.851-2.504-3.232-4.488-3.232l0.034-3.385    c1.951,0,3.844-1.382,4.454-3.233l1.637-3.982c0.882-1.738,0.524-4.05-0.877-5.451l2.416-2.372    c0.847,0.848,2.072,1.334,3.359,1.334c0.739,0,1.452-0.166,2.07-0.479l3.982-1.637c1.851-0.61,3.233-2.504,3.233-4.488    l3.385,0.034c0,1.951,1.382,3.844,3.232,4.454l3.983,1.638c0.618,0.313,1.331,0.479,2.07,0.479c1.288,0,2.512-0.486,3.382-1.356    l2.368,2.417c-1.379,1.38-1.735,3.691-0.854,5.428l1.638,3.982c0.61,1.851,2.504,3.232,4.487,3.232L53.967,33.692z"/><path d="M32,16c-8.822,0-16,7.178-16,16s7.178,16,16,16s16-7.178,16-16S40.822,16,32,16z M32,44c-6.617,0-12-5.383-12-12    c0-6.617,5.383-12,12-12c6.617,0,12,5.383,12,12C44,38.617,38.617,44,32,44z"/><path d="M32,26c-3.309,0-6,2.691-6,6s2.691,6,6,6s6-2.691,6-6S35.309,26,32,26z M32,34c-1.103,0-2-0.897-2-2c0-1.103,0.897-2,2-2    c1.103,0,2,0.897,2,2C34,33.103,33.103,34,32,34z"/></g></g><text x="0" y="79" fill="#000000" font-size="5px" font-weight="bold" font-family="'Helvetica Neue', Helvetica, Arial-Unicode, Arial, Sans-serif">Created by Ralf Schmitzer</text><text x="0" y="84" fill="#000000" font-size="5px" font-weight="bold" font-family="'Helvetica Neue', Helvetica, Arial-Unicode, Arial, Sans-serif">from the Noun Project</text></svg>