<svg xmlns="http://www.w3.org/2000/svg" xmlns:xlink="http://www.w3.org/1999/xlink" version="1.1" x="0px" y="0px" viewBox="0 0 145 181.25" enable-background="new 0 0 145 145" xml:space="preserve"><path d="M99.6,102.5c0.9-2.3,1.8-4.8,2.7-7.6c0.1,0,0.1,0.1,0.2,0.1c1.8,0.6,4.5-3,6.6-10c2-7,1.7-13.9-0.9-14.7  c-0.6-0.2-1.3-0.1-1.9,0.4c0.9-30.3-8.6-49.1-33.8-48.4v0c0,0-0.1,0-0.1,0c0,0-0.1,0-0.1,0v0c-27.7-0.3-34.9,17.2-33.9,48  c-0.1,0-0.2,0-0.3,0.1C35.3,71.1,35,78,37,85c1.5,5.4,3.5,8.7,5.2,9.8c0.9,2.8,1.8,5.4,2.7,7.8c0.9,2.4,15.1,19.2,19.4,19.2  c2,0,5.3,0.7,8.1,0.5c2.8,0.2,5.9-0.5,7.9-0.5C84.5,121.7,98.6,104.9,99.6,102.5z M86.1,91.8c-1.3-2.1-5.6-4-11.1-4  c-0.1,0-1.9,1.4-2,1.3c-0.2-0.1-1.9-1.3-1.9-1.3c-5.5,0-9.9,1.9-11.2,4c-2.1,4.4-3.9,6.6-5.4,7.5C49.8,93,46,83.9,43.8,71.7  c-0.4-2.1-0.6-4.1-0.7-6c1.4-5.5,2.9-9.7,3.8-13.8c18,0,33.9-5.2,43.6-13.1c2.2,2.5,5.2,6.4,7.1,11.4c2.2,5.8,3.2,18.4,3.7,26.5  c-2.3,9.7-5.6,17.2-9.6,22.6C90,98.4,88.2,96.2,86.1,91.8z M79.6,95.9c0,2.3-1.9,4.1-4.3,4.1h-4.8c-2.4,0-4.3-1.8-4.3-4.1  c0-0.3,0-0.6,0.1-0.9h13.1C79.6,95.3,79.6,95.6,79.6,95.9z"/><text x="0" y="160" fill="#000000" font-size="5px" font-weight="bold" font-family="'Helvetica Neue', Helvetica, Arial-Unicode, Arial, Sans-serif">Created by icons.design</text><text x="0" y="165" fill="#000000" font-size="5px" font-weight="bold" font-family="'Helvetica Neue', Helvetica, Arial-Unicode, Arial, Sans-serif">from the Noun Project</text></svg>