<svg xmlns="http://www.w3.org/2000/svg" xmlns:xlink="http://www.w3.org/1999/xlink" version="1.1" x="0px" y="0px" viewBox="7.5 7.5 50 62.5" enable-background="new 7.5 7.5 50 50" xml:space="preserve"><path d="M32.5,7.5c-13.785,0-25,11.215-25,25s11.215,25,25,25s25-11.215,25-25S46.285,7.5,32.5,7.5z M32.5,56.5  c-13.233,0-24-10.767-24-24s10.767-24,24-24s24,10.767,24,24S45.733,56.5,32.5,56.5z"/><path d="M43.809,38.621c-6.764,4.757-15.853,4.756-22.617,0c-0.227-0.159-0.538-0.104-0.697,0.122  c-0.159,0.226-0.104,0.537,0.122,0.696c3.554,2.498,7.719,3.747,11.883,3.747c4.165,0,8.329-1.249,11.883-3.747  c0.227-0.159,0.28-0.471,0.122-0.696C44.346,38.518,44.032,38.463,43.809,38.621z"/><path d="M24.939,24.024c0.223,0.162,0.535,0.113,0.698-0.11c0.163-0.223,0.113-0.536-0.11-0.698c-2.601-1.891-6.096-1.891-8.696,0  c-0.223,0.162-0.273,0.475-0.11,0.698c0.098,0.135,0.25,0.206,0.405,0.206c0.102,0,0.205-0.031,0.293-0.096  C19.668,22.39,22.69,22.39,24.939,24.024z"/><path d="M39.472,23.216c-0.224,0.162-0.272,0.475-0.11,0.698c0.162,0.224,0.476,0.271,0.698,0.11c2.25-1.635,5.271-1.635,7.521,0  c0.089,0.064,0.191,0.096,0.294,0.096c0.154,0,0.307-0.071,0.404-0.206c0.162-0.223,0.113-0.536-0.11-0.698  C45.567,21.324,42.073,21.324,39.472,23.216z"/><text x="7.5" y="72.5" fill="#000000" font-size="5px" font-weight="bold" font-family="'Helvetica Neue', Helvetica, Arial-Unicode, Arial, Sans-serif">Created by Mohamed Mb</text><text x="7.5" y="77.5" fill="#000000" font-size="5px" font-weight="bold" font-family="'Helvetica Neue', Helvetica, Arial-Unicode, Arial, Sans-serif">from the Noun Project</text></svg>