<svg xmlns="http://www.w3.org/2000/svg" xmlns:xlink="http://www.w3.org/1999/xlink" xml:space="preserve" version="1.1" style="shape-rendering:geometricPrecision;text-rendering:geometricPrecision;image-rendering:optimizeQuality;" viewBox="0 0 60000 75000" x="0px" y="0px" fill-rule="evenodd" clip-rule="evenodd"><defs><style type="text/css">
   
    .fil0 {fill:black;fill-rule:nonzero}
   
  </style></defs><g><path class="fil0" d="M30000 4412c7066,0 13463,2864 18094,7495 4631,4631 7495,11028 7495,18094 0,7066 -2864,13463 -7495,18094 -4631,4631 -11028,7495 -18094,7495 -7066,0 -13463,-2864 -18094,-7495 -4631,-4631 -7495,-11028 -7495,-18094 0,-7066 2864,-13463 7495,-18094 4631,-4631 11028,-7495 18094,-7495zm13965 10305c120,185 67,432 -117,552 -185,120 -432,67 -552,-117l-2451 -3753 -4477 -246c-220,-12 -389,-200 -377,-420 12,-220 200,-389 420,-377l4679 257 0 0c123,7 240,70 313,181l2562 3923zm5771 9029c12,220 -157,408 -377,420 -220,12 -408,-157 -420,-377l-246 -4477 -3753 -2451c-185,-120 -237,-367 -117,-552 120,-185 367,-237 552,-117l3910 2553c110,66 187,183 194,321l257 4679zm483 10705c-99,197 -339,276 -536,177 -197,-99 -276,-339 -177,-536l2026 -4001 -2026 -4001c-99,-197 -20,-437 177,-536 197,-99 437,-20 536,177l2116 4180c55,109 60,243 0,360l-2117 4180zm-4936 9514c-185,120 -432,67 -552,-117 -120,-185 -67,-432 117,-552l3753 -2451 246 -4477c12,-220 200,-389 420,-377 220,12 389,200 377,420l-257 4679 0 0c-7,123 -70,240 -181,313l-3923 2562zm-9029 5771c-220,12 -408,-157 -420,-377 -12,-220 157,-408 377,-420l4477 -246 2451 -3753c120,-185 367,-237 552,-117 185,120 237,367 117,552l-2553 3910c-66,110 -183,187 -321,194l-4679 257zm-10705 483c-197,-99 -276,-339 -177,-536 99,-197 339,-276 536,-177l4001 2026 4001 -2026c197,-99 437,-20 536,177 99,197 20,437 -177,536l-4180 2116c-109,55 -243,60 -360,0l-4180 -2117zm-9514 -4936c-120,-185 -67,-432 117,-552 185,-120 432,-67 552,117l2451 3753 4477 246c220,12 389,200 377,420 -12,220 -200,389 -420,377l-4679 -257 0 0c-123,-7 -240,-70 -313,-181l-2562 -3923zm-5771 -9029c-12,-220 157,-408 377,-420 220,-12 408,157 420,377l246 4477 3753 2451c185,120 237,367 117,552 -120,185 -367,237 -552,117l-3910 -2553c-110,-66 -187,-183 -194,-321l-257 -4679zm-483 -10705c99,-197 339,-276 536,-177 197,99 276,339 177,536l-2026 4001 2026 4001c99,197 20,437 -177,536 -197,99 -437,20 -536,-177l-2116 -4180c-55,-109 -60,-243 0,-360l2117 -4180zm4936 -9514c185,-120 432,-67 552,117 120,185 67,432 -117,552l-3753 2451 -246 4477c-12,220 -200,389 -420,377 -220,-12 -389,-200 -377,-420l257 -4679 0 0c7,-123 70,-240 181,-313l3923 -2562zm9029 -5771c220,-12 408,157 420,377 12,220 -157,408 -377,420l-4477 246 -2451 3753c-120,185 -367,237 -552,117 -185,-120 -237,-367 -117,-552l2553 -3910c66,-110 183,-187 321,-194l4679 -257zm10705 -483c197,99 276,339 177,536 -99,197 -339,276 -536,177l-4001 -2026 -4001 2026c-197,99 -437,20 -536,-177 -99,-197 -20,-437 177,-536l4180 -2116c109,-55 243,-60 360,0l4180 2117zm-4451 -3393c6520,0 12424,2643 16697,6916 4273,4273 6916,10176 6916,16697 0,6520 -2643,12424 -6916,16697 -4273,4273 -10176,6916 -16697,6916 -6520,0 -12424,-2643 -16697,-6916 -4273,-4273 -6916,-10176 -6916,-16697 0,-6520 2643,-12424 6916,-16697 4273,-4273 10176,-6916 16697,-6916zm16131 7482c-4128,-4128 -9832,-6682 -16131,-6682 -6300,0 -12003,2553 -16131,6682 -4128,4128 -6682,9832 -6682,16131 0,6300 2553,12003 6682,16131 4128,4128 9832,6682 16131,6682 6300,0 12003,-2553 16131,-6682 4128,-4128 6682,-9832 6682,-16131 0,-6300 -2553,-12003 -6682,-16131zm1397 -1397c-4486,-4486 -10683,-7260 -17528,-7260 -6845,0 -13042,2775 -17528,7260 -4486,4486 -7260,10683 -7260,17528 0,6845 2775,13042 7260,17528 4486,4486 10683,7260 17528,7260 6845,0 13042,-2775 17528,-7260 4486,-4486 7260,-10683 7260,-17528 0,-6845 -2775,-13042 -7260,-17528z"/></g><text x="0" y="60015" fill="#000000" font-size="5px" font-weight="bold" font-family="'Helvetica Neue', Helvetica, Arial-Unicode, Arial, Sans-serif">Created by Olena Panasovska</text><text x="0" y="60020" fill="#000000" font-size="5px" font-weight="bold" font-family="'Helvetica Neue', Helvetica, Arial-Unicode, Arial, Sans-serif">from the Noun Project</text></svg>