<svg xmlns="http://www.w3.org/2000/svg" xmlns:xlink="http://www.w3.org/1999/xlink" version="1.1" x="0px" y="0px" viewBox="0 0 2048 2560" style="enable-background:new 0 0 2048 2048;" xml:space="preserve">
<g>
<path class="fill" d="M1630.8,830.4c2.9,4.5,5.2,9.2,7.2,14.1c8.6,21.9,9.8,50.1,9.8,83.3v212.7c0,34.1,19.2,56.2,43.9,66.1   c9.1,3.7,18.8,5.5,28.2,5.5c9.5,0,19.2-1.8,28.3-5.5c24.6-9.8,43.8-31.9,43.8-66.1V927.8c0-106.2-28.3-178.7-83-225.6   c-53.7-46.1-130.8-65-229.8-65v0.1l-5.1,0c-91.2,0-159.7,0-236.7,72.2c-28.1,26.4-39.8,57.1-52.2,89.8c-4.6,12.1-9.3,24.5-15,36.5   l-112.5,15.2c-38.2,0.6-62.9,20-74.3,44.7c-4.6,10-6.8,20.8-6.8,31.7c0,10.8,2.4,21.7,6.9,31.6c11.7,25.5,37.3,45.6,76,45.6   c1.2,0,2.4-0.1,3.5-0.2l0,0.1c13.4-1.6-15.3,1.2,5.6-0.8c48.4-4.4,113-10.4,150.6-16.8c21.5-3.6,38.9-8.7,53.7-20.1   c16-12.4,26.2-29.9,31.2-57.2c0.1-0.6,0.2-1.3,0.3-1.9l0.1,0c1.8-16,6.5-35.4,14.5-53.9l-0.1,726h-0.1c0,19.9,8.1,37.9,21.1,51   c13,13,31.1,21.1,51,21.1c19.9,0,37.9-8.1,51-21.1c13.1-13.1,21.1-31.1,21.1-51v-362.8c4,0.3,7.9,0.4,11.9,0.4s7.9-0.1,11.9-0.4   v362.8c0,19.9,8.1,37.9,21.1,51c13,13,31.1,21.1,51,21.1c19.9,0,37.9-8.1,51-21.1c13.1-13.1,21.1-31.1,21.1-51h-0.1L1630.8,830.4   L1630.8,830.4z M1694,822.6c-13-33.1-36.4-60.2-78.9-81.3c-4.2-2.3-9.1-3.6-14.2-3.6c-16.6,0-30,13.4-30,30l0.1,812h-0.1   c0,3.3-1.3,6.2-3.5,8.4c-2.1,2.1-5.1,3.5-8.4,3.5c-3.3,0-6.2-1.3-8.4-3.5c-2.1-2.1-3.5-5.1-3.5-8.4v-398.5h-0.1   c0-2.8-0.4-5.6-1.2-8.5c-4.7-15.9-21.4-25-37.3-20.4c-5.2,1.5-10.7,2.7-16.4,3.5c-5.3,0.8-11,1.1-17.1,1.1s-11.8-0.4-17.1-1.1   c-5-0.7-9.9-1.7-14.5-3c-3.2-1.2-6.7-1.8-10.4-1.8c-16.6,0-30.1,13.5-30.1,30.1v398.5c0,3.3-1.3,6.2-3.5,8.4   c-2.1,2.1-5.1,3.5-8.4,3.5s-6.2-1.3-8.4-3.5c-2.1-2.1-3.5-5.1-3.5-8.4h-0.1l0.1-805.2h0c0-4.4-1-8.9-3.1-13.2   c-7.3-14.9-25.2-21-40.1-13.8c-26.8,13.2-46.8,35.3-61.2,60.4c-17.4,30.3-26.8,65.3-29.9,92.7c-2,9.9-4.8,15.5-8.5,18.5   c-5.1,4-14.4,6.3-26.9,8.4c-36.8,6.2-99.3,12-146.1,16.3c-23.3,2.1,3.2-0.5-5.8,0.6c-10.4-0.5-16.8-4.9-19.3-10.4   c-1-2.2-1.5-4.4-1.5-6.7c0-2.2,0.5-4.5,1.4-6.5c2.5-5.5,9.5-9.7,21.6-9.7v0c1.2,0,2.4-0.1,3.6-0.2l130-17.4l0-0.1   c9.2-1.1,17.8-6.5,22.6-15.2c11.2-20,18.5-39.3,25.5-57.8c9.8-25.9,19.1-50.2,37.2-67.2c59.7-56,118-56,195.5-56l5.1,0v0.1   c84.8,0,149.1,14.7,190.7,50.5c40.7,35,61.8,92.7,61.8,180v212.7c0,5.6-2.6,9-5.9,10.3c-1.7,0.7-3.7,1-6,1c-2.3,0-4.4-0.3-6.1-1   c-3.2-1.3-5.8-4.7-5.8-10.3V927.8C1708,888.3,1706.2,853.9,1694,822.6L1694,822.6z M1475,386.9c-31.5,0-60,12.8-80.7,33.4   c-20.6,20.6-33.4,49.2-33.4,80.7c0,31.5,12.8,60,33.4,80.7c20.6,20.6,49.2,33.4,80.7,33.4s60-12.8,80.7-33.4   c20.6-20.6,33.4-49.2,33.4-80.7c0-31.5-12.8-60-33.4-80.7C1535,399.7,1506.5,386.9,1475,386.9L1475,386.9z M1436.9,462.9   c9.7-9.7,23.2-15.8,38.1-15.8s28.3,6,38.1,15.8c9.7,9.7,15.8,23.2,15.8,38.1c0,14.9-6,28.3-15.8,38.1c-9.7,9.7-23.2,15.8-38.1,15.8   s-28.3-6-38.1-15.8c-9.7-9.7-15.8-23.2-15.8-38.1C1421.1,486.1,1427.2,472.7,1436.9,462.9z"/>
<path class="fill" d="M1026.2,851.7c1.8,17.5,17.5,30.3,35,28.5s30.3-17.5,28.5-35l-19.6-191.8c-1.8-17.5-17.5-30.3-35-28.5   c-17.5,1.8-30.3,17.5-28.5,35L1026.2,851.7z"/>
<path class="fill" d="M808.6,450.3l399.1-36.9c16.5-1.5,31.1,10.7,32.6,27.2l17.6,190.6c1.5,16.5-10.7,31.1-27.2,32.6l-399.1,36.9   c-16.5,1.5-31.1-10.7-32.6-27.2l-17.6-190.6C779.9,466.4,792.1,451.8,808.6,450.3L808.6,450.3z M1183.3,475.9l-339.4,31.4   L856,638.2l339.4-31.4L1183.3,475.9L1183.3,475.9z"/>
<path class="fill" d="M766.1,1618.5c0,20.1-8.1,38.3-21.3,51.4c-13.2,13.2-31.4,21.3-51.4,21.3c-20.1,0-38.3-8.1-51.4-21.3   c-13.2-13.2-21.3-31.4-21.3-51.4v-348c-3.4-0.2-6.9-0.3-10.4-0.3c-4.9,0-9.8,0.2-14.6,0.4v347.8c0,20.1-8.1,38.3-21.3,51.4   c-13.2,13.2-31.4,21.3-51.4,21.3c-20.1,0-38.3-8.1-51.4-21.3c-13.2-13.2-21.3-31.4-21.3-51.4V874.3c-11.9-4.8-23.3-10.5-34.2-16.8   c-17.7-10.3-34-22.5-48.6-36.2c-84.4-79.2-94.8-203.4-104.6-320.3c-2-23.9-4-47.5-6.3-68.2c-0.1-1.1-0.2-2.2-0.2-3.3H256   c0-19.8,7.8-37.8,20.5-51c12.9-13.5,30.9-21.8,50.7-21.8c19.8,0,37.7,8.3,50.7,21.8c12.4,12.9,20.1,30.4,20.5,49.7   c1.9,16.7,3.3,32.5,4.7,49.4c7.5,85.3,17.2,196.6,60.2,236.9c9,8.4,19.3,15.6,30.6,21.1c8,3.9,16.6,7.1,25.7,9.3   c11-6.5,23-11.7,35.8-15.6c16.7-5.1,34.5-7.9,52.8-7.9c18.3,0,36.1,2.8,52.8,7.9c12.7,3.9,24.8,9.2,35.8,15.6   c9.1-2.3,17.7-5.4,25.7-9.3c11.3-5.5,21.6-12.7,30.6-21.1c7.6-7.2,14.2-16.6,19.9-27.7c6.1,21.3,23.9,37.3,45.4,41.3   c-7,11.4-15,21.6-24.2,30.2c-13.2,12.4-28.5,22.9-45.4,31.2c-16.5,8.1-34.3,13.9-52.9,17l0-0.1c-7.5,1.3-15.5-0.3-22.2-5.1   c-8.7-6.2-18.9-11.2-30.1-14.6c-10.7-3.3-22.6-5.1-35.4-5.1c-12.7,0-24.6,1.8-35.4,5.1c-10.5,3.2-20.1,7.8-28.4,13.4   c-6.5,5.3-15.1,7.8-23.9,6.3c-18.7-3.1-36.5-8.9-52.9-17c-16.9-8.3-32.2-18.8-45.4-31.2c-59.8-56.1-70.6-180.3-79-275.5   c-1.6-18.1-3.1-35.2-4.5-48c-0.3-1.7-0.5-3.4-0.5-5.2c0-3.8-1.4-7-3.5-9.3c-1.9-2-4.5-3.2-7.4-3.2s-5.5,1.2-7.4,3.2   c-2,2.1-3.3,5-3.5,8.4c2.6,23.1,4.4,45.2,6.3,67.4c8.9,105.7,18.3,218.1,85.8,281.4c11.3,10.6,24,20.1,37.6,28   c13.5,7.9,28,14.3,43.3,19.1l0,0c12.8,4,21.8,16.2,21.1,30.2c-0.1,1.3-0.1,1.5-0.1,1.7c-0.1,1.9,0.1-1.4,0.1,1.6v760.3   c0,3.5,1.4,6.6,3.7,8.9c2.3,2.3,5.4,3.7,8.9,3.7s6.6-1.4,8.9-3.7c2.3-2.3,3.7-5.4,3.7-8.9v-374.6h0.1c0-14.5,10.5-27.2,25.2-29.6   c16.6-2.7,33.5-4.2,49.6-4.2c15.6,0,31,1.3,45.5,4.1c14.3,2.4,25.1,14.8,25.1,29.7v374.6c0,3.5,1.4,6.6,3.7,8.9s5.4,3.7,8.9,3.7   s6.6-1.4,8.9-3.7s3.7-5.4,3.7-8.9V858.1c0-3,0.1,0.3,0.1-1.6l0-0.1c-1.5-14,7-27.5,21-31.9c15.3-4.8,29.8-11.2,43.3-19.1   c13.6-7.9,26.2-17.4,37.6-28c15.2-14.3,27.5-31.1,37.5-49.7l69.2-6.4c-14.6,37.5-35.3,71.5-65.5,99.9c-14.7,13.8-31,26-48.6,36.2   c-10.9,6.4-22.4,12-34.2,16.8L766.1,1618.5L766.1,1618.5z M818.3,421c1.9-16.4,9.2-31.2,20-42.5c12.9-13.5,30.9-21.8,50.7-21.8   c19.8,0,37.7,8.3,50.7,21.8c7.9,8.2,14,18.4,17.4,29.7L818.3,421L818.3,421z M608.1,467.3c31.9,0,60.7,12.9,81.6,33.8   c20.9,20.9,33.8,49.7,33.8,81.6c0,31.9-12.9,60.7-33.8,81.6c-20.9,20.9-49.7,33.8-81.6,33.8s-60.7-12.9-81.6-33.8   c-20.9-20.9-33.8-49.7-33.8-81.6s12.9-60.7,33.8-81.6C547.4,480.2,576.2,467.3,608.1,467.3L608.1,467.3z M647.1,543.7   c-10-10-23.8-16.2-39-16.2s-29,6.2-39,16.2c-10,10-16.2,23.8-16.2,39s6.2,29,16.2,39c10,10,23.8,16.2,39,16.2s29-6.2,39-16.2   c10-10,16.2-23.8,16.2-39S657,553.7,647.1,543.7z"/>
</g>
</svg>