<svg xmlns="http://www.w3.org/2000/svg" data-name="Layer 1" viewBox="0 0 100 125" x="0px" y="0px"><title>Mesa de trabajo 1 copia 14</title><path d="M50.25,86.17A36.17,36.17,0,1,1,86.42,50,36.21,36.21,0,0,1,50.25,86.17Zm0-70.84A34.67,34.67,0,1,0,84.92,50,34.7,34.7,0,0,0,50.25,15.33Z"/><path d="M50.25,46.22a.75.75,0,0,1-.75-.75V34.53a.75.75,0,0,1,1.5,0V45.47A.74.74,0,0,1,50.25,46.22Z"/><path d="M45.73,50.75H34.78a.75.75,0,0,1,0-1.5H45.73a.75.75,0,0,1,0,1.5Z"/><path d="M65.73,50.75h-11a.75.75,0,0,1,0-1.5h11a.75.75,0,0,1,0,1.5Z"/><path d="M50.25,66.22a.75.75,0,0,1-.75-.75V54.53a.75.75,0,0,1,1.5,0V65.47A.74.74,0,0,1,50.25,66.22Z"/><text x="0" y="115" fill="#000000" font-size="5px" font-weight="bold" font-family="'Helvetica Neue', Helvetica, Arial-Unicode, Arial, Sans-serif">Created by Jorge Mallo</text><text x="0" y="120" fill="#000000" font-size="5px" font-weight="bold" font-family="'Helvetica Neue', Helvetica, Arial-Unicode, Arial, Sans-serif">from the Noun Project</text></svg>