<svg xmlns="http://www.w3.org/2000/svg" xmlns:xlink="http://www.w3.org/1999/xlink" version="1.1" x="0px" y="0px" viewBox="0 0 100 125" enable-background="new 0 0 100 100" xml:space="preserve"><g><path d="M59.816,45.561c0,4.009-4.509,7.895-5.07,9.35s-0.816,3.718-0.816,3.718c0,0.901-0.731,1.634-1.634,1.634h-2.007l0,0h-2.16   c-0.902,0-1.633-0.73-1.633-1.634c0,0-0.256-2.263-0.817-3.718c-0.562-1.455-5.071-5.341-5.071-9.35   c0-5.306,4.248-9.617,9.528-9.726V35.83c0.025,0,0.051,0.002,0.077,0.002c0.026,0,0.051-0.002,0.076-0.002v0.005   C55.569,35.944,59.816,40.254,59.816,45.561z M47.55,63.66l5.376-0.931v-0.606l-5.376,0.93V63.66z M47.55,65.078l5.376-0.931   v-0.589l-5.376,0.931V65.078z M47.562,65.904c0.068,0.84,0.764,1.502,1.62,1.502h2.109c0.902,0,1.634-0.73,1.634-1.632v-0.798   L47.562,65.904z M52.926,61.295V60.95c-0.193,0.081-0.406,0.128-0.63,0.128h-2.007l0,0h-2.16c-0.205,0-0.398-0.043-0.579-0.111   v1.258L52.926,61.295z"/><g><path d="M39.054,49.44H19.715c-0.451,0-0.817,0.366-0.817,0.817c0,0.452,0.366,0.817,0.817,0.817h20.199    C39.601,50.554,39.307,50.009,39.054,49.44z"/><path d="M39.204,40.617c0.231-0.519,0.499-1.022,0.803-1.507L29.163,28.266c-0.319-0.319-0.836-0.319-1.155,0    c-0.319,0.318-0.319,0.835,0,1.155L39.204,40.617z"/><path d="M50.154,33.38c0.019,0,0.039,0.001,0.058,0.001c0.019,0,0.039-0.001,0.058-0.001l0.546-0.003V19.973    c0-0.451-0.365-0.817-0.817-0.817c-0.451,0-0.816,0.366-0.816,0.817v13.4L50.154,33.38z"/><path d="M61.087,40.325L71.992,29.42c0.319-0.319,0.319-0.836,0-1.155c-0.318-0.319-0.837-0.319-1.156,0L60.253,38.85    C60.566,39.323,60.844,39.816,61.087,40.325z"/><path d="M80.285,49.441l-18.915,0c-0.252,0.568-0.546,1.113-0.859,1.634h19.774c0.451,0,0.815-0.365,0.815-0.816    S80.736,49.441,80.285,49.441z"/><path d="M56.944,56.047c-0.186,0.565-0.334,1.276-0.437,1.874l14.328,14.33c0.16,0.159,0.37,0.238,0.578,0.238    c0.209,0,0.419-0.079,0.578-0.238c0.319-0.319,0.319-0.837,0-1.156L56.944,56.047z"/><path d="M43.411,55.841c-0.015-0.026-0.036-0.059-0.058-0.092L28.008,71.095c-0.319,0.319-0.319,0.837,0,1.156    c0.16,0.159,0.368,0.238,0.578,0.238c0.208,0,0.417-0.079,0.577-0.238l14.688-14.689C43.739,56.972,43.591,56.323,43.411,55.841z"/><path d="M49.184,69.856v10.688c0,0.45,0.365,0.814,0.816,0.814c0.452,0,0.817-0.364,0.817-0.814V69.856H49.184z"/></g><circle cx="50" cy="9.9" r="4.9"/><circle cx="50" cy="89.935" r="4.9"/><circle cx="78.296" cy="21.621" r="4.9"/><circle cx="21.703" cy="78.213" r="4.9"/><circle cx="90.017" cy="49.917" r="4.9"/><circle cx="9.983" cy="49.917" r="4.9"/><circle cx="21.703" cy="21.621" r="4.9"/><circle cx="78.296" cy="78.213" r="4.9"/></g><text x="0" y="115" fill="#000000" font-size="5px" font-weight="bold" font-family="'Helvetica Neue', Helvetica, Arial-Unicode, Arial, Sans-serif">Created by Kelig Le Luron</text><text x="0" y="120" fill="#000000" font-size="5px" font-weight="bold" font-family="'Helvetica Neue', Helvetica, Arial-Unicode, Arial, Sans-serif">from the Noun Project</text></svg>