<svg xmlns="http://www.w3.org/2000/svg" xmlns:xlink="http://www.w3.org/1999/xlink" version="1.0" x="0px" y="0px" viewBox="0 0 100 125" enable-background="new 0 0 100 100" xml:space="preserve"><path fill-rule="evenodd" clip-rule="evenodd" d="M73.776,56.953c0.648,0.521,1.475,1.031,2.265,1.116  c1.854,0.195,3.76,0.42,5.592-0.085c1.326-0.366,2.587-1.044,2.975-2.52c0.653-2.474,1.548-4.91,1.408-7.538  c-0.089-3.101-0.657-6.133-1.496-9.119c-0.114-0.408-0.319-0.798-0.53-1.169c-1.852-3.252-4.126-3.314-7.252-3.073  c-3.083,1.279-5.383,3.196-6.186,6.681c-0.872,3.8-0.51,7.521,0.349,11.216C71.311,54.231,72.334,55.796,73.776,56.953z   M72.209,42.292c0.34-1.454,1.219-2.831,2.06-4.105c0.723-1.098,1.926-1.679,3.247-1.91c1.271-0.223,2.383,0.077,3.314,1.004  c1.583,1.573,2.521,3.494,2.923,5.651c0.252,1.35,0.293,2.738,0.429,4.107c0.149,2.3-0.362,4.466-1.174,6.583  c-0.806,2.101-2.068,2.981-4.309,3.012c-0.086,0.002-0.174,0.004-0.26,0.003c-3.821-0.049-5.464-1.361-6.276-5.11  C71.496,48.451,71.499,45.328,72.209,42.292z M23.062,47.055c-0.582-0.499-1.465,0.366-1.888,1.283  c-0.163,0.455,0.533,0.776,0.926,0.947c0.41,0.178,0.869-0.436,0.962-1.2c0.042-0.332,0-0.671-0.004-1.009  C23.057,47.077,23.063,47.056,23.062,47.055z M88.344,67.533c-0.247-2.238-0.976-4.178-3.212-5.189  c-0.233-0.105-0.47-0.24-0.654-0.413c-0.813-0.77-1.805-0.877-2.866-0.95c-2.067-0.143-4.104-0.005-6.011,0.498  c-1.786-1.999-3.203-4.03-4.262-6.312c-0.209-0.448-0.565-0.87-0.951-1.187c-1.062-0.873-2.118-1.781-3.288-2.492  c-1.029-0.626-1.748-1.402-1.99-2.548c-0.194-0.914-0.724-1.533-1.397-2.099c-0.658-0.553-1.326-1.102-1.926-1.716  c-0.408-0.418-0.832-0.896-1.028-1.429c-0.919-2.494-1.819-5-2.604-7.538c-0.409-1.326-0.815-2.589-1.646-3.745  c-0.956-1.332-1.54-2.813-1.281-4.58c0.101-0.682-0.335-1.482-0.648-2.173c-0.494-1.091-1.182-2.099-1.628-3.206  c-1.222-3.033-3.253-5.415-5.741-7.461c-0.717-0.593-1.427-1.199-2.149-1.789c-0.33-0.271-0.645-0.6-1.025-0.768  c-1.485-0.656-3.011-1.223-4.49-1.893c-1.503-0.681-3.016-0.708-4.526-0.168c-1.017,0.364-1.969,0.396-3.021,0.132  c-3.009-0.755-5.707,0.428-7.464,3.116c-0.318,0.485-0.716,1.003-1.205,1.278c-2.088,1.172-3.229,3.112-4.033,5.196  c-0.889,2.308-1.62,4.701-1.741,7.217c-0.024,0.516,0.04,1.057-0.098,1.54c-0.349,1.235-0.069,2.404,0.329,3.534  c0.601,1.699,1.313,3.358,1.976,5.036c0.404,1.021,0.814,2.041,0.966,3.11c-0.268,0.119-0.452,0.277-0.564,0.236  c-1.321-0.484-2.471,0.009-3.61,0.59c-1.628,0.83-3.101,1.834-4.039,3.471c-1.27,2.223-0.989,5.393-0.594,6.71  c0.167,0.563,0.432,1.147,0.811,1.587c1.428,1.653,3.182,2.925,5.227,3.656c1.533,0.549,3.162,0.831,4.753,1.2  c1.78,0.412,3.557,0.603,5.363,0.054c0.561-0.17,1.208-0.036,1.795-0.141c0.665-0.117,1.319-0.313,1.959-0.533  c0.565-0.195,1.103-0.472,1.799-0.776c0.937,0.828,1.592,1.574,1.855,2.646c0.183,0.745,0.469,1.481,0.815,2.168  c0.518,1.026,0.744,2.096,0.783,3.233c0.077,2.237,0.147,4.475,0.305,6.706c0.079,1.112,0.206,2.256,0.554,3.303  c0.786,2.362,1.722,4.674,2.604,7.003c0.853,2.252,2.776,3.431,4.669,4.638c1.308,0.027,2.204,0.831,3.163,1.579  c0.445,0.347,1.067,0.571,1.635,0.646c2.554,0.339,5.094,0.751,7.61,1.306c0.501,0.109,1.022,0.176,1.534,0.18  c1.888,0.011,3.776-0.039,5.662-0.011c1.361,0.021,2.526-0.378,3.511-1.321c0.438-0.418,0.883-0.828,1.358-1.199  c0.336-0.262,0.745-0.664,1.09-0.634c1.321,0.117,1.811-0.791,2.296-1.692c0.703-1.309,1.599-2.436,2.78-3.345  c0.338-0.259,0.571-0.657,0.912-0.908c0.992-0.727,1.366-1.734,1.445-2.904c0.022-0.343,0.047-0.686,0.092-1.025  c0.097-0.762,0.551-1.259,1.249-1.502c0.65-0.227,1.335-0.355,1.987-0.575c1.14-0.383,2.301-0.722,3.389-1.221  C87.771,72.355,88.688,70.649,88.344,67.533z M24.19,57.083c-2.889-0.438-5.475-1.383-7.927-2.857  c-0.517-0.311-1.044-0.62-1.5-1.008c-2.75-2.337-2.747-5.36-0.633-8.248c0.309-0.423,1.011-0.694,1.563-0.76  c0.426-0.05,0.727,1.177,1.456,0.564c0.249-0.534,0.172-1.266,0.794-1.706c1.047-0.403,2.183-0.646,3.232-0.095  c0.753,1.308,1.437,2.496,2.122,3.682c0,0,3.42,3.411,4.668,5.503c-0.151,0.063-0.392,0.092-0.431,0.195  c-0.075,0.199-0.131,0.535-0.022,0.648c0.321,0.34,0.587,0.11,0.756-0.222c0.074-0.147,0.099-0.319,0.146-0.48  c2.188,1.336,2.188,1.336,3.138,2.729C32.096,55.738,27.101,57.524,24.19,57.083z M76.78,70.823  c-0.729,1.979-0.234,4.098-0.811,6.252c-0.298,0.104-0.685,0.225-1.062,0.37c-1.101,0.424-1.221,0.658-1.044,1.952  c0.044,0.318,0.086,0.639,0.131,0.972c-0.029,0.545-1.098-0.841-1.255-0.119v1.683c-0.245,0.107-0.402,0.245-0.536,0.228  c-0.615-0.085-1.194-0.096-1.695,0.364c-0.521,0.479-0.374,1.104-0.434,1.693c-0.013,0.132-0.178,0.249-0.275,0.373l0.005-0.002  c-0.632,0.703-1.23,1.438-1.902,2.102c-0.954,0.941-2.011,1.683-3.43,0.931c-0.35-0.187-0.604-0.064-0.941,0.024  c-1.656,0.44-4.356-1.34-4.631-0.831c-0.263,0.8-0.703,1.305-1.654,0.938c-0.074-0.109-0.229-0.238-0.247-0.385  c-0.178-1.314,0.588-2.085,1.663-2.644c0.462-0.789-0.98-0.325-1.316,0.012c-0.599,0.605-1.112,1.295-1.795,2.108  c-0.616,0.58-3.553,0.386-5.302-0.571c-0.497-0.271-1.127-0.48-1.233-1.188c-0.045-0.248-0.918-0.381-1.378-0.569  c-0.458-0.189-0.908-0.507-1.377-0.536c-1.058-0.068-1.767-0.673-2.282-1.449c-1.037-1.57-1.982-3.203-2.927-4.832  c-0.251-0.438-0.394-0.951-0.529-1.444c-0.354-1.317-0.675-2.644-1.039-4.075c-0.167-0.639,1.468,0.022,2.017,0.514  c0.515,0.463,1.581,1.26,1.714,0.672c-1.008-1.026-1.981-2.097-3.506-2.462c-0.25-1.702-0.486-3.309-0.731-4.987  c-0.062-0.987,1.767-0.311,1.848-1.313c0.093-0.739-1.096-0.418-1.301-0.732c-0.263-0.404-0.175-1.026-0.408-1.466  c-1.161-2.192-1.79-4.644-3.269-6.683c-0.187-0.259-0.214-0.633-0.332-0.946c-0.118-0.311-0.173-0.722-0.402-0.9  c-1.419-1.095-2.712-2.409-4.394-3.082c-0.687-0.274-1.218-0.587-1.611-1.173c-0.476-0.71-0.936-1.431-1.406-2.151  c0.262-1.378,1.069-2.7,0.465-4.157c-0.58-0.861-0.501,0.445-0.531,0.728c-0.046,0.424,0.029,0.865-0.05,1.281  c-0.056,0.308-0.276,0.585-0.479,0.985c-0.589,0.854-2.968-1.489-3.375-3.309c-0.333-1.495-2.403-7.185-2.934-8.579  c-0.517-1.357-0.631-2.861-1.071-4.252c-0.325-1.033-0.319-1.994-0.097-3.029c0.308-1.431,0.473-2.891,0.773-4.322  c0.138-0.657,0.419-1.292,0.7-1.909c0.285-0.625,0.701-1.192,0.968-1.824c0.604-1.429,1.594-2.451,3.036-3.007  c0.779-0.302,1.257-0.729,1.373-1.642c0.112-0.883,1.116-0.98,1.677-1.477c0.841-0.744,1.699-0.827,2.837-0.723  c1.848,0.169,3.764,0.435,5.611-0.262c0.378-0.143,0.937-0.229,1.25-0.05c1.398,0.792,3.081,0.978,4.242,2.335  c0.752,0.882,1.886,1.509,2.956,2.032c2.329,1.139,3.958,2.903,5.213,5.121c1.067,1.886,1.948,3.834,2.482,5.937  c0.19,0.748,0.866,2.276,0.11,2.258c-2.082,0.106-3.398-0.394-5.259-1.992c-0.42-0.143-0.31,0.49-0.063,0.795  c0.972,1.2,2.224,1.862,3.753,2.015c0.597,0.059,1.195,0.103,1.887,0.161c1.532,3.024,3.251,5.977,4.044,9.379  c0.285,1.224,0.885,2.364,1.081,3.66c0.225,1.479,1.125,2.693,2.288,3.648c1.405,1.154,2.752,2.326,3.368,4.136  c0.125,0.369,0.518,0.681,0.848,0.941c0.535,0.427,1.099,0.832,1.69,1.174c1.937,1.114,3.254,2.68,4.159,4.756  c1.055,2.424,2.256,4.805,4.089,6.792c0.396,0.431,0.658,1.016,0.874,1.571c0.373,0.959,0.683,1.945,0.979,2.934  C76.721,69.976,76.91,70.473,76.78,70.823z M87.134,68.414c-0.02,0.789-0.395,1.481-0.976,2.058  c-1.505,1.495-3.211,2.571-5.381,2.798c-1.955,0.205-2.536-0.301-2.504-2.222c0.019-1.103,0.399-2.2-0.072-3.318  c-0.296-0.7-0.341-1.471-0.806-2.153c-0.464-0.681-0.676-1.531-1.069-2.474c1.376-0.768,2.464-1.09,3.732-0.783  c0.996,0.242,2.03,0.365,3.054,0.434c1.021,0.069,1.737,0.575,2.478,1.222C86.976,65.185,87.174,66.761,87.134,68.414z   M68.034,72.66c-0.879,0.607,1.431,1.139,2.142,1.66c0.298,0.355-0.373,1.362-0.561,2.013c-0.273,0.946,0.522,1.339,0.941,1.953  c0.22,0.32,0.153,0.824,0.274,1.228c0.109,0.365-0.154,1.311,0.512,1.198c1.702-1.618,1.462-3.392,0.964-5.144  C71.8,73.788,70.61,73.041,68.034,72.66z M71.615,77.497c-0.088-0.095-0.176-0.191-0.305-0.336c-0.957-1.089-0.5-1.823,0.51-0.436  C71.884,76.843,71.973,77,72,77.069C72.163,77.476,71.93,77.76,71.615,77.497z M65.605,71.648c0.356-0.799,0.912-1.313,1.579-1.809  c0.227-0.168,0.267-0.585,0.314-0.698c0.014-0.646-0.455-1.014-0.855-0.878c-0.24,0.081-0.531,0.146-0.682,0.319  c-0.52,0.604-0.929,1.276-1.823,1.477c-0.242,0.055-0.467,0.688-0.487,1.067c-0.011,0.239,0.323,0.588,0.588,0.729  C64.71,72.109,65.385,72.142,65.605,71.648z M37.765,22.486c0.505-0.515,0.737-1.21,1.635-1.432  c0.803-0.199,0.893-1.784-0.122-1.784c-0.298,0.089-0.618,0.186-0.939,0.281c-0.387,0.115-0.781,0.21-1.161,0.343  c-1.019,0.358-1.359,1.532-0.722,2.453C36.776,22.809,37.372,22.887,37.765,22.486z M68.292,83.489  c-0.67-0.828-1.448-1.419-2.693-1.582c-0.514,0.126-0.941,1.853-0.512,2.932c0.11,0.273,0.4,0.575,0.672,0.659  c0.404,0.127,0.573-0.245,0.662-0.595c0.115-0.456,0.225-0.913,0.341-1.38c0.998,0.104,1.489,1.3,2.486,0.717  C69.44,83.853,68.541,83.797,68.292,83.489z M69.253,84.238c-0.002,0.001-0.003,0.001-0.005,0.002l0,0L69.253,84.238z M45.58,38.706  c-1.606-0.783-2.099-1.714-1.795-3.518c0.065-0.394,0.155-0.782,0.233-1.172c-0.77-0.565-1.237,2.422-0.531,3.745  c0.695,1.301,1.864,1.926,4.436,2.253C48.532,39.06,46.253,39.034,45.58,38.706z M66.579,80.552  c0.034,0.123,0.289,0.301,0.382,0.269c0.203-0.069,0.515-0.248,0.523-0.396c0.074-1.312-0.354-2.592-0.165-3.938  c0.069-0.503-0.594-0.734-1.161-0.442c0,0-0.594,1.527,0.243,2.332c0.209,0.199,0.031,0.786,0.054,1.195  C66.474,79.899,66.492,80.238,66.579,80.552z M44.856,46.412c-0.713-1.353-4.138-2.475-3.685-1.355c1.27,0.722,2.146,1.201,3,1.712  c1.042,0.624,1.232,1.8,1.7,2.877c0.531,0.646,0.292-1.208-0.021-1.725C45.54,47.408,45.137,46.943,44.856,46.412z M54.891,78.073  c-1.017-0.146-2.761-0.648-2.745-1.271c0.103-0.577,0.209-1.164,0.313-1.751c0,0-0.396-0.17-0.634,0.64  c-0.686,1.373-0.396,2.102,0.966,2.569c0.242,0.084,0.491,0.182,0.745,0.201c1.135,0.09,2.144,0.51,3.098,1.105  c0.055,0.033,0.688,0.279,0.372-0.229C56.529,78.531,55.798,78.205,54.891,78.073z M32.214,30.537  c-1.412-0.342,0.532,1.142,1.406,1.544c1.041,0.479,2.044,0.866,2.922,1.582c1.472,1.265,1.36,0.368,1.36,0.368  C36.447,32.249,34.362,31.53,32.214,30.537z M32.151,41.191c-0.572,1.175,4.236,3.128,4.847,2.221  C37.389,42.716,32.48,40.359,32.151,41.191z M69.239,63.739c-0.029,0.793-1.197,1.604,0.314,2.178  c0.765,0.276,1.492-0.716,1.121-1.438c-1.425-1.907-2.891-2.23-2.891-2.23C67.188,62.63,68.787,63.275,69.239,63.739z   M74.382,69.356c-0.327-0.281-1.163,0.259-1.397,0.862c-0.088,0.226-0.112,0.498-0.091,0.742c0.056,0.589,0.508,1.119,0.959,1.017  c0.375-0.084,0.736-0.358,1.032-0.628c0.164-0.151,0.18-0.465,0.298-0.81C75.318,69.979,74.74,69.665,74.382,69.356z M62.998,80.104  c-0.639,0.081-0.771,0.589-0.908,1.1c-0.159,0.586,0.034,1.021,0.546,1.301c0.464,0.252,0.845,0.025,1.113-0.339  c0.194-0.264,0.385-0.467,0.385-0.813c-0.065-0.295-0.088-0.467-0.146-0.628C63.825,80.261,63.487,80.042,62.998,80.104z   M59.664,49.772c0.863,0-0.192-0.585-0.354-0.657c-1.508-0.661-2.672-1.709-3.614-3.036c-0.029-0.041-0.345-0.524-0.249-0.006  C55.447,46.073,56.609,48.777,59.664,49.772z M65.188,62.031c0.271,0.067,0.594,0.197,0.921,0.214  c0.327,0.018,0.952-0.076,0.95-0.075c0.457-0.555-1.589-0.688-1.653-1.215c0.072-0.959,0.15-1.884,0.202-2.81  c0.019-0.333-0.155-1.456-0.576-0.618C64.942,59,64.101,61.683,65.188,62.031z M52.141,57.349c-0.761-0.412-2.667-1.912-2.667-0.616  c1.292,0.811,2.514,1.575,3.712,2.325C54.191,58.817,52.876,57.749,52.141,57.349z M43.01,57.744  c-0.165,0.73-0.287,1.475-0.507,2.188c-0.23,0.738-1.658,2.441-0.714,2.587C43.037,60.866,44.375,57.165,43.01,57.744z   M58.844,61.526c-0.438-0.078-1.938,4.446-1.514,4.672C57.923,66.657,59.876,61.748,58.844,61.526z M54.984,70.68  c-0.083-0.544-0.504-0.636-0.778-0.783c-0.166-0.091-0.504-0.011-0.692,0.109c-0.463,0.295-0.743,0.713-0.481,1.295  c0.199,0.441,0.628,0.745,1.013,0.53C54.428,71.617,54.984,71.331,54.984,70.68z M26.767,18.972c-0.614,0-1.515,3.961-1.121,4.088  C26.262,23.2,27.472,18.972,26.767,18.972z M42.908,54.178c-1.398-0.643-2.571-1.184-3.915-1.802  c-0.679,0.407,0.756,1.28,1.382,1.552C41.118,54.249,43.023,54.961,42.908,54.178z M49.779,59.058  c-0.901,1.266-2.248,4.418-1.27,4.177c0.373-0.972,0.631-1.595,0.85-2.229C49.548,60.454,50.736,59.193,49.779,59.058z   M53.391,50.035c0.5-0.983-3.567-1.971-3.567-1.971C48.913,48.877,52.765,51.03,53.391,50.035z M51.311,80.275  c-0.488,0.054-0.725,0.389-0.743,0.834c-0.028,0.628,0.624,1.341,1.013,1.114c0.31-0.182,0.498-0.571,0.637-0.74  C52.163,80.698,51.747,80.228,51.311,80.275z M43.224,18.818c0.409-0.593-2.146-2.613-2.64-2.096  C40.126,17.206,42.831,19.059,43.224,18.818z M29.32,32.165c-0.646,0.108-0.396,3.076,0.472,3.076  c0.624-0.342,0.72-0.944,0.664-1.517C30.386,33.027,30.076,32.048,29.32,32.165z M43.8,24.989c1.05-1.532,1.101-4.208,0.31-4.122  c-0.31,0.142,0.033,1.339-0.011,2.004C44.06,23.47,43.115,25.104,43.8,24.989z M38.929,25.674c-0.589,0.681,2.5,2.934,3.071,2.526  C42.363,27.891,39.659,25.337,38.929,25.674z M66.023,75.133c0,0-0.138-1.982-1.153-1.59c-0.076,0.219-0.21,0.446-0.224,0.681  c-0.015,0.246,0.088,0.497,0.172,0.91C65.051,75.938,65.954,75.612,66.023,75.133z M35.183,16.85c0.089,0.056,0.346-0.03,0.435-0.13  c0.096-0.105,0.168-0.38,0.102-0.457c0.117-0.515-1.035-1.928-1.508-1.582C33.438,15.27,34.601,16.477,35.183,16.85z M73.83,73.241  c-0.124,0.085-0.278,0.324-0.241,0.41c-0.157,0.534,0.11,1.42,0.67,1.184c0.27-0.217,0.437-0.293,0.513-0.423  c0.126-0.211,0.19-0.457,0.293-0.722C75.183,73.218,74.439,72.831,73.83,73.241z M55.457,68.845c0,0-0.92-2.071-1.626-1.294  C53.382,68.181,55.457,69.729,55.457,68.845z M49.61,76.876c0.2-0.477-2.188-1.605-2.44-0.821  C47.038,76.469,49.225,77.607,49.61,76.876z M48.09,26.39c1.418,0.547,0.147-1.264-0.033-1.411c-0.32-0.262-0.865-0.579-1.326,0.244  C46.554,25.787,47.468,25.856,48.09,26.39z M62.342,83.292c-0.646,0-0.397,0.791-0.446,1.027c-0.099,0.487,0.127,0.864,0.593,0.976  c0.151,0.035,0.559-0.294,0.539-0.388C62.944,84.532,62.881,83.292,62.342,83.292z M55.589,73.761  c0.222-0.074,0.477-0.523,0.439-0.765c-0.033-0.214-0.426-0.446-0.702-0.523c-0.202-0.058-0.608-0.24-0.745,0.205  c-0.114,0.403,0.012,0.62,0.16,0.757C54.959,73.633,55.357,73.838,55.589,73.761z M63.692,76.271  c0.441-0.227-0.508-3.61-1.042-3.163c-0.015,0.942,0.116,1.325,0.263,1.68C63.078,75.184,63.185,76.44,63.692,76.271z   M39.754,37.354c0.473-0.096-0.764-2.835-1.226-2.367C38.529,34.987,39.195,37.524,39.754,37.354z M56.305,42.629  c0.127-0.079,0.256-0.159,0.384-0.238c0.449-0.326,0.048-1.026-0.473-1.129c-0.143,0.014-0.363,0.22-0.531,0.352  C55.252,41.967,55.68,42.983,56.305,42.629z M60.335,66.407c-0.727,0-0.185,1.567,0.346,1.614c0.071,0.006,0.18-0.021,0.217-0.07  C61.436,67.177,60.91,66.506,60.335,66.407z M69.884,69.295c-0.155,0.488,0.135,1.012,0.501,0.95  c0.207-0.033,0.383-0.254,0.722-0.501c0.79-0.65-0.129-1.334-0.729-0.937C70.207,68.969,69.948,69.1,69.884,69.295z M39.671,23.779  c0.263,0.126,0.263,0.126,0.546,0.254c0.561,0.287,0.777-0.665,0.195-0.891c-0.253-0.137-0.34-0.154-0.524-0.232  C39.476,22.93,39.225,23.497,39.671,23.779z M24.217,29.426c-0.802,0-0.477,1.662,0.127,1.662  C24.993,31.088,24.817,29.426,24.217,29.426z M43.663,74.147c0,0-0.759,0.833-0.307,1.468c0.029,0.041,0.18,0.058,0.221,0.022  C44.131,75.177,44.351,73.853,43.663,74.147z M59.895,76.947c0.99-1.063,0.99-1.063-0.007-1.767  C59.191,75.104,59.241,76.947,59.895,76.947z M49.675,83.134c-0.281-0.313-0.588-0.636-1.035-0.286  c-0.532,0.418-0.056,0.681,0.179,0.987c0.097,0.127,0.194,0.426,0.19,0.422c0.398,0.279,0.824-0.497,0.758-0.877  C49.73,83.275,49.724,83.187,49.675,83.134z M60.232,81.815c-0.026-0.028-0.382,0.167-0.371,0.204  c-0.369,0.247-0.286,0.748,0.273,0.619c0.198-0.125,0.411-0.255,0.43-0.277C60.677,82.21,60.877,81.582,60.232,81.815z M73.542,65.6  c-0.294-0.176-0.461-0.313-0.65-0.366c-0.061-0.016-0.275,0.229-0.256,0.322c0.038,0.188,0.187,0.354,0.287,0.531  C73.183,66.865,74.044,66.154,73.542,65.6z M49.56,40.675c0.077-0.131,0.153-0.262,0.235-0.4c0.018-0.453-0.344-0.467-0.645-0.502  c-0.071-0.007-0.254,0.292-0.236,0.311C48.457,40.813,48.958,41.262,49.56,40.675z M25.697,24.917  c-0.562,0.087-0.318,0.944,0.051,1.256c0.05,0.04,0.16,0.034,0.232,0.013c0.077-0.022,0.188-0.12,0.201-0.128  C26.42,25.921,26.087,24.917,25.697,24.917z M54.816,43.944c-0.834,0.425-0.002,1.344-0.002,1.342  C55.268,45.371,55.447,43.818,54.816,43.944z M30.052,20.328c0.65-0.5,0.099-1.251-0.553-0.514c-0.092,0.07-0.189,0.143-0.285,0.216  C28.69,20.446,29.375,20.829,30.052,20.328z M53.857,84.631c-0.036-0.039-0.243,0.081-0.37,0.13c-0.44,0.213-0.156,0.563,0.24,0.563  c0.11-0.085,0.224-0.17,0.336-0.255C54.366,84.854,54.283,84.437,53.857,84.631z M19.316,47.469  c-0.323,0.237-0.641,0.546-0.816,0.899c-0.292,0.589,0.37,1.444,1.194,1.313c0.348-0.069,0.472-0.442,0.612-0.785  c0.191-0.475,0.162-1.011-0.318-1.343C19.817,47.435,19.454,47.368,19.316,47.469z M25.894,52.783  c-0.05-0.034-0.231,0.12-0.355,0.188c-0.455,0.213-0.237,0.813,0.345,0.557c0.023-0.01,0.247-0.139,0.456-0.257  C26.637,53.049,26.27,52.664,25.894,52.783z M21.786,51.396c-0.055-0.04-0.342,0.09-0.344,0.143  c-0.002,0.202,0.071,0.406,0.114,0.607c0.156,0.518,1.025,0.386,0.718-0.197C22.074,51.713,21.955,51.522,21.786,51.396z   M82.242,66.865c-0.654,0.317,0.037,2.414,0.813,2.414C83.557,69.279,82.991,66.631,82.242,66.865z M78.959,54.262  c0.33-0.034,0.666-0.16,0.853-0.494c0.01-0.941-0.641-1.744-1.156-1.537c-0.316,0.126-0.641,0.555-0.71,0.898  C77.821,53.752,78.342,54.324,78.959,54.262z M80.567,51.841c0.183,0.007,0.541-0.44,0.532-0.672c-0.011-0.34,0-1.278-0.564-1.275  c-0.62-0.065-0.555,0.79-0.605,1.071C79.848,51.422,80.105,51.826,80.567,51.841z M75.226,48.927c0.377,0.601,0.928,0.1,0.444-0.402  c-0.096-0.105-0.191-0.211-0.289-0.317c-0.563-0.633-0.312,0.179-0.332,0.294C75.025,48.629,75.16,48.784,75.226,48.927z"/><text x="0" y="115" fill="#000000" font-size="5px" font-weight="bold" font-family="'Helvetica Neue', Helvetica, Arial-Unicode, Arial, Sans-serif">Created by Danil Polshin</text><text x="0" y="120" fill="#000000" font-size="5px" font-weight="bold" font-family="'Helvetica Neue', Helvetica, Arial-Unicode, Arial, Sans-serif">from the Noun Project</text></svg>