<svg xmlns:dc="http://purl.org/dc/elements/1.1/" xmlns:cc="http://creativecommons.org/ns#" xmlns:rdf="http://www.w3.org/1999/02/22-rdf-syntax-ns#" xmlns:svg="http://www.w3.org/2000/svg" xmlns="http://www.w3.org/2000/svg" xmlns:sodipodi="http://sodipodi.sourceforge.net/DTD/sodipodi-0.dtd" xmlns:inkscape="http://www.inkscape.org/namespaces/inkscape" viewBox="0 0 16.933333 21.166666250000002" version="1.1" x="0px" y="0px"><g><path style="color:#000000;font-style:normal;font-variant:normal;font-weight:normal;font-stretch:normal;font-size:medium;line-height:normal;font-family:sans-serif;font-variant-ligatures:normal;font-variant-position:normal;font-variant-caps:normal;font-variant-numeric:normal;font-variant-alternates:normal;font-feature-settings:normal;text-indent:0;text-align:start;text-decoration:none;text-decoration-line:none;text-decoration-style:solid;text-decoration-color:#000000;letter-spacing:normal;word-spacing:normal;text-transform:none;writing-mode:lr-tb;direction:ltr;text-orientation:mixed;dominant-baseline:auto;baseline-shift:baseline;text-anchor:start;white-space:normal;shape-padding:0;clip-rule:nonzero;display:inline;overflow:visible;visibility:visible;opacity:1;isolation:auto;mix-blend-mode:normal;color-interpolation:sRGB;color-interpolation-filters:linearRGB;solid-color:#000000;solid-opacity:1;vector-effect:none;fill:#000000;fill-opacity:1;fill-rule:nonzero;stroke:none;stroke-width:0.52916664;stroke-linecap:round;stroke-linejoin:miter;stroke-miterlimit:4;stroke-dasharray:none;stroke-dashoffset:0;stroke-opacity:1;color-rendering:auto;image-rendering:auto;shape-rendering:auto;text-rendering:auto;enable-background:accumulate" d="m 15.875869,1.0583358 -0.320394,0.031006 c 0,0 -0.458634,0.044458 -1.021643,0.1953346 -0.563009,0.150877 -1.242278,0.4010018 -1.712557,0.8712547 -0.437017,0.4369936 -0.681523,0.8675899 -0.744141,1.2810443 -0.048,0.3169396 0.02318,0.6182648 0.180868,0.8640199 l -0.454753,0.454747 C 11.894619,4.1796235 11.783736,3.5700139 11.65132,3.0757607 11.500485,2.5127666 11.309222,2.0913359 11.309222,2.0913359 L 11.176414,1.800401 10.914931,1.9859172 c 0,0 -0.376961,0.2694511 -0.789099,0.6816042 -0.4121374,0.4121534 -0.8748296,0.9668041 -1.0469641,1.6091859 -0.1599602,0.5969463 -0.1561224,1.093212 -0.00362,1.4825797 0.1525087,0.3893682 0.4672912,0.6547115 0.837675,0.7539508 0.03626,0.00972 0.073229,0.016333 0.1100711,0.022738 L 9.0974718,7.4609737 C 9.1890132,6.8846798 9.0785224,6.2748988 8.94606,5.7804751 8.7952253,5.2174812 8.6044787,4.7965672 8.6044787,4.7965672 L 8.4716703,4.5051155 8.2096712,4.690632 c 0,0 -0.3769617,0.2679007 -0.7890991,0.6800538 C 7.0084338,5.7828389 6.5462586,6.3395566 6.3741241,6.9819387 6.2141639,7.5788848 6.217481,8.0746335 6.3699841,8.464002 6.5224928,8.8533697 6.837275,9.1187132 7.2076589,9.2179523 c 0.036268,0.00972 0.073222,0.016849 0.1100709,0.023254 L 6.3668875,10.191524 C 6.4584291,9.61523 6.3479407,9.0054493 6.215476,8.5110261 6.0646415,7.948032 5.871828,7.5286682 5.871828,7.5286682 L 5.7390204,7.2356659 5.4775377,7.4211823 c 0,0 -0.3748942,0.2694511 -0.7870322,0.6816042 C 4.2783675,8.5149396 3.8136086,9.0701068 3.641474,9.7124892 3.4815142,10.309435 3.484831,10.805184 3.637334,11.194552 c 0.1525083,0.389369 0.4678075,0.656778 0.8381914,0.756018 0.036261,0.0097 0.073229,0.01637 0.1100709,0.02274 l -3.4462997,3.445743 a 0.26460976,0.26460674 0 1 0 0.3731038,0.375167 l 3.448373,-3.447296 c 0.00636,0.03665 0.013073,0.07349 0.022738,0.109552 0.099247,0.370371 0.366127,0.685168 0.7555095,0.837667 0.389382,0.152498 0.8835546,0.156325 1.4805294,-0.0036 C 7.8619587,13.11842 8.418646,12.655705 8.8308215,12.24359 9.2429971,11.831472 9.5108832,11.454499 9.5108832,11.454499 L 9.6979516,11.194568 9.4049462,11.059694 c 0,0 -0.4193466,-0.190752 -0.982369,-0.341577 C 7.9284453,10.585724 7.3178912,10.474955 6.741543,10.566173 L 7.6929064,9.6153374 c 0.00642,0.037009 0.012978,0.074163 0.022738,0.1105863 0.099247,0.3703713 0.3645767,0.6851663 0.753959,0.8376653 0.3893825,0.152498 0.8856223,0.156327 1.4825969,-0.0036 C 10.594609,10.387842 11.149229,9.9230671 11.561405,9.5109516 11.97358,9.0988361 12.243016,8.7239284 12.243017,8.7239284 L 12.428536,8.4624489 12.137598,8.3296418 c 0,0 -0.421414,-0.1912681 -0.984436,-0.3420941 C 10.658279,7.8549761 10.047846,7.7446851 9.4710934,7.8366545 L 10.397651,6.9101067 c 0.0064,0.037149 0.01346,0.074028 0.02325,0.1105861 0.09925,0.3703717 0.364579,0.6856844 0.753961,0.8381822 0.389383,0.1524979 0.885105,0.1558198 1.48208,-0.00414 0.642407,-0.1721226 1.197544,-0.6348367 1.609721,-1.0469522 0.412175,-0.4121153 0.681611,-0.7890897 0.681611,-0.7890897 l 0.185518,-0.2614795 -0.290938,-0.132807 c 0,0 -0.421414,-0.1907514 -0.984436,-0.3415774 C 13.363826,5.1503347 12.753836,5.0397407 12.177382,5.1314183 l 0.455786,-0.4557807 c 0.245759,0.1576858 0.54708,0.2293792 0.864031,0.1813822 0.413467,-0.062613 0.844041,-0.3071387 1.281058,-0.7441322 0.470277,-0.4702524 0.720378,-1.1500738 0.871265,-1.7130542 0.150886,-0.5629803 0.195336,-1.0216313 0.195336,-1.0216314 z m -0.624768,0.624761 c -0.02431,0.1684176 -0.02539,0.2580853 -0.111621,0.5798029 -0.139067,0.5188786 -0.384493,1.1270851 -0.734323,1.4768958 -0.383089,0.3830696 -0.724387,0.5540616 -0.986502,0.5937551 -0.25113,0.03803 -0.436051,-0.029657 -0.59738,-0.1813821 a 0.26460976,0.26460674 0 0 0 -0.04031,-0.040824 c -0.151132,-0.1611146 -0.21831,-0.3456966 -0.18035,-0.5963393 0.03969,-0.262092 0.210672,-0.6034217 0.593762,-0.9864918 0.34983,-0.349811 0.957485,-0.5952547 1.476395,-0.7343137 0.321737,-0.08622 0.411899,-0.086798 0.580327,-0.111103 z M 10.945937,2.655636 c 0.06319,0.1581848 0.107835,0.2357297 0.193787,0.5565489 0.139019,0.5188915 0.231398,1.166996 0.103353,1.644842 -0.140221,0.5232813 -0.349408,0.842255 -0.556555,1.0076791 -0.207149,0.1654239 -0.409551,0.19934 -0.636654,0.1384911 C 9.8227659,5.9423482 9.6638876,5.8128448 9.5672102,5.5660195 9.470533,5.3191942 9.4486938,4.9369295 9.5889139,4.4136485 9.716959,3.9358023 10.121149,3.4204896 10.501003,3.0406212 10.735656,2.8059594 10.812083,2.7610781 10.945937,2.655636 Z M 8.2411929,5.3608666 C 8.3043828,5.5190512 8.3485108,5.5965958 8.4344628,5.9174152 8.5734815,6.4363065 8.665861,7.0838949 8.5378156,7.5617406 8.3975955,8.0850216 8.1884085,8.4045123 7.9812604,8.5699361 7.7741123,8.7353602 7.5717103,8.7692761 7.3446067,8.7084275 7.1175043,8.6475786 6.9586265,8.5175582 6.8619491,8.2707331 6.7652717,8.0239081 6.7434327,7.6416429 6.8836528,7.1183619 7.0116974,6.6405157 7.4158871,6.1252028 7.7957417,5.7453347 8.0303948,5.5106731 8.1073383,5.4663083 8.2411926,5.3608666 Z M 12.67038,5.6306143 c 0.352042,0.00807 0.726772,0.07693 1.051098,0.1638126 0.320838,0.085948 0.398362,0.130081 0.556556,0.1932675 -0.105448,0.1338466 -0.149799,0.2108054 -0.384473,0.4454456 -0.379889,0.379834 -0.895162,0.7819713 -1.373043,0.9100116 -0.523314,0.1402141 -0.905539,0.1199295 -1.152384,0.023254 -0.246846,-0.096675 -0.37685,-0.2550533 -0.4377,-0.4821356 -0.06085,-0.2270826 -0.02642,-0.4295111 0.13901,-0.6366462 0.165432,-0.2071352 0.484376,-0.4163351 1.00769,-0.556549 0.179206,-0.048016 0.38202,-0.065303 0.593246,-0.06046 z M 5.5106104,8.0914179 c 0.06319,0.1581848 0.1073176,0.2357294 0.1932699,0.5565489 0.1390187,0.518891 0.229848,1.1664793 0.1018024,1.6443252 -0.1402202,0.52328 -0.3494069,0.844322 -0.556555,1.009746 -0.2071481,0.165423 -0.4080002,0.197789 -0.6351032,0.13694 C 4.3869218,11.378129 4.2285602,11.248109 4.1318833,11.001284 4.0352059,10.754459 4.0128499,10.374262 4.1530711,9.8509803 4.2811162,9.3731341 4.6853062,8.8557546 5.0651603,8.475886 5.2998134,8.2412247 5.3767571,8.1968596 5.5106112,8.0914179 Z m 4.4550249,0.2444265 c 0.3520427,0.00807 0.7267727,0.076931 1.0510987,0.1638126 0.320838,0.085948 0.398361,0.130081 0.556555,0.1932678 C 11.467841,8.8267711 11.422974,8.9032138 11.1883,9.1378537 10.808411,9.5176871 10.293139,9.9203414 9.815257,10.048382 9.2919435,10.188596 8.9097179,10.168309 8.6628725,10.071636 8.4160271,9.9749612 8.2865401,9.8160659 8.2256904,9.5889841 8.1648402,9.3619012 8.1987516,9.159473 8.3641831,8.9523379 8.5296144,8.7452027 8.8485595,8.5360025 9.3718733,8.3957887 9.5510785,8.3477737 9.7544097,8.3310026 9.9656353,8.3358444 Z M 7.2350531,11.067429 c 0.3520427,0.0075 0.726772,0.07538 1.0510986,0.162262 0.3208382,0.08595 0.3983608,0.130082 0.556555,0.193268 -0.1054476,0.133846 -0.1503151,0.210805 -0.3849894,0.445446 -0.379889,0.379833 -0.8967118,0.784037 -1.3745932,0.912078 -0.5233133,0.140213 -0.9039881,0.118383 -1.1508338,0.0217 -0.2468459,-0.09667 -0.376333,-0.255572 -0.4371829,-0.482652 -0.06085,-0.227083 -0.029006,-0.429512 0.136426,-0.636647 0.1654313,-0.207135 0.4864439,-0.414269 1.0097574,-0.554481 0.1792055,-0.04802 0.3825367,-0.06548 0.5937623,-0.06098 z"/></g><text x="0" y="31.933333" fill="#000000" font-size="5px" font-weight="bold" font-family="'Helvetica Neue', Helvetica, Arial-Unicode, Arial, Sans-serif">Created by Aficons</text><text x="0" y="36.933333000000005" fill="#000000" font-size="5px" font-weight="bold" font-family="'Helvetica Neue', Helvetica, Arial-Unicode, Arial, Sans-serif">from the Noun Project</text></svg>