<svg xmlns="http://www.w3.org/2000/svg" data-name="Layer 1" viewBox="0 0 100 125" x="0px" y="0px"><title>strategy_boxes</title><polygon points="49 62.68 49 72.5 38.07 72.5 38.07 87.5 61.93 87.5 61.93 72.5 51 72.5 51 62.68 52.99 62.68 50 57.5 47.01 62.68 49 62.68"/><polygon points="52.99 37.48 51 37.48 51 27.5 61.93 27.5 61.93 12.5 38.07 12.5 38.07 27.5 49 27.5 49 37.48 47.01 37.48 49.91 42.5 38.07 42.5 38.07 57.5 50 57.5 61.93 57.5 61.93 42.5 50.09 42.5 52.99 37.48"/><polygon points="76.14 27.5 76.14 34.48 66.15 39.34 65.28 37.54 61.93 42.5 67.9 42.93 67.03 41.13 76.14 36.7 76.14 42.5 100 42.5 100 27.5 76.14 27.5"/><polygon points="23.86 36.7 32.97 41.13 32.1 42.93 38.07 42.5 34.72 37.54 33.85 39.34 23.86 34.48 23.86 27.5 0 27.5 0 42.5 23.86 42.5 23.86 36.7"/><polygon points="76.14 63.14 67.03 58.71 67.9 56.92 61.93 57.34 65.28 62.3 66.15 60.51 76.14 65.36 76.14 72.5 100 72.5 100 57.5 76.14 57.5 76.14 63.14"/><polygon points="32.1 56.92 32.97 58.71 23.86 63.14 23.86 57.5 0 57.5 0 72.5 23.86 72.5 23.86 65.36 33.85 60.51 34.72 62.3 38.07 57.34 32.1 56.92"/><text x="0" y="115" fill="#000000" font-size="5px" font-weight="bold" font-family="'Helvetica Neue', Helvetica, Arial-Unicode, Arial, Sans-serif">Created by Davo Sime</text><text x="0" y="120" fill="#000000" font-size="5px" font-weight="bold" font-family="'Helvetica Neue', Helvetica, Arial-Unicode, Arial, Sans-serif">from the Noun Project</text></svg>