<svg xmlns="http://www.w3.org/2000/svg" xmlns:xlink="http://www.w3.org/1999/xlink" version="1.1" x="0px" y="0px" viewBox="0 0 512 640" enable-background="new 0 0 512 512" xml:space="preserve"><g><g><g><path d="M55.728,259.592c-0.047-1.969,1.512-3.568,3.433-3.568c1.963-0.046,3.563,1.507,3.61,3.428L55.728,259.592z      M97.832,305.67l-6.128,4.113l-38.766-57.598l12.257-8.232l38.767,57.604L97.832,305.67z M65.195,243.953l-12.393,0.182     l6.035-9.645L65.195,243.953z M65.195,243.953l-12.257,8.232l12.393-0.229l-36.803,58.875l-12.527-7.815l36.802-58.882     L65.195,243.953z M55.728,259.592l7.043-0.141l0.315,8.367l0.692,8.228l1.002,8.185l1.371,8.14l1.739,7.998l2.058,7.909     l2.373,7.771l2.701,7.683l2.971,7.494l3.34,7.405l3.608,7.226l3.886,7.037l4.2,6.901l4.489,6.722l4.746,6.491l5.032,6.357     l5.303,6.075l5.532,5.9l5.806,5.666l6.03,5.438l6.27,5.168l6.491,4.938l6.715,4.665l6.95,4.342l7.178,4.113l7.358,3.791     l7.541,3.475l7.775,3.198l7.952,2.837l8.138,2.562l8.273,2.196l8.455,1.828l-1.324,6.902l-8.776-1.922l-8.591-2.285l-8.414-2.607     l-8.227-2.971l-8.05-3.293l-7.817-3.608l-7.629-3.933l-7.453-4.248l-7.178-4.528l-6.995-4.847l-6.768-5.074l-6.492-5.391     l-6.258-5.625l-5.988-5.854l-5.72-6.076l-5.483-6.357l-5.21-6.539l-4.938-6.762l-4.617-6.949l-4.383-7.131l-4.03-7.359     l-3.744-7.453l-3.428-7.682l-3.105-7.77l-2.837-7.957l-2.472-8.092l-2.099-8.181l-1.787-8.272l-1.417-8.414l-1.049-8.502     l-0.732-8.549L55.728,259.592z M217.738,452.459l1.324-6.902l9.832,1.646l9.738,1.096l9.738,0.638l9.646,0.184l9.598-0.363     l9.463-0.826l9.416-1.277l9.234-1.692l9.146-2.19l8.959-2.607l8.871-3.018l8.59-3.429l8.461-3.838l8.272-4.254l8.046-4.617     l7.815-4.98l7.541-5.396l7.271-5.713l7.038-6.082l6.721-6.397l6.404-6.722l6.123-7.043l5.76-7.358l5.391-7.676l5.073-7.957     l4.712-8.228l4.301-8.502l3.878-8.736l3.481-9l3.012-9.28l2.613-9.463l2.144-9.738l6.903,1.371l-2.191,10.055l-2.694,9.832     l-3.159,9.551l-3.614,9.375l-4.021,9.053l-4.477,8.818l-4.853,8.549l-5.255,8.232l-5.619,7.951l-5.988,7.588l-6.312,7.317     l-6.674,6.99l-6.949,6.633l-7.267,6.304l-7.546,5.901l-7.815,5.572l-8.093,5.215l-8.319,4.752l-8.55,4.389l-8.777,3.979     l-8.958,3.567l-9.146,3.152l-9.321,2.695l-9.463,2.244l-9.599,1.78l-9.737,1.324l-9.832,0.826l-9.914,0.362l-10.015-0.135     l-10.061-0.69l-10.147-1.144L217.738,452.459z M445.351,292.732c0.363-1.875,2.192-3.152,4.113-2.742     c1.922,0.316,3.152,2.191,2.79,4.113L445.351,292.732z M455.956,253.92c0,1.97-1.553,3.521-3.475,3.568     c-1.964,0-3.521-1.559-3.567-3.474L455.956,253.92z M414.22,207.521l6.123-4.067l38.356,57.92l-12.294,8.14l-38.354-57.92     L414.22,207.521z M446.405,269.514l12.341-0.143l-6.082,9.604L446.405,269.514z M446.405,269.514l12.294-8.141l-12.387,0.088     l37.206-58.605l12.479,7.91l-37.253,58.605L446.405,269.514z M455.956,253.92l-7.042,0.095l-0.271-8.415l-0.598-8.32     l-1.007-8.273l-1.325-8.139l-1.641-8.044l-2.063-7.951l-2.332-7.864l-2.647-7.729l-2.971-7.588l-3.293-7.452l-3.609-7.266     l-3.885-7.131l-4.206-6.95l-4.479-6.768l-4.757-6.58l-5.028-6.357l-5.308-6.169l-5.532-5.895l-5.801-5.72l-6.081-5.483     l-6.258-5.21l-6.539-4.985l-6.769-4.665l-6.948-4.429l-7.226-4.114l-7.358-3.843l-7.589-3.522l-7.815-3.198l-7.998-2.877     l-8.139-2.561l-8.367-2.197l-8.502-1.828l1.324-6.902l8.823,1.922l8.638,2.238l8.461,2.654l8.272,3.018l8.092,3.286l7.863,3.662     l7.683,3.974l7.452,4.254l7.22,4.616l6.994,4.847l6.764,5.161l6.538,5.397l6.265,5.672l6.035,5.894l5.76,6.171l5.484,6.397     l5.167,6.586l4.934,6.81l4.665,6.995l4.348,7.226l4.021,7.358l3.75,7.542l3.428,7.728l3.064,7.863l2.788,7.998l2.421,8.14     l2.057,8.226l1.733,8.368l1.372,8.454l1.055,8.549l0.639,8.643L455.956,253.92z M293.898,59.589l-1.324,6.902l-9.785-1.646     l-9.779-1.143l-9.738-0.639l-9.645-0.135l-9.604,0.315l-9.456,0.827l-9.375,1.277l-9.282,1.74l-9.141,2.144l-8.965,2.607     l-8.818,3.018l-8.643,3.428l-8.455,3.845l-8.273,4.248l-7.998,4.617l-7.816,4.985l-7.547,5.391l-7.313,5.713l-6.995,6.082     l-6.721,6.398l-6.445,6.722l-6.076,7.084l-5.813,7.317L95.5,148.37l-5.073,7.95l-4.665,8.227l-4.294,8.509l-3.885,8.73     l-3.521,9.006l-3.018,9.275l-2.602,9.463l-2.156,9.738l-6.902-1.325l2.244-10.054l2.654-9.88l3.198-9.551l3.563-9.327     l4.066-9.094l4.436-8.825l4.846-8.502l5.262-8.273l5.619-7.91l5.987-7.634l6.311-7.313l6.675-6.997l6.943-6.626l7.317-6.265     l7.541-5.94l7.817-5.578l8.097-5.168l8.32-4.8l8.544-4.388l8.73-3.979l8.965-3.562l9.187-3.159l9.281-2.695l9.457-2.237     l9.604-1.787l9.737-1.325l9.826-0.82l9.92-0.368l10.014,0.141l10.102,0.685l10.103,1.143L293.898,59.589z M66.286,219.269     c-0.363,1.875-2.238,3.157-4.113,2.788c-1.916-0.363-3.152-2.238-2.789-4.113L66.286,219.269z"/></g></g></g><text x="0" y="527" fill="#000000" font-size="5px" font-weight="bold" font-family="'Helvetica Neue', Helvetica, Arial-Unicode, Arial, Sans-serif">Created by ibrandify</text><text x="0" y="532" fill="#000000" font-size="5px" font-weight="bold" font-family="'Helvetica Neue', Helvetica, Arial-Unicode, Arial, Sans-serif">from the Noun Project</text></svg>