<svg xmlns:dc="http://purl.org/dc/elements/1.1/" xmlns:cc="http://creativecommons.org/ns#" xmlns:rdf="http://www.w3.org/1999/02/22-rdf-syntax-ns#" xmlns:svg="http://www.w3.org/2000/svg" xmlns="http://www.w3.org/2000/svg" xmlns:sodipodi="http://sodipodi.sourceforge.net/DTD/sodipodi-0.dtd" xmlns:inkscape="http://www.inkscape.org/namespaces/inkscape" version="1.1" x="0px" y="0px" viewBox="0 0 64 80"><g transform="translate(0,-988.36218)"><path style="text-indent:0;text-transform:none;direction:ltr;block-progression:tb;baseline-shift:baseline;color:#000000;enable-background:accumulate;" d="m 32,1002.2997 c -9.96972,0 -18.0625,8.0928 -18.0625,18.0625 0,9.9698 8.09278,18.0625 18.0625,18.0625 9.96972,0 18.0625,-8.0927 18.0625,-18.0625 0,-9.9697 -8.09278,-18.0625 -18.0625,-18.0625 z m 0,1 c 9.42928,0 17.0625,7.6333 17.0625,17.0625 0,9.4293 -7.63322,17.0625 -17.0625,17.0625 -9.42928,0 -17.0625,-7.6332 -17.0625,-17.0625 0,-9.4292 7.63322,-17.0625 17.0625,-17.0625 z m 0,16.5 c -0.28959,0 -0.53125,0.2416 -0.53125,0.5312 0,0.2895 0.24166,0.5626 0.53125,0.5626 0.28959,0 0.53125,-0.2417 0.53125,-0.5313 0,-0.2896 -0.24166,-0.5625 -0.53125,-0.5625 z" fill="#000000" fill-opacity="1" stroke="none" marker="none" visibility="visible" display="inline" overflow="visible"/></g><text x="0" y="79" fill="#000000" font-size="5px" font-weight="bold" font-family="'Helvetica Neue', Helvetica, Arial-Unicode, Arial, Sans-serif">Created by Chameleon Design</text><text x="0" y="84" fill="#000000" font-size="5px" font-weight="bold" font-family="'Helvetica Neue', Helvetica, Arial-Unicode, Arial, Sans-serif">from the Noun Project</text></svg>