<svg xmlns="http://www.w3.org/2000/svg" xmlns:xlink="http://www.w3.org/1999/xlink" version="1.1" x="0px" y="0px" viewBox="0 0 32 40" style="enable-background:new 0 0 32 32;" xml:space="preserve"><path d="M25,28h-2.2c-7,0-12.8-5.4-12.8-12c0-6.7,5.7-12,12.8-12H25c0.6,0,1,0.4,1,1s-0.4,1-1,1h-2.2C16.8,6,12,10.5,12,16  c0,5.6,4.8,10,10.8,10H25c0.6,0,1,0.4,1,1S25.6,28,25,28z"/><path d="M19,15H7c-0.6,0-1-0.4-1-1s0.4-1,1-1h12c0.6,0,1,0.4,1,1S19.6,15,19,15z"/><path d="M17,19H7c-0.6,0-1-0.4-1-1s0.4-1,1-1h10c0.6,0,1,0.4,1,1S17.6,19,17,19z"/><text x="0" y="47" fill="#000000" font-size="5px" font-weight="bold" font-family="'Helvetica Neue', Helvetica, Arial-Unicode, Arial, Sans-serif">Created by Tri Wahyudi</text><text x="0" y="52" fill="#000000" font-size="5px" font-weight="bold" font-family="'Helvetica Neue', Helvetica, Arial-Unicode, Arial, Sans-serif">from the Noun Project</text></svg>