<svg xmlns="http://www.w3.org/2000/svg" xmlns:xlink="http://www.w3.org/1999/xlink" version="1.1" x="0px" y="0px" viewBox="0 0 100 125" style="enable-background:new 0 0 100 100;" xml:space="preserve"><g><path d="M75.9,64.7H24.1v-3.5c0-14.3,11.6-25.9,25.9-25.9s25.9,11.6,25.9,25.9V64.7z M25.2,63.7h49.6v-2.5   c0-13.7-11.1-24.8-24.8-24.8S25.2,47.5,25.2,61.2V63.7z"/></g><g><path d="M72.9,61.7H27.1v-0.5c0-12.6,10.3-22.9,22.9-22.9s22.9,10.3,22.9,22.9V61.7z M28.2,60.6h43.6c-0.3-11.8-10-21.3-21.8-21.3   S28.5,48.9,28.2,60.6z"/></g><text x="0" y="115" fill="#000000" font-size="5px" font-weight="bold" font-family="'Helvetica Neue', Helvetica, Arial-Unicode, Arial, Sans-serif">Created by Reyda Dönmez</text><text x="0" y="120" fill="#000000" font-size="5px" font-weight="bold" font-family="'Helvetica Neue', Helvetica, Arial-Unicode, Arial, Sans-serif">from the Noun Project</text></svg>