<svg xmlns="http://www.w3.org/2000/svg" xmlns:xlink="http://www.w3.org/1999/xlink" version="1.1" x="0px" y="0px" viewBox="0 0 100 125" enable-background="new 0 0 100 100" xml:space="preserve">
<g>
<?xml-stylesheet type="text/css" href="C:\Users\33763\go\src\github.com\eiko-team\eiko\static\css\reglementation.css"?>
<path class="fill" fill="none" stroke="#000000" stroke-linecap="round" stroke-linejoin="bevel" stroke-miterlimit="10" d="M68.1,97.5H31.9   c-4.6,0-8.3-3.7-8.3-8.3V10.8c0-4.6,3.7-8.3,8.3-8.3h36.1c4.6,0,8.3,3.7,8.3,8.3v78.4C76.4,93.8,72.7,97.5,68.1,97.5z"/>
<rect class="fill" x="26.2" y="13.1" fill="none" stroke="#000000" stroke-linecap="round" stroke-linejoin="bevel" stroke-miterlimit="10" width="47.5" height="73.9"/>
<path class="fill" fill="none" stroke="#000000" stroke-linecap="round" stroke-linejoin="bevel" stroke-miterlimit="10" d="M53.3,94.9h-6.6   c-1.1,0-2-0.9-2-2v-1.3c0-1.1,0.9-2,2-2h6.6c1.1,0,2,0.9,2,2v1.3C55.3,94,54.4,94.9,53.3,94.9z"/>
<rect class="fill" x="44.7" y="5.1" fill="none" stroke="#000000" stroke-linecap="round" stroke-linejoin="bevel" stroke-miterlimit="10" width="10.6" height="2.6"/>
<path class="fill" fill="none" stroke="#000000" stroke-miterlimit="10" d="M50,30.8L50,30.8c-9.9,0-16,10.7-11.1,19.2L50,69.2L61.1,50   C66,41.5,59.9,30.8,50,30.8z M50,50c-4.1,0-7.3-3.3-7.3-7.3c0-4.1,3.3-7.3,7.3-7.3s7.3,3.3,7.3,7.3C57.3,46.7,54.1,50,50,50z"/>
</g>
</svg>