<svg xmlns="http://www.w3.org/2000/svg" viewBox="0 0 100 125" x="0px" y="0px"><title>Simple_Shapes</title><g data-name="Layer 2"><path d="M61,86.87H39a16.9,16.9,0,0,1-14.58-8.42l-11-19a16.88,16.88,0,0,1,0-16.84l11-19A16.9,16.9,0,0,1,39,15.13H61a16.9,16.9,0,0,1,14.58,8.42l11,19a16.88,16.88,0,0,1,0,16.84l-11,19A16.9,16.9,0,0,1,61,86.87ZM39,20.13a11.88,11.88,0,0,0-10.25,5.92l-11,19a11.86,11.86,0,0,0,0,11.84l11,19A11.88,11.88,0,0,0,39,81.87H61A11.88,11.88,0,0,0,71.24,76l11-19a11.86,11.86,0,0,0,0-11.84l-11-19A11.88,11.88,0,0,0,61,20.13Z"/></g><text x="0" y="115" fill="#000000" font-size="5px" font-weight="bold" font-family="'Helvetica Neue', Helvetica, Arial-Unicode, Arial, Sans-serif">Created by Kozan</text><text x="0" y="120" fill="#000000" font-size="5px" font-weight="bold" font-family="'Helvetica Neue', Helvetica, Arial-Unicode, Arial, Sans-serif">from the Noun Project</text></svg>