<svg xmlns="http://www.w3.org/2000/svg" xmlns:xlink="http://www.w3.org/1999/xlink" version="1.1" x="0px" y="0px" viewBox="0 0 52 65" style="enable-background:new 0 0 52 52;" xml:space="preserve"><style type="text/css">
	.st0{fill:none;stroke:#000000;stroke-width:2;stroke-linecap:round;stroke-linejoin:round;stroke-miterlimit:10;}
</style><g><g><path d="M28.381115,37.6858749c-4.0751953,0-8.1425781-1.3530273-11.2607422-4.0678711    c-3.2255859-2.8081074-4.6386719-8.7524433-6.1357422-15.0459003C9.6272087,12.8631191,8.2229118,6.9593105,5.482677,4.5725918    C4.866466,4.036459,4.9182239,3.3543303,5.2268176,2.9471037c1.703125-2.2402344,25.3330078,4.1054688,30.5927734,7.5610352l0,0    c5.0097656,3.2915039,7.96875,7.7436523,8.3310547,12.5371094c0.2958984,3.9091797-1.2412109,7.6850586-4.2148438,10.3588886    C36.7639275,36.2552109,32.568615,37.6853867,28.381115,37.6858749z M8.0793571,4.4612637    c2.3496094,3.1269531,3.5693359,8.2597656,4.8515625,13.6484375c1.3574219,5.7094727,2.7617188,11.6132813,5.5019531,13.9995136    c5.5888672,4.8657227,14.6347656,4.7797852,20.1650391-0.1923847c2.5097656-2.2563477,3.8066406-5.4345703,3.5585938-8.7207031    c-0.3154297-4.1611328-2.9550781-8.0732422-7.4345703-11.0161133l0,0    C29.5275993,8.767416,13.4934196,5.0305996,8.0793571,4.4612637z"/></g><g><path d="M45.0100212,49.5208359C42.999279,32.3269882,18.6076775,13.223959,18.3615837,13.033041l1.2255859-1.5800781    c1.0322266,0.800293,25.3007813,19.8071289,27.4091797,37.8354492L45.0100212,49.5208359z"/></g><g><rect x="26.4826775" y="12.2430019" width="2" height="7.7114258"/></g><g><rect x="18.1076775" y="16.6350918" width="6.9375" height="2"/></g><g><rect x="30.5462589" y="21.6994209" transform="matrix(0.1860573 -0.9825389 0.9825389 0.1860573 4.9969311 51.4305725)" width="5.9880695" height="1.9997618"/></g><g><rect x="22.0256462" y="22.2522793" width="8.7529297" height="2"/></g></g><text x="0" y="67" fill="#000000" font-size="5px" font-weight="bold" font-family="'Helvetica Neue', Helvetica, Arial-Unicode, Arial, Sans-serif">Created by Graphic Tigers</text><text x="0" y="72" fill="#000000" font-size="5px" font-weight="bold" font-family="'Helvetica Neue', Helvetica, Arial-Unicode, Arial, Sans-serif">from the Noun Project</text></svg>