<svg xmlns="http://www.w3.org/2000/svg" data-name="Layer 1" viewBox="0 0 100 125" x="0px" y="0px"><title>check1</title><path d="M47.89,60.42a2,2,0,0,1-1.41-.58L33.85,47.2a2,2,0,0,1,2.83-2.82L47.89,55.59,88.59,14.9a2,2,0,0,1,2.82,2.83L49.31,59.84A2,2,0,0,1,47.89,60.42Z"/><path d="M77.37,89.89H18.42A10.43,10.43,0,0,1,8,79.47V20.53A10.43,10.43,0,0,1,18.42,10.11H64.74a2,2,0,0,1,0,4H18.42A6.43,6.43,0,0,0,12,20.53V79.47a6.43,6.43,0,0,0,6.42,6.42h59a6.43,6.43,0,0,0,6.42-6.42V50a2,2,0,0,1,4,0V79.47A10.43,10.43,0,0,1,77.37,89.89Z"/><text x="0" y="115" fill="#000000" font-size="5px" font-weight="bold" font-family="'Helvetica Neue', Helvetica, Arial-Unicode, Arial, Sans-serif">Created by VM</text><text x="0" y="120" fill="#000000" font-size="5px" font-weight="bold" font-family="'Helvetica Neue', Helvetica, Arial-Unicode, Arial, Sans-serif">from the Noun Project</text></svg>