<svg xmlns="http://www.w3.org/2000/svg" xmlns:xlink="http://www.w3.org/1999/xlink" version="1.1" x="0px" y="0px" viewBox="0 0 100 125" enable-background="new 0 0 100 100" xml:space="preserve"><g><path d="M50.031,91.755L10.205,49.416c-4.371-4.65-6.668-10.724-6.469-17.104c0.199-6.379,2.87-12.299,7.521-16.669   c4.447-4.177,10.255-6.478,16.353-6.478c6.571,0,12.919,2.746,17.417,7.533l4.975,5.294l4.972-5.294   c4.497-4.788,10.845-7.533,17.417-7.533c6.099,0,11.906,2.301,16.354,6.478c9.602,9.024,10.073,24.175,1.053,33.773L50.031,91.755z    M27.609,13.165c-5.076,0-9.911,1.916-13.614,5.393c-3.872,3.639-6.096,8.567-6.261,13.879c-0.166,5.312,1.747,10.368,5.385,14.239   l36.91,39.239l36.853-39.238c7.511-7.992,7.117-20.605-0.877-28.119c-3.702-3.478-8.537-5.393-13.614-5.393   c-5.553,0-10.703,2.228-14.501,6.271l-7.887,8.397l-7.891-8.397C38.311,15.393,33.161,13.165,27.609,13.165z"/></g><text x="0" y="115" fill="#000000" font-size="5px" font-weight="bold" font-family="'Helvetica Neue', Helvetica, Arial-Unicode, Arial, Sans-serif">Created by dilakuscan</text><text x="0" y="120" fill="#000000" font-size="5px" font-weight="bold" font-family="'Helvetica Neue', Helvetica, Arial-Unicode, Arial, Sans-serif">from the Noun Project</text></svg>