<svg xmlns:dc="http://purl.org/dc/elements/1.1/" xmlns:cc="http://creativecommons.org/ns#" xmlns:rdf="http://www.w3.org/1999/02/22-rdf-syntax-ns#" xmlns:svg="http://www.w3.org/2000/svg" xmlns="http://www.w3.org/2000/svg" xmlns:sodipodi="http://sodipodi.sourceforge.net/DTD/sodipodi-0.dtd" xmlns:inkscape="http://www.inkscape.org/namespaces/inkscape" version="1.1" x="0px" y="0px" viewBox="0 0 100 125"><g transform="translate(0,-952.36218)"><path style="text-indent:0;text-transform:none;direction:ltr;block-progression:tb;baseline-shift:baseline;color:#000000;enable-background:accumulate;" d="m 38.272674,969.21882 c -5.34956,0.1388 -10.73038,1.57826 -15.6875,4.4375 -15.8644396,9.15055 -21.2845696,29.46268 -12.125,45.31248 9.15986,15.8501 29.4484,21.244 45.3125,12.0938 6.77583,-3.9083 11.63953,-9.8397 14.28125,-16.5938 a 0.750075,0.750075 0 1 0 -1.375,-0.5625 c -2.52312,6.4509 -7.1811,12.1402 -13.65625,15.875 -15.16296,8.7459 -34.52763,3.5846 -43.28125,-11.5625 -8.7535696,-15.1473 -3.5687096,-34.50433 11.59375,-43.24998 4.7388,-2.73332 9.89266,-4.11748 15,-4.25 11.23593,-0.29154 22.2628,5.42954 28.28125,15.84375 0.80524,1.39335 1.49343,2.8009 2.0625,4.25 a 0.750075,0.750075 0 1 0 1.375,-0.5625 c -0.59643,-1.51876 -1.31395,-2.98001 -2.15625,-4.4375 -6.29705,-10.89631 -17.85597,-16.89913 -29.625,-16.59375 z m 36.25,13.84375 a 0.750075,0.750075 0 0 0 -0.375,1.28125 l 17.28125,17.28128 -48.375,0 a 0.750075,0.750075 0 0 0 -0.15625,0 0.75405803,0.75405803 0 1 0 0.15625,1.5 l 48.375,0 -17.28125,17.25 a 0.75130096,0.75130096 0 1 0 1.0625,1.0625 l 18.5625,-18.5313 a 0.750075,0.750075 0 0 0 0,-1.0625 l -18.5625,-18.56248 a 0.750075,0.750075 0 0 0 -0.6875,-0.21875 z" fill="#000000" fill-opacity="1" stroke="none" marker="none" visibility="visible" display="inline" overflow="visible"/></g><text x="0" y="115" fill="#000000" font-size="5px" font-weight="bold" font-family="'Helvetica Neue', Helvetica, Arial-Unicode, Arial, Sans-serif">Created by Royal@design</text><text x="0" y="120" fill="#000000" font-size="5px" font-weight="bold" font-family="'Helvetica Neue', Helvetica, Arial-Unicode, Arial, Sans-serif">from the Noun Project</text></svg>